<?xml version="1.0" encoding="utf-8" standalone="no"?>
<!DOCTYPE svg PUBLIC "-//W3C//DTD SVG 1.1//EN"
  "http://www.w3.org/Graphics/SVG/1.1/DTD/svg11.dtd">
<svg xmlns:xlink="http://www.w3.org/1999/xlink" width="540pt" height="540pt" viewBox="0 0 540 540" xmlns="http://www.w3.org/2000/svg" version="1.1">
 <metadata>
  <rdf:RDF xmlns:dc="http://purl.org/dc/elements/1.1/" xmlns:cc="http://creativecommons.org/ns#" xmlns:rdf="http://www.w3.org/1999/02/22-rdf-syntax-ns#">
   <cc:Work>
    <dc:type rdf:resource="http://purl.org/dc/dcmitype/StillImage"/>
    <dc:date>2023-10-08T01:31:38.567827</dc:date>
    <dc:format>image/svg+xml</dc:format>
    <dc:creator>
     <cc:Agent>
      <dc:title>Matplotlib v3.5.2, https://matplotlib.org/</dc:title>
     </cc:Agent>
    </dc:creator>
   </cc:Work>
  </rdf:RDF>
 </metadata>
 <defs>
  <style type="text/css">*{stroke-linejoin: round; stroke-linecap: butt}</style>
 </defs>
 <g id="figure_1">
  <g id="patch_1">
   <path d="M 0 540 
L 540 540 
L 540 0 
L 0 0 
z
" style="fill: #ffffff"/>
  </g>
  <g id="axes_1">
   <g id="patch_2">
    <path d="M 67.5 253.8 
L 257.727273 253.8 
L 257.727273 64.8 
L 67.5 64.8 
z
" style="fill: #eaeaf2"/>
   </g>
   <g id="matplotlib.axis_1">
    <g id="xtick_1">
     <g id="line2d_1">
      <path d="M 78.068182 253.8 
L 78.068182 64.8 
" clip-path="url(#p2506baab00)" style="fill: none; stroke: #ffffff; stroke-linecap: round"/>
     </g>
     <g id="line2d_2"/>
    </g>
    <g id="xtick_2">
     <g id="line2d_3">
      <path d="M 99.204545 253.8 
L 99.204545 64.8 
" clip-path="url(#p2506baab00)" style="fill: none; stroke: #ffffff; stroke-linecap: round"/>
     </g>
     <g id="line2d_4"/>
    </g>
    <g id="xtick_3">
     <g id="line2d_5">
      <path d="M 120.340909 253.8 
L 120.340909 64.8 
" clip-path="url(#p2506baab00)" style="fill: none; stroke: #ffffff; stroke-linecap: round"/>
     </g>
     <g id="line2d_6"/>
    </g>
    <g id="xtick_4">
     <g id="line2d_7">
      <path d="M 141.477273 253.8 
L 141.477273 64.8 
" clip-path="url(#p2506baab00)" style="fill: none; stroke: #ffffff; stroke-linecap: round"/>
     </g>
     <g id="line2d_8"/>
    </g>
    <g id="xtick_5">
     <g id="line2d_9">
      <path d="M 162.613636 253.8 
L 162.613636 64.8 
" clip-path="url(#p2506baab00)" style="fill: none; stroke: #ffffff; stroke-linecap: round"/>
     </g>
     <g id="line2d_10"/>
    </g>
    <g id="xtick_6">
     <g id="line2d_11">
      <path d="M 183.75 253.8 
L 183.75 64.8 
" clip-path="url(#p2506baab00)" style="fill: none; stroke: #ffffff; stroke-linecap: round"/>
     </g>
     <g id="line2d_12"/>
    </g>
    <g id="xtick_7">
     <g id="line2d_13">
      <path d="M 204.886364 253.8 
L 204.886364 64.8 
" clip-path="url(#p2506baab00)" style="fill: none; stroke: #ffffff; stroke-linecap: round"/>
     </g>
     <g id="line2d_14"/>
    </g>
    <g id="xtick_8">
     <g id="line2d_15">
      <path d="M 226.022727 253.8 
L 226.022727 64.8 
" clip-path="url(#p2506baab00)" style="fill: none; stroke: #ffffff; stroke-linecap: round"/>
     </g>
     <g id="line2d_16"/>
    </g>
    <g id="xtick_9">
     <g id="line2d_17">
      <path d="M 247.159091 253.8 
L 247.159091 64.8 
" clip-path="url(#p2506baab00)" style="fill: none; stroke: #ffffff; stroke-linecap: round"/>
     </g>
     <g id="line2d_18"/>
    </g>
    <g id="text_1">
     <!-- Index ($i$) -->
     <g style="fill: #262626" transform="translate(142.428636 266.16)scale(0.11 -0.11)">
      <defs>
       <path id="ArialMT-49" d="M 597 0 
L 597 4581 
L 1203 4581 
L 1203 0 
L 597 0 
z
" transform="scale(0.015625)"/>
       <path id="ArialMT-6e" d="M 422 0 
L 422 3319 
L 928 3319 
L 928 2847 
Q 1294 3394 1984 3394 
Q 2284 3394 2536 3286 
Q 2788 3178 2913 3003 
Q 3038 2828 3088 2588 
Q 3119 2431 3119 2041 
L 3119 0 
L 2556 0 
L 2556 2019 
Q 2556 2363 2490 2533 
Q 2425 2703 2258 2804 
Q 2091 2906 1866 2906 
Q 1506 2906 1245 2678 
Q 984 2450 984 1813 
L 984 0 
L 422 0 
z
" transform="scale(0.015625)"/>
       <path id="ArialMT-64" d="M 2575 0 
L 2575 419 
Q 2259 -75 1647 -75 
Q 1250 -75 917 144 
Q 584 363 401 755 
Q 219 1147 219 1656 
Q 219 2153 384 2558 
Q 550 2963 881 3178 
Q 1213 3394 1622 3394 
Q 1922 3394 2156 3267 
Q 2391 3141 2538 2938 
L 2538 4581 
L 3097 4581 
L 3097 0 
L 2575 0 
z
M 797 1656 
Q 797 1019 1065 703 
Q 1334 388 1700 388 
Q 2069 388 2326 689 
Q 2584 991 2584 1609 
Q 2584 2291 2321 2609 
Q 2059 2928 1675 2928 
Q 1300 2928 1048 2622 
Q 797 2316 797 1656 
z
" transform="scale(0.015625)"/>
       <path id="ArialMT-65" d="M 2694 1069 
L 3275 997 
Q 3138 488 2766 206 
Q 2394 -75 1816 -75 
Q 1088 -75 661 373 
Q 234 822 234 1631 
Q 234 2469 665 2931 
Q 1097 3394 1784 3394 
Q 2450 3394 2872 2941 
Q 3294 2488 3294 1666 
Q 3294 1616 3291 1516 
L 816 1516 
Q 847 969 1125 678 
Q 1403 388 1819 388 
Q 2128 388 2347 550 
Q 2566 713 2694 1069 
z
M 847 1978 
L 2700 1978 
Q 2663 2397 2488 2606 
Q 2219 2931 1791 2931 
Q 1403 2931 1139 2672 
Q 875 2413 847 1978 
z
" transform="scale(0.015625)"/>
       <path id="ArialMT-78" d="M 47 0 
L 1259 1725 
L 138 3319 
L 841 3319 
L 1350 2541 
Q 1494 2319 1581 2169 
Q 1719 2375 1834 2534 
L 2394 3319 
L 3066 3319 
L 1919 1756 
L 3153 0 
L 2463 0 
L 1781 1031 
L 1600 1309 
L 728 0 
L 47 0 
z
" transform="scale(0.015625)"/>
       <path id="ArialMT-20" transform="scale(0.015625)"/>
       <path id="ArialMT-28" d="M 1497 -1347 
Q 1031 -759 709 28 
Q 388 816 388 1659 
Q 388 2403 628 3084 
Q 909 3875 1497 4659 
L 1900 4659 
Q 1522 4009 1400 3731 
Q 1209 3300 1100 2831 
Q 966 2247 966 1656 
Q 966 153 1900 -1347 
L 1497 -1347 
z
" transform="scale(0.015625)"/>
       <path id="DejaVuSans-Oblique-69" d="M 1172 4863 
L 1747 4863 
L 1606 4134 
L 1031 4134 
L 1172 4863 
z
M 909 3500 
L 1484 3500 
L 800 0 
L 225 0 
L 909 3500 
z
" transform="scale(0.015625)"/>
       <path id="ArialMT-29" d="M 791 -1347 
L 388 -1347 
Q 1322 153 1322 1656 
Q 1322 2244 1188 2822 
Q 1081 3291 891 3722 
Q 769 4003 388 4659 
L 791 4659 
Q 1378 3875 1659 3084 
Q 1900 2403 1900 1659 
Q 1900 816 1576 28 
Q 1253 -759 791 -1347 
z
" transform="scale(0.015625)"/>
      </defs>
      <use xlink:href="#ArialMT-49" transform="translate(0 0.015625)"/>
      <use xlink:href="#ArialMT-6e" transform="translate(27.783203 0.015625)"/>
      <use xlink:href="#ArialMT-64" transform="translate(83.398438 0.015625)"/>
      <use xlink:href="#ArialMT-65" transform="translate(139.013672 0.015625)"/>
      <use xlink:href="#ArialMT-78" transform="translate(194.628906 0.015625)"/>
      <use xlink:href="#ArialMT-20" transform="translate(244.628906 0.015625)"/>
      <use xlink:href="#ArialMT-28" transform="translate(272.412109 0.015625)"/>
      <use xlink:href="#DejaVuSans-Oblique-69" transform="translate(305.712891 0.015625)"/>
      <use xlink:href="#ArialMT-29" transform="translate(333.496094 0.015625)"/>
     </g>
    </g>
   </g>
   <g id="matplotlib.axis_2">
    <g id="ytick_1">
     <g id="line2d_19">
      <path d="M 67.5 253.8 
L 257.727273 253.8 
" clip-path="url(#p2506baab00)" style="fill: none; stroke: #ffffff; stroke-linecap: round"/>
     </g>
     <g id="line2d_20"/>
     <g id="text_2">
      <!-- 0.0 -->
      <g style="fill: #262626" transform="translate(46.6 257.378906)scale(0.1 -0.1)">
       <defs>
        <path id="ArialMT-30" d="M 266 2259 
Q 266 3072 433 3567 
Q 600 4063 929 4331 
Q 1259 4600 1759 4600 
Q 2128 4600 2406 4451 
Q 2684 4303 2865 4023 
Q 3047 3744 3150 3342 
Q 3253 2941 3253 2259 
Q 3253 1453 3087 958 
Q 2922 463 2592 192 
Q 2263 -78 1759 -78 
Q 1097 -78 719 397 
Q 266 969 266 2259 
z
M 844 2259 
Q 844 1131 1108 757 
Q 1372 384 1759 384 
Q 2147 384 2411 759 
Q 2675 1134 2675 2259 
Q 2675 3391 2411 3762 
Q 2147 4134 1753 4134 
Q 1366 4134 1134 3806 
Q 844 3388 844 2259 
z
" transform="scale(0.015625)"/>
        <path id="ArialMT-2e" d="M 581 0 
L 581 641 
L 1222 641 
L 1222 0 
L 581 0 
z
" transform="scale(0.015625)"/>
       </defs>
       <use xlink:href="#ArialMT-30"/>
       <use xlink:href="#ArialMT-2e" x="55.615234"/>
       <use xlink:href="#ArialMT-30" x="83.398438"/>
      </g>
     </g>
    </g>
    <g id="ytick_2">
     <g id="line2d_21">
      <path d="M 67.5 234.9 
L 257.727273 234.9 
" clip-path="url(#p2506baab00)" style="fill: none; stroke: #ffffff; stroke-linecap: round"/>
     </g>
     <g id="line2d_22"/>
     <g id="text_3">
      <!-- 0.1 -->
      <g style="fill: #262626" transform="translate(46.6 238.478906)scale(0.1 -0.1)">
       <defs>
        <path id="ArialMT-31" d="M 2384 0 
L 1822 0 
L 1822 3584 
Q 1619 3391 1289 3197 
Q 959 3003 697 2906 
L 697 3450 
Q 1169 3672 1522 3987 
Q 1875 4303 2022 4600 
L 2384 4600 
L 2384 0 
z
" transform="scale(0.015625)"/>
       </defs>
       <use xlink:href="#ArialMT-30"/>
       <use xlink:href="#ArialMT-2e" x="55.615234"/>
       <use xlink:href="#ArialMT-31" x="83.398438"/>
      </g>
     </g>
    </g>
    <g id="ytick_3">
     <g id="line2d_23">
      <path d="M 67.5 216 
L 257.727273 216 
" clip-path="url(#p2506baab00)" style="fill: none; stroke: #ffffff; stroke-linecap: round"/>
     </g>
     <g id="line2d_24"/>
     <g id="text_4">
      <!-- 0.2 -->
      <g style="fill: #262626" transform="translate(46.6 219.578906)scale(0.1 -0.1)">
       <defs>
        <path id="ArialMT-32" d="M 3222 541 
L 3222 0 
L 194 0 
Q 188 203 259 391 
Q 375 700 629 1000 
Q 884 1300 1366 1694 
Q 2113 2306 2375 2664 
Q 2638 3022 2638 3341 
Q 2638 3675 2398 3904 
Q 2159 4134 1775 4134 
Q 1369 4134 1125 3890 
Q 881 3647 878 3216 
L 300 3275 
Q 359 3922 746 4261 
Q 1134 4600 1788 4600 
Q 2447 4600 2831 4234 
Q 3216 3869 3216 3328 
Q 3216 3053 3103 2787 
Q 2991 2522 2730 2228 
Q 2469 1934 1863 1422 
Q 1356 997 1212 845 
Q 1069 694 975 541 
L 3222 541 
z
" transform="scale(0.015625)"/>
       </defs>
       <use xlink:href="#ArialMT-30"/>
       <use xlink:href="#ArialMT-2e" x="55.615234"/>
       <use xlink:href="#ArialMT-32" x="83.398438"/>
      </g>
     </g>
    </g>
    <g id="ytick_4">
     <g id="line2d_25">
      <path d="M 67.5 197.1 
L 257.727273 197.1 
" clip-path="url(#p2506baab00)" style="fill: none; stroke: #ffffff; stroke-linecap: round"/>
     </g>
     <g id="line2d_26"/>
     <g id="text_5">
      <!-- 0.3 -->
      <g style="fill: #262626" transform="translate(46.6 200.678906)scale(0.1 -0.1)">
       <defs>
        <path id="ArialMT-33" d="M 269 1209 
L 831 1284 
Q 928 806 1161 595 
Q 1394 384 1728 384 
Q 2125 384 2398 659 
Q 2672 934 2672 1341 
Q 2672 1728 2419 1979 
Q 2166 2231 1775 2231 
Q 1616 2231 1378 2169 
L 1441 2663 
Q 1497 2656 1531 2656 
Q 1891 2656 2178 2843 
Q 2466 3031 2466 3422 
Q 2466 3731 2256 3934 
Q 2047 4138 1716 4138 
Q 1388 4138 1169 3931 
Q 950 3725 888 3313 
L 325 3413 
Q 428 3978 793 4289 
Q 1159 4600 1703 4600 
Q 2078 4600 2393 4439 
Q 2709 4278 2876 4000 
Q 3044 3722 3044 3409 
Q 3044 3113 2884 2869 
Q 2725 2625 2413 2481 
Q 2819 2388 3044 2092 
Q 3269 1797 3269 1353 
Q 3269 753 2831 336 
Q 2394 -81 1725 -81 
Q 1122 -81 723 278 
Q 325 638 269 1209 
z
" transform="scale(0.015625)"/>
       </defs>
       <use xlink:href="#ArialMT-30"/>
       <use xlink:href="#ArialMT-2e" x="55.615234"/>
       <use xlink:href="#ArialMT-33" x="83.398438"/>
      </g>
     </g>
    </g>
    <g id="ytick_5">
     <g id="line2d_27">
      <path d="M 67.5 178.2 
L 257.727273 178.2 
" clip-path="url(#p2506baab00)" style="fill: none; stroke: #ffffff; stroke-linecap: round"/>
     </g>
     <g id="line2d_28"/>
     <g id="text_6">
      <!-- 0.4 -->
      <g style="fill: #262626" transform="translate(46.6 181.778906)scale(0.1 -0.1)">
       <defs>
        <path id="ArialMT-34" d="M 2069 0 
L 2069 1097 
L 81 1097 
L 81 1613 
L 2172 4581 
L 2631 4581 
L 2631 1613 
L 3250 1613 
L 3250 1097 
L 2631 1097 
L 2631 0 
L 2069 0 
z
M 2069 1613 
L 2069 3678 
L 634 1613 
L 2069 1613 
z
" transform="scale(0.015625)"/>
       </defs>
       <use xlink:href="#ArialMT-30"/>
       <use xlink:href="#ArialMT-2e" x="55.615234"/>
       <use xlink:href="#ArialMT-34" x="83.398438"/>
      </g>
     </g>
    </g>
    <g id="ytick_6">
     <g id="line2d_29">
      <path d="M 67.5 159.3 
L 257.727273 159.3 
" clip-path="url(#p2506baab00)" style="fill: none; stroke: #ffffff; stroke-linecap: round"/>
     </g>
     <g id="line2d_30"/>
     <g id="text_7">
      <!-- 0.5 -->
      <g style="fill: #262626" transform="translate(46.6 162.878906)scale(0.1 -0.1)">
       <defs>
        <path id="ArialMT-35" d="M 266 1200 
L 856 1250 
Q 922 819 1161 601 
Q 1400 384 1738 384 
Q 2144 384 2425 690 
Q 2706 997 2706 1503 
Q 2706 1984 2436 2262 
Q 2166 2541 1728 2541 
Q 1456 2541 1237 2417 
Q 1019 2294 894 2097 
L 366 2166 
L 809 4519 
L 3088 4519 
L 3088 3981 
L 1259 3981 
L 1013 2750 
Q 1425 3038 1878 3038 
Q 2478 3038 2890 2622 
Q 3303 2206 3303 1553 
Q 3303 931 2941 478 
Q 2500 -78 1738 -78 
Q 1113 -78 717 272 
Q 322 622 266 1200 
z
" transform="scale(0.015625)"/>
       </defs>
       <use xlink:href="#ArialMT-30"/>
       <use xlink:href="#ArialMT-2e" x="55.615234"/>
       <use xlink:href="#ArialMT-35" x="83.398438"/>
      </g>
     </g>
    </g>
    <g id="ytick_7">
     <g id="line2d_31">
      <path d="M 67.5 140.4 
L 257.727273 140.4 
" clip-path="url(#p2506baab00)" style="fill: none; stroke: #ffffff; stroke-linecap: round"/>
     </g>
     <g id="line2d_32"/>
     <g id="text_8">
      <!-- 0.6 -->
      <g style="fill: #262626" transform="translate(46.6 143.978906)scale(0.1 -0.1)">
       <defs>
        <path id="ArialMT-36" d="M 3184 3459 
L 2625 3416 
Q 2550 3747 2413 3897 
Q 2184 4138 1850 4138 
Q 1581 4138 1378 3988 
Q 1113 3794 959 3422 
Q 806 3050 800 2363 
Q 1003 2672 1297 2822 
Q 1591 2972 1913 2972 
Q 2475 2972 2870 2558 
Q 3266 2144 3266 1488 
Q 3266 1056 3080 686 
Q 2894 316 2569 119 
Q 2244 -78 1831 -78 
Q 1128 -78 684 439 
Q 241 956 241 2144 
Q 241 3472 731 4075 
Q 1159 4600 1884 4600 
Q 2425 4600 2770 4297 
Q 3116 3994 3184 3459 
z
M 888 1484 
Q 888 1194 1011 928 
Q 1134 663 1356 523 
Q 1578 384 1822 384 
Q 2178 384 2434 671 
Q 2691 959 2691 1453 
Q 2691 1928 2437 2201 
Q 2184 2475 1800 2475 
Q 1419 2475 1153 2201 
Q 888 1928 888 1484 
z
" transform="scale(0.015625)"/>
       </defs>
       <use xlink:href="#ArialMT-30"/>
       <use xlink:href="#ArialMT-2e" x="55.615234"/>
       <use xlink:href="#ArialMT-36" x="83.398438"/>
      </g>
     </g>
    </g>
    <g id="ytick_8">
     <g id="line2d_33">
      <path d="M 67.5 121.5 
L 257.727273 121.5 
" clip-path="url(#p2506baab00)" style="fill: none; stroke: #ffffff; stroke-linecap: round"/>
     </g>
     <g id="line2d_34"/>
     <g id="text_9">
      <!-- 0.7 -->
      <g style="fill: #262626" transform="translate(46.6 125.078906)scale(0.1 -0.1)">
       <defs>
        <path id="ArialMT-37" d="M 303 3981 
L 303 4522 
L 3269 4522 
L 3269 4084 
Q 2831 3619 2401 2847 
Q 1972 2075 1738 1259 
Q 1569 684 1522 0 
L 944 0 
Q 953 541 1156 1306 
Q 1359 2072 1739 2783 
Q 2119 3494 2547 3981 
L 303 3981 
z
" transform="scale(0.015625)"/>
       </defs>
       <use xlink:href="#ArialMT-30"/>
       <use xlink:href="#ArialMT-2e" x="55.615234"/>
       <use xlink:href="#ArialMT-37" x="83.398438"/>
      </g>
     </g>
    </g>
    <g id="ytick_9">
     <g id="line2d_35">
      <path d="M 67.5 102.6 
L 257.727273 102.6 
" clip-path="url(#p2506baab00)" style="fill: none; stroke: #ffffff; stroke-linecap: round"/>
     </g>
     <g id="line2d_36"/>
     <g id="text_10">
      <!-- 0.8 -->
      <g style="fill: #262626" transform="translate(46.6 106.178906)scale(0.1 -0.1)">
       <defs>
        <path id="ArialMT-38" d="M 1131 2484 
Q 781 2613 612 2850 
Q 444 3088 444 3419 
Q 444 3919 803 4259 
Q 1163 4600 1759 4600 
Q 2359 4600 2725 4251 
Q 3091 3903 3091 3403 
Q 3091 3084 2923 2848 
Q 2756 2613 2416 2484 
Q 2838 2347 3058 2040 
Q 3278 1734 3278 1309 
Q 3278 722 2862 322 
Q 2447 -78 1769 -78 
Q 1091 -78 675 323 
Q 259 725 259 1325 
Q 259 1772 486 2073 
Q 713 2375 1131 2484 
z
M 1019 3438 
Q 1019 3113 1228 2906 
Q 1438 2700 1772 2700 
Q 2097 2700 2305 2904 
Q 2513 3109 2513 3406 
Q 2513 3716 2298 3927 
Q 2084 4138 1766 4138 
Q 1444 4138 1231 3931 
Q 1019 3725 1019 3438 
z
M 838 1322 
Q 838 1081 952 856 
Q 1066 631 1291 507 
Q 1516 384 1775 384 
Q 2178 384 2440 643 
Q 2703 903 2703 1303 
Q 2703 1709 2433 1975 
Q 2163 2241 1756 2241 
Q 1359 2241 1098 1978 
Q 838 1716 838 1322 
z
" transform="scale(0.015625)"/>
       </defs>
       <use xlink:href="#ArialMT-30"/>
       <use xlink:href="#ArialMT-2e" x="55.615234"/>
       <use xlink:href="#ArialMT-38" x="83.398438"/>
      </g>
     </g>
    </g>
    <g id="ytick_10">
     <g id="line2d_37">
      <path d="M 67.5 83.7 
L 257.727273 83.7 
" clip-path="url(#p2506baab00)" style="fill: none; stroke: #ffffff; stroke-linecap: round"/>
     </g>
     <g id="line2d_38"/>
     <g id="text_11">
      <!-- 0.9 -->
      <g style="fill: #262626" transform="translate(46.6 87.278906)scale(0.1 -0.1)">
       <defs>
        <path id="ArialMT-39" d="M 350 1059 
L 891 1109 
Q 959 728 1153 556 
Q 1347 384 1650 384 
Q 1909 384 2104 503 
Q 2300 622 2425 820 
Q 2550 1019 2634 1356 
Q 2719 1694 2719 2044 
Q 2719 2081 2716 2156 
Q 2547 1888 2255 1720 
Q 1963 1553 1622 1553 
Q 1053 1553 659 1965 
Q 266 2378 266 3053 
Q 266 3750 677 4175 
Q 1088 4600 1706 4600 
Q 2153 4600 2523 4359 
Q 2894 4119 3086 3673 
Q 3278 3228 3278 2384 
Q 3278 1506 3087 986 
Q 2897 466 2520 194 
Q 2144 -78 1638 -78 
Q 1100 -78 759 220 
Q 419 519 350 1059 
z
M 2653 3081 
Q 2653 3566 2395 3850 
Q 2138 4134 1775 4134 
Q 1400 4134 1122 3828 
Q 844 3522 844 3034 
Q 844 2597 1108 2323 
Q 1372 2050 1759 2050 
Q 2150 2050 2401 2323 
Q 2653 2597 2653 3081 
z
" transform="scale(0.015625)"/>
       </defs>
       <use xlink:href="#ArialMT-30"/>
       <use xlink:href="#ArialMT-2e" x="55.615234"/>
       <use xlink:href="#ArialMT-39" x="83.398438"/>
      </g>
     </g>
    </g>
    <g id="text_12">
     <!-- Uncorrected p-value -->
     <g style="fill: #262626" transform="translate(40.41375 208.820625)rotate(-90)scale(0.11 -0.11)">
      <defs>
       <path id="ArialMT-55" d="M 3500 4581 
L 4106 4581 
L 4106 1934 
Q 4106 1244 3950 837 
Q 3794 431 3386 176 
Q 2978 -78 2316 -78 
Q 1672 -78 1262 144 
Q 853 366 678 786 
Q 503 1206 503 1934 
L 503 4581 
L 1109 4581 
L 1109 1938 
Q 1109 1341 1220 1058 
Q 1331 775 1601 622 
Q 1872 469 2263 469 
Q 2931 469 3215 772 
Q 3500 1075 3500 1938 
L 3500 4581 
z
" transform="scale(0.015625)"/>
       <path id="ArialMT-63" d="M 2588 1216 
L 3141 1144 
Q 3050 572 2676 248 
Q 2303 -75 1759 -75 
Q 1078 -75 664 370 
Q 250 816 250 1647 
Q 250 2184 428 2587 
Q 606 2991 970 3192 
Q 1334 3394 1763 3394 
Q 2303 3394 2647 3120 
Q 2991 2847 3088 2344 
L 2541 2259 
Q 2463 2594 2264 2762 
Q 2066 2931 1784 2931 
Q 1359 2931 1093 2626 
Q 828 2322 828 1663 
Q 828 994 1084 691 
Q 1341 388 1753 388 
Q 2084 388 2306 591 
Q 2528 794 2588 1216 
z
" transform="scale(0.015625)"/>
       <path id="ArialMT-6f" d="M 213 1659 
Q 213 2581 725 3025 
Q 1153 3394 1769 3394 
Q 2453 3394 2887 2945 
Q 3322 2497 3322 1706 
Q 3322 1066 3130 698 
Q 2938 331 2570 128 
Q 2203 -75 1769 -75 
Q 1072 -75 642 372 
Q 213 819 213 1659 
z
M 791 1659 
Q 791 1022 1069 705 
Q 1347 388 1769 388 
Q 2188 388 2466 706 
Q 2744 1025 2744 1678 
Q 2744 2294 2464 2611 
Q 2184 2928 1769 2928 
Q 1347 2928 1069 2612 
Q 791 2297 791 1659 
z
" transform="scale(0.015625)"/>
       <path id="ArialMT-72" d="M 416 0 
L 416 3319 
L 922 3319 
L 922 2816 
Q 1116 3169 1280 3281 
Q 1444 3394 1641 3394 
Q 1925 3394 2219 3213 
L 2025 2691 
Q 1819 2813 1613 2813 
Q 1428 2813 1281 2702 
Q 1134 2591 1072 2394 
Q 978 2094 978 1738 
L 978 0 
L 416 0 
z
" transform="scale(0.015625)"/>
       <path id="ArialMT-74" d="M 1650 503 
L 1731 6 
Q 1494 -44 1306 -44 
Q 1000 -44 831 53 
Q 663 150 594 308 
Q 525 466 525 972 
L 525 2881 
L 113 2881 
L 113 3319 
L 525 3319 
L 525 4141 
L 1084 4478 
L 1084 3319 
L 1650 3319 
L 1650 2881 
L 1084 2881 
L 1084 941 
Q 1084 700 1114 631 
Q 1144 563 1211 522 
Q 1278 481 1403 481 
Q 1497 481 1650 503 
z
" transform="scale(0.015625)"/>
       <path id="ArialMT-70" d="M 422 -1272 
L 422 3319 
L 934 3319 
L 934 2888 
Q 1116 3141 1344 3267 
Q 1572 3394 1897 3394 
Q 2322 3394 2647 3175 
Q 2972 2956 3137 2557 
Q 3303 2159 3303 1684 
Q 3303 1175 3120 767 
Q 2938 359 2589 142 
Q 2241 -75 1856 -75 
Q 1575 -75 1351 44 
Q 1128 163 984 344 
L 984 -1272 
L 422 -1272 
z
M 931 1641 
Q 931 1000 1190 694 
Q 1450 388 1819 388 
Q 2194 388 2461 705 
Q 2728 1022 2728 1688 
Q 2728 2322 2467 2637 
Q 2206 2953 1844 2953 
Q 1484 2953 1207 2617 
Q 931 2281 931 1641 
z
" transform="scale(0.015625)"/>
       <path id="ArialMT-2d" d="M 203 1375 
L 203 1941 
L 1931 1941 
L 1931 1375 
L 203 1375 
z
" transform="scale(0.015625)"/>
       <path id="ArialMT-76" d="M 1344 0 
L 81 3319 
L 675 3319 
L 1388 1331 
Q 1503 1009 1600 663 
Q 1675 925 1809 1294 
L 2547 3319 
L 3125 3319 
L 1869 0 
L 1344 0 
z
" transform="scale(0.015625)"/>
       <path id="ArialMT-61" d="M 2588 409 
Q 2275 144 1986 34 
Q 1697 -75 1366 -75 
Q 819 -75 525 192 
Q 231 459 231 875 
Q 231 1119 342 1320 
Q 453 1522 633 1644 
Q 813 1766 1038 1828 
Q 1203 1872 1538 1913 
Q 2219 1994 2541 2106 
Q 2544 2222 2544 2253 
Q 2544 2597 2384 2738 
Q 2169 2928 1744 2928 
Q 1347 2928 1158 2789 
Q 969 2650 878 2297 
L 328 2372 
Q 403 2725 575 2942 
Q 747 3159 1072 3276 
Q 1397 3394 1825 3394 
Q 2250 3394 2515 3294 
Q 2781 3194 2906 3042 
Q 3031 2891 3081 2659 
Q 3109 2516 3109 2141 
L 3109 1391 
Q 3109 606 3145 398 
Q 3181 191 3288 0 
L 2700 0 
Q 2613 175 2588 409 
z
M 2541 1666 
Q 2234 1541 1622 1453 
Q 1275 1403 1131 1340 
Q 988 1278 909 1158 
Q 831 1038 831 891 
Q 831 666 1001 516 
Q 1172 366 1500 366 
Q 1825 366 2078 508 
Q 2331 650 2450 897 
Q 2541 1088 2541 1459 
L 2541 1666 
z
" transform="scale(0.015625)"/>
       <path id="ArialMT-6c" d="M 409 0 
L 409 4581 
L 972 4581 
L 972 0 
L 409 0 
z
" transform="scale(0.015625)"/>
       <path id="ArialMT-75" d="M 2597 0 
L 2597 488 
Q 2209 -75 1544 -75 
Q 1250 -75 995 37 
Q 741 150 617 320 
Q 494 491 444 738 
Q 409 903 409 1263 
L 409 3319 
L 972 3319 
L 972 1478 
Q 972 1038 1006 884 
Q 1059 663 1231 536 
Q 1403 409 1656 409 
Q 1909 409 2131 539 
Q 2353 669 2445 892 
Q 2538 1116 2538 1541 
L 2538 3319 
L 3100 3319 
L 3100 0 
L 2597 0 
z
" transform="scale(0.015625)"/>
      </defs>
      <use xlink:href="#ArialMT-55"/>
      <use xlink:href="#ArialMT-6e" x="72.216797"/>
      <use xlink:href="#ArialMT-63" x="127.832031"/>
      <use xlink:href="#ArialMT-6f" x="177.832031"/>
      <use xlink:href="#ArialMT-72" x="233.447266"/>
      <use xlink:href="#ArialMT-72" x="266.748047"/>
      <use xlink:href="#ArialMT-65" x="300.048828"/>
      <use xlink:href="#ArialMT-63" x="355.664062"/>
      <use xlink:href="#ArialMT-74" x="405.664062"/>
      <use xlink:href="#ArialMT-65" x="433.447266"/>
      <use xlink:href="#ArialMT-64" x="489.0625"/>
      <use xlink:href="#ArialMT-20" x="544.677734"/>
      <use xlink:href="#ArialMT-70" x="572.460938"/>
      <use xlink:href="#ArialMT-2d" x="628.076172"/>
      <use xlink:href="#ArialMT-76" x="661.376953"/>
      <use xlink:href="#ArialMT-61" x="711.376953"/>
      <use xlink:href="#ArialMT-6c" x="766.992188"/>
      <use xlink:href="#ArialMT-75" x="789.208984"/>
      <use xlink:href="#ArialMT-65" x="844.824219"/>
     </g>
    </g>
   </g>
   <g id="line2d_39">
    <path d="M 67.5 253.8 
L 78.068182 251.576471 
L 88.636364 249.352941 
L 99.204545 247.129412 
L 109.772727 244.905882 
L 120.340909 242.682353 
L 130.909091 240.458824 
L 141.477273 238.235294 
L 152.045455 236.011765 
L 162.613636 233.788235 
L 173.181818 231.564706 
L 183.75 229.341176 
L 194.318182 227.117647 
L 204.886364 224.894118 
L 215.454545 222.670588 
L 226.022727 220.447059 
L 236.590909 218.223529 
L 247.159091 216 
L 257.727273 213.776471 
" style="fill: none; stroke: #4c72b0; stroke-width: 2; stroke-linecap: round"/>
   </g>
   <g id="PathCollection_1">
    <defs>
     <path id="m440455e426" d="M -3.5 3.5 
L 3.5 -3.5 
M -3.5 -3.5 
L 3.5 3.5 
" style="stroke: #000000"/>
    </defs>
    <g>
     <use xlink:href="#m440455e426" x="78.068182" y="253.3086" style="stroke: #000000"/>
     <use xlink:href="#m440455e426" x="88.636364" y="251.91" style="stroke: #000000"/>
     <use xlink:href="#m440455e426" x="99.204545" y="251.154" style="stroke: #000000"/>
     <use xlink:href="#m440455e426" x="109.772727" y="249.075" style="stroke: #000000"/>
     <use xlink:href="#m440455e426" x="120.340909" y="245.862" style="stroke: #000000"/>
     <use xlink:href="#m440455e426" x="130.909091" y="241.326" style="stroke: #000000"/>
     <use xlink:href="#m440455e426" x="141.477273" y="234.9" style="stroke: #000000"/>
     <use xlink:href="#m440455e426" x="152.045455" y="231.12" style="stroke: #000000"/>
     <use xlink:href="#m440455e426" x="162.613636" y="221.67" style="stroke: #000000"/>
     <use xlink:href="#m440455e426" x="173.181818" y="200.88" style="stroke: #000000"/>
     <use xlink:href="#m440455e426" x="183.75" y="185.76" style="stroke: #000000"/>
     <use xlink:href="#m440455e426" x="194.318182" y="154.764" style="stroke: #000000"/>
     <use xlink:href="#m440455e426" x="204.886364" y="138.51" style="stroke: #000000"/>
     <use xlink:href="#m440455e426" x="215.454545" y="125.28" style="stroke: #000000"/>
     <use xlink:href="#m440455e426" x="226.022727" y="106.38" style="stroke: #000000"/>
     <use xlink:href="#m440455e426" x="236.590909" y="83.7" style="stroke: #000000"/>
     <use xlink:href="#m440455e426" x="247.159091" y="72.36" style="stroke: #000000"/>
    </g>
   </g>
   <g id="patch_3">
    <path d="M 67.5 253.8 
L 67.5 64.8 
" style="fill: none"/>
   </g>
   <g id="patch_4">
    <path d="M 257.727273 253.8 
L 257.727273 64.8 
" style="fill: none"/>
   </g>
   <g id="patch_5">
    <path d="M 67.5 253.8 
L 257.727273 253.8 
" style="fill: none"/>
   </g>
   <g id="patch_6">
    <path d="M 67.5 64.8 
L 257.727273 64.8 
" style="fill: none"/>
   </g>
   <g id="PathCollection_2">
    <defs>
     <path id="C0_0_18ffdb2771" d="M 0 3.5 
C 0.928211 3.5 1.81853 3.131218 2.474874 2.474874 
C 3.131218 1.81853 3.5 0.928211 3.5 -0 
C 3.5 -0.928211 3.131218 -1.81853 2.474874 -2.474874 
C 1.81853 -3.131218 0.928211 -3.5 0 -3.5 
C -0.928211 -3.5 -1.81853 -3.131218 -2.474874 -2.474874 
C -3.131218 -1.81853 -3.5 -0.928211 -3.5 0 
C -3.5 0.928211 -3.131218 1.81853 -2.474874 2.474874 
C -1.81853 3.131218 -0.928211 3.5 0 3.5 
z
"/>
    </defs>
    <use xlink:href="#C0_0_18ffdb2771" x="78.068182" y="253.3086" style="fill: none; stroke: #000000"/>
    <use xlink:href="#C0_0_18ffdb2771" x="88.636364" y="251.91" style="fill: none; stroke: #000000"/>
    <use xlink:href="#C0_0_18ffdb2771" x="99.204545" y="251.154" style="fill: none; stroke: #000000"/>
    <use xlink:href="#C0_0_18ffdb2771" x="109.772727" y="249.075" style="fill: none; stroke: #000000"/>
    <use xlink:href="#C0_0_18ffdb2771" x="120.340909" y="245.862" style="fill: none; stroke: #000000"/>
    <use xlink:href="#C0_0_18ffdb2771" x="130.909091" y="241.326" style="fill: none; stroke: #000000"/>
   </g>
   <g id="text_13">
    <!-- BH -->
    <g style="fill: #262626" transform="translate(154.278324 58.8)scale(0.12 -0.12)">
     <defs>
      <path id="ArialMT-42" d="M 469 0 
L 469 4581 
L 2188 4581 
Q 2713 4581 3030 4442 
Q 3347 4303 3526 4014 
Q 3706 3725 3706 3409 
Q 3706 3116 3547 2856 
Q 3388 2597 3066 2438 
Q 3481 2316 3704 2022 
Q 3928 1728 3928 1328 
Q 3928 1006 3792 729 
Q 3656 453 3456 303 
Q 3256 153 2954 76 
Q 2653 0 2216 0 
L 469 0 
z
M 1075 2656 
L 2066 2656 
Q 2469 2656 2644 2709 
Q 2875 2778 2992 2937 
Q 3109 3097 3109 3338 
Q 3109 3566 3000 3739 
Q 2891 3913 2687 3977 
Q 2484 4041 1991 4041 
L 1075 4041 
L 1075 2656 
z
M 1075 541 
L 2216 541 
Q 2509 541 2628 563 
Q 2838 600 2978 687 
Q 3119 775 3209 942 
Q 3300 1109 3300 1328 
Q 3300 1584 3169 1773 
Q 3038 1963 2805 2039 
Q 2572 2116 2134 2116 
L 1075 2116 
L 1075 541 
z
" transform="scale(0.015625)"/>
      <path id="ArialMT-48" d="M 513 0 
L 513 4581 
L 1119 4581 
L 1119 2700 
L 3500 2700 
L 3500 4581 
L 4106 4581 
L 4106 0 
L 3500 0 
L 3500 2159 
L 1119 2159 
L 1119 0 
L 513 0 
z
" transform="scale(0.015625)"/>
     </defs>
     <use xlink:href="#ArialMT-42"/>
     <use xlink:href="#ArialMT-48" x="66.699219"/>
    </g>
   </g>
  </g>
  <g id="axes_2">
   <g id="patch_7">
    <path d="M 295.772727 253.8 
L 486 253.8 
L 486 64.8 
L 295.772727 64.8 
z
" style="fill: #eaeaf2"/>
   </g>
   <g id="matplotlib.axis_3">
    <g id="xtick_10">
     <g id="line2d_40">
      <path d="M 306.340909 253.8 
L 306.340909 64.8 
" clip-path="url(#p06b4b42c93)" style="fill: none; stroke: #ffffff; stroke-linecap: round"/>
     </g>
     <g id="line2d_41"/>
    </g>
    <g id="xtick_11">
     <g id="line2d_42">
      <path d="M 327.477273 253.8 
L 327.477273 64.8 
" clip-path="url(#p06b4b42c93)" style="fill: none; stroke: #ffffff; stroke-linecap: round"/>
     </g>
     <g id="line2d_43"/>
    </g>
    <g id="xtick_12">
     <g id="line2d_44">
      <path d="M 348.613636 253.8 
L 348.613636 64.8 
" clip-path="url(#p06b4b42c93)" style="fill: none; stroke: #ffffff; stroke-linecap: round"/>
     </g>
     <g id="line2d_45"/>
    </g>
    <g id="xtick_13">
     <g id="line2d_46">
      <path d="M 369.75 253.8 
L 369.75 64.8 
" clip-path="url(#p06b4b42c93)" style="fill: none; stroke: #ffffff; stroke-linecap: round"/>
     </g>
     <g id="line2d_47"/>
    </g>
    <g id="xtick_14">
     <g id="line2d_48">
      <path d="M 390.886364 253.8 
L 390.886364 64.8 
" clip-path="url(#p06b4b42c93)" style="fill: none; stroke: #ffffff; stroke-linecap: round"/>
     </g>
     <g id="line2d_49"/>
    </g>
    <g id="xtick_15">
     <g id="line2d_50">
      <path d="M 412.022727 253.8 
L 412.022727 64.8 
" clip-path="url(#p06b4b42c93)" style="fill: none; stroke: #ffffff; stroke-linecap: round"/>
     </g>
     <g id="line2d_51"/>
    </g>
    <g id="xtick_16">
     <g id="line2d_52">
      <path d="M 433.159091 253.8 
L 433.159091 64.8 
" clip-path="url(#p06b4b42c93)" style="fill: none; stroke: #ffffff; stroke-linecap: round"/>
     </g>
     <g id="line2d_53"/>
    </g>
    <g id="xtick_17">
     <g id="line2d_54">
      <path d="M 454.295455 253.8 
L 454.295455 64.8 
" clip-path="url(#p06b4b42c93)" style="fill: none; stroke: #ffffff; stroke-linecap: round"/>
     </g>
     <g id="line2d_55"/>
    </g>
    <g id="xtick_18">
     <g id="line2d_56">
      <path d="M 475.431818 253.8 
L 475.431818 64.8 
" clip-path="url(#p06b4b42c93)" style="fill: none; stroke: #ffffff; stroke-linecap: round"/>
     </g>
     <g id="line2d_57"/>
    </g>
    <g id="text_14">
     <!-- Index ($i$) -->
     <g style="fill: #262626" transform="translate(370.701364 266.16)scale(0.11 -0.11)">
      <use xlink:href="#ArialMT-49" transform="translate(0 0.015625)"/>
      <use xlink:href="#ArialMT-6e" transform="translate(27.783203 0.015625)"/>
      <use xlink:href="#ArialMT-64" transform="translate(83.398438 0.015625)"/>
      <use xlink:href="#ArialMT-65" transform="translate(139.013672 0.015625)"/>
      <use xlink:href="#ArialMT-78" transform="translate(194.628906 0.015625)"/>
      <use xlink:href="#ArialMT-20" transform="translate(244.628906 0.015625)"/>
      <use xlink:href="#ArialMT-28" transform="translate(272.412109 0.015625)"/>
      <use xlink:href="#DejaVuSans-Oblique-69" transform="translate(305.712891 0.015625)"/>
      <use xlink:href="#ArialMT-29" transform="translate(333.496094 0.015625)"/>
     </g>
    </g>
   </g>
   <g id="matplotlib.axis_4">
    <g id="ytick_11">
     <g id="line2d_58">
      <path d="M 295.772727 253.8 
L 486 253.8 
" clip-path="url(#p06b4b42c93)" style="fill: none; stroke: #ffffff; stroke-linecap: round"/>
     </g>
     <g id="line2d_59"/>
    </g>
    <g id="ytick_12">
     <g id="line2d_60">
      <path d="M 295.772727 234.9 
L 486 234.9 
" clip-path="url(#p06b4b42c93)" style="fill: none; stroke: #ffffff; stroke-linecap: round"/>
     </g>
     <g id="line2d_61"/>
    </g>
    <g id="ytick_13">
     <g id="line2d_62">
      <path d="M 295.772727 216 
L 486 216 
" clip-path="url(#p06b4b42c93)" style="fill: none; stroke: #ffffff; stroke-linecap: round"/>
     </g>
     <g id="line2d_63"/>
    </g>
    <g id="ytick_14">
     <g id="line2d_64">
      <path d="M 295.772727 197.1 
L 486 197.1 
" clip-path="url(#p06b4b42c93)" style="fill: none; stroke: #ffffff; stroke-linecap: round"/>
     </g>
     <g id="line2d_65"/>
    </g>
    <g id="ytick_15">
     <g id="line2d_66">
      <path d="M 295.772727 178.2 
L 486 178.2 
" clip-path="url(#p06b4b42c93)" style="fill: none; stroke: #ffffff; stroke-linecap: round"/>
     </g>
     <g id="line2d_67"/>
    </g>
    <g id="ytick_16">
     <g id="line2d_68">
      <path d="M 295.772727 159.3 
L 486 159.3 
" clip-path="url(#p06b4b42c93)" style="fill: none; stroke: #ffffff; stroke-linecap: round"/>
     </g>
     <g id="line2d_69"/>
    </g>
    <g id="ytick_17">
     <g id="line2d_70">
      <path d="M 295.772727 140.4 
L 486 140.4 
" clip-path="url(#p06b4b42c93)" style="fill: none; stroke: #ffffff; stroke-linecap: round"/>
     </g>
     <g id="line2d_71"/>
    </g>
    <g id="ytick_18">
     <g id="line2d_72">
      <path d="M 295.772727 121.5 
L 486 121.5 
" clip-path="url(#p06b4b42c93)" style="fill: none; stroke: #ffffff; stroke-linecap: round"/>
     </g>
     <g id="line2d_73"/>
    </g>
    <g id="ytick_19">
     <g id="line2d_74">
      <path d="M 295.772727 102.6 
L 486 102.6 
" clip-path="url(#p06b4b42c93)" style="fill: none; stroke: #ffffff; stroke-linecap: round"/>
     </g>
     <g id="line2d_75"/>
    </g>
    <g id="ytick_20">
     <g id="line2d_76">
      <path d="M 295.772727 83.7 
L 486 83.7 
" clip-path="url(#p06b4b42c93)" style="fill: none; stroke: #ffffff; stroke-linecap: round"/>
     </g>
     <g id="line2d_77"/>
    </g>
   </g>
   <g id="line2d_78">
    <path d="M 295.772727 253.8 
L 306.340909 245.209091 
L 316.909091 236.618182 
L 327.477273 228.027273 
L 338.045455 219.436364 
L 348.613636 210.845455 
L 359.181818 202.254545 
L 369.75 193.663636 
L 380.318182 185.072727 
L 390.886364 176.481818 
L 401.454545 167.890909 
L 412.022727 159.3 
L 422.590909 150.709091 
L 433.159091 142.118182 
L 443.727273 133.527273 
L 454.295455 124.936364 
L 464.863636 116.345455 
L 475.431818 107.754545 
L 486 99.163636 
" clip-path="url(#p06b4b42c93)" style="fill: none; stroke: #b24d41; stroke-width: 2; stroke-linecap: round"/>
   </g>
   <g id="line2d_79">
    <path d="M 295.772727 253.8 
L 306.340909 246.530769 
L 316.909091 239.261538 
L 327.477273 231.992308 
L 338.045455 224.723077 
L 348.613636 217.453846 
L 359.181818 210.184615 
L 369.75 202.915385 
L 380.318182 195.646154 
L 390.886364 188.376923 
L 401.454545 181.107692 
L 412.022727 173.838462 
L 422.590909 166.569231 
L 433.159091 159.3 
L 443.727273 152.030769 
L 454.295455 144.761538 
L 464.863636 137.492308 
L 475.431818 130.223077 
L 486 122.953846 
" clip-path="url(#p06b4b42c93)" style="fill: none; stroke: #b2634d; stroke-width: 2; stroke-linecap: round"/>
   </g>
   <g id="patch_8">
    <path d="M 295.772727 253.8 
L 295.772727 64.8 
" style="fill: none"/>
   </g>
   <g id="patch_9">
    <path d="M 486 253.8 
L 486 64.8 
" style="fill: none"/>
   </g>
   <g id="patch_10">
    <path d="M 295.772727 253.8 
L 486 253.8 
" style="fill: none"/>
   </g>
   <g id="patch_11">
    <path d="M 295.772727 64.8 
L 486 64.8 
" style="fill: none"/>
   </g>
   <g id="line2d_80">
    <path d="M 295.772727 253.8 
L 306.340909 247.5 
L 316.909091 241.2 
L 327.477273 234.9 
L 338.045455 228.6 
L 348.613636 222.3 
L 359.181818 216 
L 369.75 209.7 
L 380.318182 203.4 
L 390.886364 197.1 
L 401.454545 190.8 
L 412.022727 184.5 
L 422.590909 178.2 
L 433.159091 171.9 
L 443.727273 165.6 
L 454.295455 159.3 
L 464.863636 153 
L 475.431818 146.7 
L 486 140.4 
" clip-path="url(#p06b4b42c93)" style="fill: none; stroke: #b27758; stroke-width: 2; stroke-linecap: round"/>
   </g>
   <g id="text_15">
    <!-- BKY -->
    <g style="fill: #262626" transform="translate(378.879801 58.8)scale(0.12 -0.12)">
     <defs>
      <path id="ArialMT-4b" d="M 469 0 
L 469 4581 
L 1075 4581 
L 1075 2309 
L 3350 4581 
L 4172 4581 
L 2250 2725 
L 4256 0 
L 3456 0 
L 1825 2319 
L 1075 1588 
L 1075 0 
L 469 0 
z
" transform="scale(0.015625)"/>
      <path id="ArialMT-59" d="M 1784 0 
L 1784 1941 
L 19 4581 
L 756 4581 
L 1659 3200 
Q 1909 2813 2125 2425 
Q 2331 2784 2625 3234 
L 3513 4581 
L 4219 4581 
L 2391 1941 
L 2391 0 
L 1784 0 
z
" transform="scale(0.015625)"/>
     </defs>
     <use xlink:href="#ArialMT-42"/>
     <use xlink:href="#ArialMT-4b" x="66.699219"/>
     <use xlink:href="#ArialMT-59" x="133.398438"/>
    </g>
   </g>
   <g id="line2d_81">
    <path d="M 295.772727 253.8 
L 306.340909 248.241176 
L 316.909091 242.682353 
L 327.477273 237.123529 
L 338.045455 231.564706 
L 348.613636 226.005882 
L 359.181818 220.447059 
L 369.75 214.888235 
L 380.318182 209.329412 
L 390.886364 203.770588 
L 401.454545 198.211765 
L 412.022727 192.652941 
L 422.590909 187.094118 
L 433.159091 181.535294 
L 443.727273 175.976471 
L 454.295455 170.417647 
L 464.863636 164.858824 
L 475.431818 159.3 
L 486 153.741176 
" clip-path="url(#p06b4b42c93)" style="fill: none; stroke: #b28a63; stroke-width: 2; stroke-linecap: round"/>
   </g>
   <g id="line2d_82">
    <path d="M 295.772727 253.8 
L 306.340909 248.826316 
L 316.909091 243.852632 
L 327.477273 238.878947 
L 338.045455 233.905263 
L 348.613636 228.931579 
L 359.181818 223.957895 
L 369.75 218.984211 
L 380.318182 214.010526 
L 390.886364 209.036842 
L 401.454545 204.063158 
L 412.022727 199.089474 
L 422.590909 194.115789 
L 433.159091 189.142105 
L 443.727273 184.168421 
L 454.295455 179.194737 
L 464.863636 174.221053 
L 475.431818 169.247368 
L 486 164.273684 
" clip-path="url(#p06b4b42c93)" style="fill: none; stroke: #a39569; stroke-width: 2; stroke-linecap: round"/>
   </g>
   <g id="line2d_83">
    <path d="M 295.772727 253.8 
L 306.340909 249.3 
L 316.909091 244.8 
L 327.477273 240.3 
L 338.045455 235.8 
L 348.613636 231.3 
L 359.181818 226.8 
L 369.75 222.3 
L 380.318182 217.8 
L 390.886364 213.3 
L 401.454545 208.8 
L 412.022727 204.3 
L 422.590909 199.8 
L 433.159091 195.3 
L 443.727273 190.8 
L 454.295455 186.3 
L 464.863636 181.8 
L 475.431818 177.3 
L 486 172.8 
" clip-path="url(#p06b4b42c93)" style="fill: none; stroke: #93a072; stroke-width: 2; stroke-linecap: round"/>
   </g>
   <g id="line2d_84">
    <path d="M 295.772727 253.8 
L 306.340909 249.691304 
L 316.909091 245.582609 
L 327.477273 241.473913 
L 338.045455 237.365217 
L 348.613636 233.256522 
L 359.181818 229.147826 
L 369.75 225.03913 
L 380.318182 220.930435 
L 390.886364 216.821739 
L 401.454545 212.713043 
L 412.022727 208.604348 
L 422.590909 204.495652 
L 433.159091 200.386957 
L 443.727273 196.278261 
L 454.295455 192.169565 
L 464.863636 188.06087 
L 475.431818 183.952174 
L 486 179.843478 
" clip-path="url(#p06b4b42c93)" style="fill: none; stroke: #88ac7f; stroke-width: 2; stroke-linecap: round"/>
   </g>
   <g id="line2d_85">
    <path d="M 295.772727 253.8 
L 306.340909 250.02 
L 316.909091 246.24 
L 327.477273 242.46 
L 338.045455 238.68 
L 348.613636 234.9 
L 359.181818 231.12 
L 369.75 227.34 
L 380.318182 223.56 
L 390.886364 219.78 
L 401.454545 216 
L 412.022727 212.22 
L 422.590909 208.44 
L 433.159091 204.66 
L 443.727273 200.88 
L 454.295455 197.1 
L 464.863636 193.32 
L 475.431818 189.54 
L 486 185.76 
" clip-path="url(#p06b4b42c93)" style="fill: none; stroke: #7bb289; stroke-width: 2; stroke-linecap: round"/>
   </g>
   <g id="line2d_86">
    <path d="M 295.772727 253.8 
L 306.340909 250.3 
L 316.909091 246.8 
L 327.477273 243.3 
L 338.045455 239.8 
L 348.613636 236.3 
L 359.181818 232.8 
L 369.75 229.3 
L 380.318182 225.8 
L 390.886364 222.3 
L 401.454545 218.8 
L 412.022727 215.3 
L 422.590909 211.8 
L 433.159091 208.3 
L 443.727273 204.8 
L 454.295455 201.3 
L 464.863636 197.8 
L 475.431818 194.3 
L 486 190.8 
" clip-path="url(#p06b4b42c93)" style="fill: none; stroke: #6cb292; stroke-width: 2; stroke-linecap: round"/>
   </g>
   <g id="line2d_87">
    <path d="M 295.772727 253.8 
L 306.340909 250.541379 
L 316.909091 247.282759 
L 327.477273 244.024138 
L 338.045455 240.765517 
L 348.613636 237.506897 
L 359.181818 234.248276 
L 369.75 230.989655 
L 380.318182 227.731034 
L 390.886364 224.472414 
L 401.454545 221.213793 
L 412.022727 217.955172 
L 422.590909 214.696552 
L 433.159091 211.437931 
L 443.727273 208.17931 
L 454.295455 204.92069 
L 464.863636 201.662069 
L 475.431818 198.403448 
L 486 195.144828 
" clip-path="url(#p06b4b42c93)" style="fill: none; stroke: #5cac97; stroke-width: 2; stroke-linecap: round"/>
   </g>
   <g id="line2d_88">
    <path d="M 295.772727 253.8 
L 306.340909 250.751613 
L 316.909091 247.703226 
L 327.477273 244.654839 
L 338.045455 241.606452 
L 348.613636 238.558065 
L 359.181818 235.509677 
L 369.75 232.46129 
L 380.318182 229.412903 
L 390.886364 226.364516 
L 401.454545 223.316129 
L 412.022727 220.267742 
L 422.590909 217.219355 
L 433.159091 214.170968 
L 443.727273 211.122581 
L 454.295455 208.074194 
L 464.863636 205.025806 
L 475.431818 201.977419 
L 486 198.929032 
" clip-path="url(#p06b4b42c93)" style="fill: none; stroke: #4aa09a; stroke-width: 2; stroke-linecap: round"/>
   </g>
   <g id="line2d_89">
    <path d="M 295.772727 253.8 
L 306.340909 250.936364 
L 316.909091 248.072727 
L 327.477273 245.209091 
L 338.045455 242.345455 
L 348.613636 239.481818 
L 359.181818 236.618182 
L 369.75 233.754545 
L 380.318182 230.890909 
L 390.886364 228.027273 
L 401.454545 225.163636 
L 412.022727 222.3 
L 422.590909 219.436364 
L 433.159091 216.572727 
L 443.727273 213.709091 
L 454.295455 210.845455 
L 464.863636 207.981818 
L 475.431818 205.118182 
L 486 202.254545 
" clip-path="url(#p06b4b42c93)" style="fill: none; stroke: #3b94a0; stroke-width: 2; stroke-linecap: round"/>
   </g>
   <g id="line2d_90">
    <path d="M 295.772727 253.8 
L 306.340909 251.1 
L 316.909091 248.4 
L 327.477273 245.7 
L 338.045455 243 
L 348.613636 240.3 
L 359.181818 237.6 
L 369.75 234.9 
L 380.318182 232.2 
L 390.886364 229.5 
L 401.454545 226.8 
L 412.022727 224.1 
L 422.590909 221.4 
L 433.159091 218.7 
L 443.727273 216 
L 454.295455 213.3 
L 464.863636 210.6 
L 475.431818 207.9 
L 486 205.2 
" clip-path="url(#p06b4b42c93)" style="fill: none; stroke: #3686a6; stroke-width: 2; stroke-linecap: round"/>
   </g>
   <g id="line2d_91">
    <path d="M 295.772727 253.8 
L 306.340909 251.245946 
L 316.909091 248.691892 
L 327.477273 246.137838 
L 338.045455 243.583784 
L 348.613636 241.02973 
L 359.181818 238.475676 
L 369.75 235.921622 
L 380.318182 233.367568 
L 390.886364 230.813514 
L 401.454545 228.259459 
L 412.022727 225.705405 
L 422.590909 223.151351 
L 433.159091 220.597297 
L 443.727273 218.043243 
L 454.295455 215.489189 
L 464.863636 212.935135 
L 475.431818 210.381081 
L 486 207.827027 
" clip-path="url(#p06b4b42c93)" style="fill: none; stroke: #4675ac; stroke-width: 2; stroke-linecap: round"/>
   </g>
   <g id="line2d_92">
    <path d="M 295.772727 253.8 
L 306.340909 251.376923 
L 316.909091 248.953846 
L 327.477273 246.530769 
L 338.045455 244.107692 
L 348.613636 241.684615 
L 359.181818 239.261538 
L 369.75 236.838462 
L 380.318182 234.415385 
L 390.886364 231.992308 
L 401.454545 229.569231 
L 412.022727 227.146154 
L 422.590909 224.723077 
L 433.159091 222.3 
L 443.727273 219.876923 
L 454.295455 217.453846 
L 464.863636 215.030769 
L 475.431818 212.607692 
L 486 210.184615 
" clip-path="url(#p06b4b42c93)" style="fill: none; stroke: #5662af; stroke-width: 2; stroke-linecap: round"/>
   </g>
   <g id="line2d_93">
    <path d="M 295.772727 253.8 
L 306.340909 251.495122 
L 316.909091 249.190244 
L 327.477273 246.885366 
L 338.045455 244.580488 
L 348.613636 242.27561 
L 359.181818 239.970732 
L 369.75 237.665854 
L 380.318182 235.360976 
L 390.886364 233.056098 
L 401.454545 230.75122 
L 412.022727 228.446341 
L 422.590909 226.141463 
L 433.159091 223.836585 
L 443.727273 221.531707 
L 454.295455 219.226829 
L 464.863636 216.921951 
L 475.431818 214.617073 
L 486 212.312195 
" clip-path="url(#p06b4b42c93)" style="fill: none; stroke: #654cb2; stroke-width: 2; stroke-linecap: round"/>
   </g>
   <g id="line2d_94">
    <path d="M 295.772727 253.8 
L 306.340909 251.602326 
L 316.909091 249.404651 
L 327.477273 247.206977 
L 338.045455 245.009302 
L 348.613636 242.811628 
L 359.181818 240.613953 
L 369.75 238.416279 
L 380.318182 236.218605 
L 390.886364 234.02093 
L 401.454545 231.823256 
L 412.022727 229.625581 
L 422.590909 227.427907 
L 433.159091 225.230233 
L 443.727273 223.032558 
L 454.295455 220.834884 
L 464.863636 218.637209 
L 475.431818 216.439535 
L 486 214.24186 
" clip-path="url(#p06b4b42c93)" style="fill: none; stroke: #7436b2; stroke-width: 2; stroke-linecap: round"/>
   </g>
   <g id="PathCollection_3">
    <g>
     <use xlink:href="#m440455e426" x="306.340909" y="253.3086" style="stroke: #000000"/>
     <use xlink:href="#m440455e426" x="316.909091" y="251.91" style="stroke: #000000"/>
     <use xlink:href="#m440455e426" x="327.477273" y="251.154" style="stroke: #000000"/>
     <use xlink:href="#m440455e426" x="338.045455" y="249.075" style="stroke: #000000"/>
     <use xlink:href="#m440455e426" x="348.613636" y="245.862" style="stroke: #000000"/>
     <use xlink:href="#m440455e426" x="359.181818" y="241.326" style="stroke: #000000"/>
     <use xlink:href="#m440455e426" x="369.75" y="234.9" style="stroke: #000000"/>
     <use xlink:href="#m440455e426" x="380.318182" y="231.12" style="stroke: #000000"/>
     <use xlink:href="#m440455e426" x="390.886364" y="221.67" style="stroke: #000000"/>
     <use xlink:href="#m440455e426" x="401.454545" y="200.88" style="stroke: #000000"/>
     <use xlink:href="#m440455e426" x="412.022727" y="185.76" style="stroke: #000000"/>
     <use xlink:href="#m440455e426" x="422.590909" y="154.764" style="stroke: #000000"/>
     <use xlink:href="#m440455e426" x="433.159091" y="138.51" style="stroke: #000000"/>
     <use xlink:href="#m440455e426" x="443.727273" y="125.28" style="stroke: #000000"/>
     <use xlink:href="#m440455e426" x="454.295455" y="106.38" style="stroke: #000000"/>
     <use xlink:href="#m440455e426" x="464.863636" y="83.7" style="stroke: #000000"/>
     <use xlink:href="#m440455e426" x="475.431818" y="72.36" style="stroke: #000000"/>
    </g>
   </g>
   <g id="PathCollection_4">
    <defs>
     <path id="C1_0_68c06211d3" d="M 0 3.5 
C 0.928211 3.5 1.81853 3.131218 2.474874 2.474874 
C 3.131218 1.81853 3.5 0.928211 3.5 -0 
C 3.5 -0.928211 3.131218 -1.81853 2.474874 -2.474874 
C 1.81853 -3.131218 0.928211 -3.5 0 -3.5 
C -0.928211 -3.5 -1.81853 -3.131218 -2.474874 -2.474874 
C -3.131218 -1.81853 -3.5 -0.928211 -3.5 0 
C -3.5 0.928211 -3.131218 1.81853 -2.474874 2.474874 
C -1.81853 3.131218 -0.928211 3.5 0 3.5 
z
"/>
    </defs>
    <use xlink:href="#C1_0_68c06211d3" x="306.340909" y="253.3086" style="fill: none; stroke: #000000"/>
    <use xlink:href="#C1_0_68c06211d3" x="316.909091" y="251.91" style="fill: none; stroke: #000000"/>
    <use xlink:href="#C1_0_68c06211d3" x="327.477273" y="251.154" style="fill: none; stroke: #000000"/>
    <use xlink:href="#C1_0_68c06211d3" x="338.045455" y="249.075" style="fill: none; stroke: #000000"/>
    <use xlink:href="#C1_0_68c06211d3" x="348.613636" y="245.862" style="fill: none; stroke: #000000"/>
    <use xlink:href="#C1_0_68c06211d3" x="359.181818" y="241.326" style="fill: none; stroke: #000000"/>
    <use xlink:href="#C1_0_68c06211d3" x="369.75" y="234.9" style="fill: none; stroke: #000000"/>
    <use xlink:href="#C1_0_68c06211d3" x="380.318182" y="231.12" style="fill: none; stroke: #000000"/>
   </g>
  </g>
  <g id="axes_3">
   <g id="patch_12">
    <path d="M 67.5 480.6 
L 257.727273 480.6 
L 257.727273 291.6 
L 67.5 291.6 
z
" style="fill: #eaeaf2"/>
   </g>
   <g id="matplotlib.axis_5">
    <g id="xtick_19">
     <g id="line2d_95">
      <path d="M 78.068182 480.6 
L 78.068182 291.6 
" clip-path="url(#p202ac95a7d)" style="fill: none; stroke: #ffffff; stroke-linecap: round"/>
     </g>
     <g id="line2d_96"/>
     <g id="text_16">
      <!-- 1 -->
      <g style="fill: #262626" transform="translate(75.287713 494.757812)scale(0.1 -0.1)">
       <use xlink:href="#ArialMT-31"/>
      </g>
     </g>
    </g>
    <g id="xtick_20">
     <g id="line2d_97">
      <path d="M 99.204545 480.6 
L 99.204545 291.6 
" clip-path="url(#p202ac95a7d)" style="fill: none; stroke: #ffffff; stroke-linecap: round"/>
     </g>
     <g id="line2d_98"/>
     <g id="text_17">
      <!-- 3 -->
      <g style="fill: #262626" transform="translate(96.424077 494.757812)scale(0.1 -0.1)">
       <use xlink:href="#ArialMT-33"/>
      </g>
     </g>
    </g>
    <g id="xtick_21">
     <g id="line2d_99">
      <path d="M 120.340909 480.6 
L 120.340909 291.6 
" clip-path="url(#p202ac95a7d)" style="fill: none; stroke: #ffffff; stroke-linecap: round"/>
     </g>
     <g id="line2d_100"/>
     <g id="text_18">
      <!-- 5 -->
      <g style="fill: #262626" transform="translate(117.56044 494.757812)scale(0.1 -0.1)">
       <use xlink:href="#ArialMT-35"/>
      </g>
     </g>
    </g>
    <g id="xtick_22">
     <g id="line2d_101">
      <path d="M 141.477273 480.6 
L 141.477273 291.6 
" clip-path="url(#p202ac95a7d)" style="fill: none; stroke: #ffffff; stroke-linecap: round"/>
     </g>
     <g id="line2d_102"/>
     <g id="text_19">
      <!-- 7 -->
      <g style="fill: #262626" transform="translate(138.696804 494.757812)scale(0.1 -0.1)">
       <use xlink:href="#ArialMT-37"/>
      </g>
     </g>
    </g>
    <g id="xtick_23">
     <g id="line2d_103">
      <path d="M 162.613636 480.6 
L 162.613636 291.6 
" clip-path="url(#p202ac95a7d)" style="fill: none; stroke: #ffffff; stroke-linecap: round"/>
     </g>
     <g id="line2d_104"/>
     <g id="text_20">
      <!-- 9 -->
      <g style="fill: #262626" transform="translate(159.833168 494.757812)scale(0.1 -0.1)">
       <use xlink:href="#ArialMT-39"/>
      </g>
     </g>
    </g>
    <g id="xtick_24">
     <g id="line2d_105">
      <path d="M 183.75 480.6 
L 183.75 291.6 
" clip-path="url(#p202ac95a7d)" style="fill: none; stroke: #ffffff; stroke-linecap: round"/>
     </g>
     <g id="line2d_106"/>
     <g id="text_21">
      <!-- 11 -->
      <g style="fill: #262626" transform="translate(178.557812 494.757812)scale(0.1 -0.1)">
       <use xlink:href="#ArialMT-31"/>
       <use xlink:href="#ArialMT-31" x="48.240234"/>
      </g>
     </g>
    </g>
    <g id="xtick_25">
     <g id="line2d_107">
      <path d="M 204.886364 480.6 
L 204.886364 291.6 
" clip-path="url(#p202ac95a7d)" style="fill: none; stroke: #ffffff; stroke-linecap: round"/>
     </g>
     <g id="line2d_108"/>
     <g id="text_22">
      <!-- 13 -->
      <g style="fill: #262626" transform="translate(199.325426 494.757812)scale(0.1 -0.1)">
       <use xlink:href="#ArialMT-31"/>
       <use xlink:href="#ArialMT-33" x="55.615234"/>
      </g>
     </g>
    </g>
    <g id="xtick_26">
     <g id="line2d_109">
      <path d="M 226.022727 480.6 
L 226.022727 291.6 
" clip-path="url(#p202ac95a7d)" style="fill: none; stroke: #ffffff; stroke-linecap: round"/>
     </g>
     <g id="line2d_110"/>
     <g id="text_23">
      <!-- 15 -->
      <g style="fill: #262626" transform="translate(220.46179 494.757812)scale(0.1 -0.1)">
       <use xlink:href="#ArialMT-31"/>
       <use xlink:href="#ArialMT-35" x="55.615234"/>
      </g>
     </g>
    </g>
    <g id="xtick_27">
     <g id="line2d_111">
      <path d="M 247.159091 480.6 
L 247.159091 291.6 
" clip-path="url(#p202ac95a7d)" style="fill: none; stroke: #ffffff; stroke-linecap: round"/>
     </g>
     <g id="line2d_112"/>
     <g id="text_24">
      <!-- 17 -->
      <g style="fill: #262626" transform="translate(241.598153 494.757812)scale(0.1 -0.1)">
       <use xlink:href="#ArialMT-31"/>
       <use xlink:href="#ArialMT-37" x="55.615234"/>
      </g>
     </g>
    </g>
    <g id="text_25">
     <!-- Index ($i$) -->
     <g style="fill: #262626" transform="translate(142.428636 509.105313)scale(0.11 -0.11)">
      <use xlink:href="#ArialMT-49" transform="translate(0 0.015625)"/>
      <use xlink:href="#ArialMT-6e" transform="translate(27.783203 0.015625)"/>
      <use xlink:href="#ArialMT-64" transform="translate(83.398438 0.015625)"/>
      <use xlink:href="#ArialMT-65" transform="translate(139.013672 0.015625)"/>
      <use xlink:href="#ArialMT-78" transform="translate(194.628906 0.015625)"/>
      <use xlink:href="#ArialMT-20" transform="translate(244.628906 0.015625)"/>
      <use xlink:href="#ArialMT-28" transform="translate(272.412109 0.015625)"/>
      <use xlink:href="#DejaVuSans-Oblique-69" transform="translate(305.712891 0.015625)"/>
      <use xlink:href="#ArialMT-29" transform="translate(333.496094 0.015625)"/>
     </g>
    </g>
   </g>
   <g id="matplotlib.axis_6">
    <g id="ytick_21">
     <g id="line2d_113">
      <path d="M 67.5 480.6 
L 257.727273 480.6 
" clip-path="url(#p202ac95a7d)" style="fill: none; stroke: #ffffff; stroke-linecap: round"/>
     </g>
     <g id="line2d_114"/>
     <g id="text_26">
      <!-- 0.0 -->
      <g style="fill: #262626" transform="translate(46.6 484.178906)scale(0.1 -0.1)">
       <use xlink:href="#ArialMT-30"/>
       <use xlink:href="#ArialMT-2e" x="55.615234"/>
       <use xlink:href="#ArialMT-30" x="83.398438"/>
      </g>
     </g>
    </g>
    <g id="ytick_22">
     <g id="line2d_115">
      <path d="M 67.5 461.7 
L 257.727273 461.7 
" clip-path="url(#p202ac95a7d)" style="fill: none; stroke: #ffffff; stroke-linecap: round"/>
     </g>
     <g id="line2d_116"/>
     <g id="text_27">
      <!-- 0.1 -->
      <g style="fill: #262626" transform="translate(46.6 465.278906)scale(0.1 -0.1)">
       <use xlink:href="#ArialMT-30"/>
       <use xlink:href="#ArialMT-2e" x="55.615234"/>
       <use xlink:href="#ArialMT-31" x="83.398438"/>
      </g>
     </g>
    </g>
    <g id="ytick_23">
     <g id="line2d_117">
      <path d="M 67.5 442.8 
L 257.727273 442.8 
" clip-path="url(#p202ac95a7d)" style="fill: none; stroke: #ffffff; stroke-linecap: round"/>
     </g>
     <g id="line2d_118"/>
     <g id="text_28">
      <!-- 0.2 -->
      <g style="fill: #262626" transform="translate(46.6 446.378906)scale(0.1 -0.1)">
       <use xlink:href="#ArialMT-30"/>
       <use xlink:href="#ArialMT-2e" x="55.615234"/>
       <use xlink:href="#ArialMT-32" x="83.398438"/>
      </g>
     </g>
    </g>
    <g id="ytick_24">
     <g id="line2d_119">
      <path d="M 67.5 423.9 
L 257.727273 423.9 
" clip-path="url(#p202ac95a7d)" style="fill: none; stroke: #ffffff; stroke-linecap: round"/>
     </g>
     <g id="line2d_120"/>
     <g id="text_29">
      <!-- 0.3 -->
      <g style="fill: #262626" transform="translate(46.6 427.478906)scale(0.1 -0.1)">
       <use xlink:href="#ArialMT-30"/>
       <use xlink:href="#ArialMT-2e" x="55.615234"/>
       <use xlink:href="#ArialMT-33" x="83.398438"/>
      </g>
     </g>
    </g>
    <g id="ytick_25">
     <g id="line2d_121">
      <path d="M 67.5 405 
L 257.727273 405 
" clip-path="url(#p202ac95a7d)" style="fill: none; stroke: #ffffff; stroke-linecap: round"/>
     </g>
     <g id="line2d_122"/>
     <g id="text_30">
      <!-- 0.4 -->
      <g style="fill: #262626" transform="translate(46.6 408.578906)scale(0.1 -0.1)">
       <use xlink:href="#ArialMT-30"/>
       <use xlink:href="#ArialMT-2e" x="55.615234"/>
       <use xlink:href="#ArialMT-34" x="83.398438"/>
      </g>
     </g>
    </g>
    <g id="ytick_26">
     <g id="line2d_123">
      <path d="M 67.5 386.1 
L 257.727273 386.1 
" clip-path="url(#p202ac95a7d)" style="fill: none; stroke: #ffffff; stroke-linecap: round"/>
     </g>
     <g id="line2d_124"/>
     <g id="text_31">
      <!-- 0.5 -->
      <g style="fill: #262626" transform="translate(46.6 389.678906)scale(0.1 -0.1)">
       <use xlink:href="#ArialMT-30"/>
       <use xlink:href="#ArialMT-2e" x="55.615234"/>
       <use xlink:href="#ArialMT-35" x="83.398438"/>
      </g>
     </g>
    </g>
    <g id="ytick_27">
     <g id="line2d_125">
      <path d="M 67.5 367.2 
L 257.727273 367.2 
" clip-path="url(#p202ac95a7d)" style="fill: none; stroke: #ffffff; stroke-linecap: round"/>
     </g>
     <g id="line2d_126"/>
     <g id="text_32">
      <!-- 0.6 -->
      <g style="fill: #262626" transform="translate(46.6 370.778906)scale(0.1 -0.1)">
       <use xlink:href="#ArialMT-30"/>
       <use xlink:href="#ArialMT-2e" x="55.615234"/>
       <use xlink:href="#ArialMT-36" x="83.398438"/>
      </g>
     </g>
    </g>
    <g id="ytick_28">
     <g id="line2d_127">
      <path d="M 67.5 348.3 
L 257.727273 348.3 
" clip-path="url(#p202ac95a7d)" style="fill: none; stroke: #ffffff; stroke-linecap: round"/>
     </g>
     <g id="line2d_128"/>
     <g id="text_33">
      <!-- 0.7 -->
      <g style="fill: #262626" transform="translate(46.6 351.878906)scale(0.1 -0.1)">
       <use xlink:href="#ArialMT-30"/>
       <use xlink:href="#ArialMT-2e" x="55.615234"/>
       <use xlink:href="#ArialMT-37" x="83.398438"/>
      </g>
     </g>
    </g>
    <g id="ytick_29">
     <g id="line2d_129">
      <path d="M 67.5 329.4 
L 257.727273 329.4 
" clip-path="url(#p202ac95a7d)" style="fill: none; stroke: #ffffff; stroke-linecap: round"/>
     </g>
     <g id="line2d_130"/>
     <g id="text_34">
      <!-- 0.8 -->
      <g style="fill: #262626" transform="translate(46.6 332.978906)scale(0.1 -0.1)">
       <use xlink:href="#ArialMT-30"/>
       <use xlink:href="#ArialMT-2e" x="55.615234"/>
       <use xlink:href="#ArialMT-38" x="83.398438"/>
      </g>
     </g>
    </g>
    <g id="ytick_30">
     <g id="line2d_131">
      <path d="M 67.5 310.5 
L 257.727273 310.5 
" clip-path="url(#p202ac95a7d)" style="fill: none; stroke: #ffffff; stroke-linecap: round"/>
     </g>
     <g id="line2d_132"/>
     <g id="text_35">
      <!-- 0.9 -->
      <g style="fill: #262626" transform="translate(46.6 314.078906)scale(0.1 -0.1)">
       <use xlink:href="#ArialMT-30"/>
       <use xlink:href="#ArialMT-2e" x="55.615234"/>
       <use xlink:href="#ArialMT-39" x="83.398438"/>
      </g>
     </g>
    </g>
    <g id="text_36">
     <!-- Uncorrected p-value -->
     <g style="fill: #262626" transform="translate(40.41375 435.620625)rotate(-90)scale(0.11 -0.11)">
      <use xlink:href="#ArialMT-55"/>
      <use xlink:href="#ArialMT-6e" x="72.216797"/>
      <use xlink:href="#ArialMT-63" x="127.832031"/>
      <use xlink:href="#ArialMT-6f" x="177.832031"/>
      <use xlink:href="#ArialMT-72" x="233.447266"/>
      <use xlink:href="#ArialMT-72" x="266.748047"/>
      <use xlink:href="#ArialMT-65" x="300.048828"/>
      <use xlink:href="#ArialMT-63" x="355.664062"/>
      <use xlink:href="#ArialMT-74" x="405.664062"/>
      <use xlink:href="#ArialMT-65" x="433.447266"/>
      <use xlink:href="#ArialMT-64" x="489.0625"/>
      <use xlink:href="#ArialMT-20" x="544.677734"/>
      <use xlink:href="#ArialMT-70" x="572.460938"/>
      <use xlink:href="#ArialMT-2d" x="628.076172"/>
      <use xlink:href="#ArialMT-76" x="661.376953"/>
      <use xlink:href="#ArialMT-61" x="711.376953"/>
      <use xlink:href="#ArialMT-6c" x="766.992188"/>
      <use xlink:href="#ArialMT-75" x="789.208984"/>
      <use xlink:href="#ArialMT-65" x="844.824219"/>
     </g>
    </g>
   </g>
   <g id="line2d_133">
    <path d="M 67.5 480.6 
L 78.068182 479.953541 
L 88.636364 479.307082 
L 99.204545 478.660623 
L 109.772727 478.014164 
L 120.340909 477.367705 
L 130.909091 476.721246 
L 141.477273 476.074788 
L 152.045455 475.428329 
L 162.613636 474.78187 
L 173.181818 474.135411 
L 183.75 473.488952 
L 194.318182 472.842493 
L 204.886364 472.196034 
L 215.454545 471.549575 
L 226.022727 470.903116 
L 236.590909 470.256657 
L 247.159091 469.610198 
L 257.727273 468.963739 
" style="fill: none; stroke: #4c72b0; stroke-width: 2; stroke-linecap: round"/>
   </g>
   <g id="PathCollection_5">
    <g>
     <use xlink:href="#m440455e426" x="78.068182" y="480.1086" style="stroke: #000000"/>
     <use xlink:href="#m440455e426" x="88.636364" y="478.71" style="stroke: #000000"/>
     <use xlink:href="#m440455e426" x="99.204545" y="477.954" style="stroke: #000000"/>
     <use xlink:href="#m440455e426" x="109.772727" y="475.875" style="stroke: #000000"/>
     <use xlink:href="#m440455e426" x="120.340909" y="472.662" style="stroke: #000000"/>
     <use xlink:href="#m440455e426" x="130.909091" y="468.126" style="stroke: #000000"/>
     <use xlink:href="#m440455e426" x="141.477273" y="461.7" style="stroke: #000000"/>
     <use xlink:href="#m440455e426" x="152.045455" y="457.92" style="stroke: #000000"/>
     <use xlink:href="#m440455e426" x="162.613636" y="448.47" style="stroke: #000000"/>
     <use xlink:href="#m440455e426" x="173.181818" y="427.68" style="stroke: #000000"/>
     <use xlink:href="#m440455e426" x="183.75" y="412.56" style="stroke: #000000"/>
     <use xlink:href="#m440455e426" x="194.318182" y="381.564" style="stroke: #000000"/>
     <use xlink:href="#m440455e426" x="204.886364" y="365.31" style="stroke: #000000"/>
     <use xlink:href="#m440455e426" x="215.454545" y="352.08" style="stroke: #000000"/>
     <use xlink:href="#m440455e426" x="226.022727" y="333.18" style="stroke: #000000"/>
     <use xlink:href="#m440455e426" x="236.590909" y="310.5" style="stroke: #000000"/>
     <use xlink:href="#m440455e426" x="247.159091" y="299.16" style="stroke: #000000"/>
    </g>
   </g>
   <g id="patch_13">
    <path d="M 67.5 480.6 
L 67.5 291.6 
" style="fill: none"/>
   </g>
   <g id="patch_14">
    <path d="M 257.727273 480.6 
L 257.727273 291.6 
" style="fill: none"/>
   </g>
   <g id="patch_15">
    <path d="M 67.5 480.6 
L 257.727273 480.6 
" style="fill: none"/>
   </g>
   <g id="patch_16">
    <path d="M 67.5 291.6 
L 257.727273 291.6 
" style="fill: none"/>
   </g>
   <g id="PathCollection_6">
    <path d="M 78.068182 483.6086 
C 78.996393 483.6086 79.886711 483.239818 80.543056 482.583474 
C 81.1994 481.92713 81.568182 481.036811 81.568182 480.1086 
C 81.568182 479.180389 81.1994 478.29007 80.543056 477.633726 
C 79.886711 476.977382 78.996393 476.6086 78.068182 476.6086 
C 77.139971 476.6086 76.249652 476.977382 75.593308 477.633726 
C 74.936964 478.29007 74.568182 479.180389 74.568182 480.1086 
C 74.568182 481.036811 74.936964 481.92713 75.593308 482.583474 
C 76.249652 483.239818 77.139971 483.6086 78.068182 483.6086 
L 78.068182 483.6086 
z
" style="fill: none; stroke: #000000"/>
   </g>
   <g id="text_37">
    <!-- BY -->
    <g style="fill: #262626" transform="translate(154.609261 285.6)scale(0.12 -0.12)">
     <use xlink:href="#ArialMT-42"/>
     <use xlink:href="#ArialMT-59" x="66.699219"/>
    </g>
   </g>
  </g>
  <g id="axes_4">
   <g id="patch_17">
    <path d="M 295.772727 480.6 
L 486 480.6 
L 486 291.6 
L 295.772727 291.6 
z
" style="fill: #eaeaf2"/>
   </g>
   <g id="matplotlib.axis_7">
    <g id="xtick_28">
     <g id="line2d_134">
      <path d="M 306.340909 480.6 
L 306.340909 291.6 
" clip-path="url(#p6a2096978f)" style="fill: none; stroke: #ffffff; stroke-linecap: round"/>
     </g>
     <g id="line2d_135"/>
     <g id="text_38">
      <!-- 1 -->
      <g style="fill: #262626" transform="translate(303.56044 494.757812)scale(0.1 -0.1)">
       <use xlink:href="#ArialMT-31"/>
      </g>
     </g>
    </g>
    <g id="xtick_29">
     <g id="line2d_136">
      <path d="M 327.477273 480.6 
L 327.477273 291.6 
" clip-path="url(#p6a2096978f)" style="fill: none; stroke: #ffffff; stroke-linecap: round"/>
     </g>
     <g id="line2d_137"/>
     <g id="text_39">
      <!-- 3 -->
      <g style="fill: #262626" transform="translate(324.696804 494.757812)scale(0.1 -0.1)">
       <use xlink:href="#ArialMT-33"/>
      </g>
     </g>
    </g>
    <g id="xtick_30">
     <g id="line2d_138">
      <path d="M 348.613636 480.6 
L 348.613636 291.6 
" clip-path="url(#p6a2096978f)" style="fill: none; stroke: #ffffff; stroke-linecap: round"/>
     </g>
     <g id="line2d_139"/>
     <g id="text_40">
      <!-- 5 -->
      <g style="fill: #262626" transform="translate(345.833168 494.757812)scale(0.1 -0.1)">
       <use xlink:href="#ArialMT-35"/>
      </g>
     </g>
    </g>
    <g id="xtick_31">
     <g id="line2d_140">
      <path d="M 369.75 480.6 
L 369.75 291.6 
" clip-path="url(#p6a2096978f)" style="fill: none; stroke: #ffffff; stroke-linecap: round"/>
     </g>
     <g id="line2d_141"/>
     <g id="text_41">
      <!-- 7 -->
      <g style="fill: #262626" transform="translate(366.969531 494.757812)scale(0.1 -0.1)">
       <use xlink:href="#ArialMT-37"/>
      </g>
     </g>
    </g>
    <g id="xtick_32">
     <g id="line2d_142">
      <path d="M 390.886364 480.6 
L 390.886364 291.6 
" clip-path="url(#p6a2096978f)" style="fill: none; stroke: #ffffff; stroke-linecap: round"/>
     </g>
     <g id="line2d_143"/>
     <g id="text_42">
      <!-- 9 -->
      <g style="fill: #262626" transform="translate(388.105895 494.757812)scale(0.1 -0.1)">
       <use xlink:href="#ArialMT-39"/>
      </g>
     </g>
    </g>
    <g id="xtick_33">
     <g id="line2d_144">
      <path d="M 412.022727 480.6 
L 412.022727 291.6 
" clip-path="url(#p6a2096978f)" style="fill: none; stroke: #ffffff; stroke-linecap: round"/>
     </g>
     <g id="line2d_145"/>
     <g id="text_43">
      <!-- 11 -->
      <g style="fill: #262626" transform="translate(406.83054 494.757812)scale(0.1 -0.1)">
       <use xlink:href="#ArialMT-31"/>
       <use xlink:href="#ArialMT-31" x="48.240234"/>
      </g>
     </g>
    </g>
    <g id="xtick_34">
     <g id="line2d_146">
      <path d="M 433.159091 480.6 
L 433.159091 291.6 
" clip-path="url(#p6a2096978f)" style="fill: none; stroke: #ffffff; stroke-linecap: round"/>
     </g>
     <g id="line2d_147"/>
     <g id="text_44">
      <!-- 13 -->
      <g style="fill: #262626" transform="translate(427.598153 494.757812)scale(0.1 -0.1)">
       <use xlink:href="#ArialMT-31"/>
       <use xlink:href="#ArialMT-33" x="55.615234"/>
      </g>
     </g>
    </g>
    <g id="xtick_35">
     <g id="line2d_148">
      <path d="M 454.295455 480.6 
L 454.295455 291.6 
" clip-path="url(#p6a2096978f)" style="fill: none; stroke: #ffffff; stroke-linecap: round"/>
     </g>
     <g id="line2d_149"/>
     <g id="text_45">
      <!-- 15 -->
      <g style="fill: #262626" transform="translate(448.734517 494.757812)scale(0.1 -0.1)">
       <use xlink:href="#ArialMT-31"/>
       <use xlink:href="#ArialMT-35" x="55.615234"/>
      </g>
     </g>
    </g>
    <g id="xtick_36">
     <g id="line2d_150">
      <path d="M 475.431818 480.6 
L 475.431818 291.6 
" clip-path="url(#p6a2096978f)" style="fill: none; stroke: #ffffff; stroke-linecap: round"/>
     </g>
     <g id="line2d_151"/>
     <g id="text_46">
      <!-- 17 -->
      <g style="fill: #262626" transform="translate(469.870881 494.757812)scale(0.1 -0.1)">
       <use xlink:href="#ArialMT-31"/>
       <use xlink:href="#ArialMT-37" x="55.615234"/>
      </g>
     </g>
    </g>
    <g id="text_47">
     <!-- Index ($i$) -->
     <g style="fill: #262626" transform="translate(370.701364 509.105313)scale(0.11 -0.11)">
      <use xlink:href="#ArialMT-49" transform="translate(0 0.015625)"/>
      <use xlink:href="#ArialMT-6e" transform="translate(27.783203 0.015625)"/>
      <use xlink:href="#ArialMT-64" transform="translate(83.398438 0.015625)"/>
      <use xlink:href="#ArialMT-65" transform="translate(139.013672 0.015625)"/>
      <use xlink:href="#ArialMT-78" transform="translate(194.628906 0.015625)"/>
      <use xlink:href="#ArialMT-20" transform="translate(244.628906 0.015625)"/>
      <use xlink:href="#ArialMT-28" transform="translate(272.412109 0.015625)"/>
      <use xlink:href="#DejaVuSans-Oblique-69" transform="translate(305.712891 0.015625)"/>
      <use xlink:href="#ArialMT-29" transform="translate(333.496094 0.015625)"/>
     </g>
    </g>
   </g>
   <g id="matplotlib.axis_8">
    <g id="ytick_31">
     <g id="line2d_152">
      <path d="M 295.772727 480.6 
L 486 480.6 
" clip-path="url(#p6a2096978f)" style="fill: none; stroke: #ffffff; stroke-linecap: round"/>
     </g>
     <g id="line2d_153"/>
    </g>
    <g id="ytick_32">
     <g id="line2d_154">
      <path d="M 295.772727 461.7 
L 486 461.7 
" clip-path="url(#p6a2096978f)" style="fill: none; stroke: #ffffff; stroke-linecap: round"/>
     </g>
     <g id="line2d_155"/>
    </g>
    <g id="ytick_33">
     <g id="line2d_156">
      <path d="M 295.772727 442.8 
L 486 442.8 
" clip-path="url(#p6a2096978f)" style="fill: none; stroke: #ffffff; stroke-linecap: round"/>
     </g>
     <g id="line2d_157"/>
    </g>
    <g id="ytick_34">
     <g id="line2d_158">
      <path d="M 295.772727 423.9 
L 486 423.9 
" clip-path="url(#p6a2096978f)" style="fill: none; stroke: #ffffff; stroke-linecap: round"/>
     </g>
     <g id="line2d_159"/>
    </g>
    <g id="ytick_35">
     <g id="line2d_160">
      <path d="M 295.772727 405 
L 486 405 
" clip-path="url(#p6a2096978f)" style="fill: none; stroke: #ffffff; stroke-linecap: round"/>
     </g>
     <g id="line2d_161"/>
    </g>
    <g id="ytick_36">
     <g id="line2d_162">
      <path d="M 295.772727 386.1 
L 486 386.1 
" clip-path="url(#p6a2096978f)" style="fill: none; stroke: #ffffff; stroke-linecap: round"/>
     </g>
     <g id="line2d_163"/>
    </g>
    <g id="ytick_37">
     <g id="line2d_164">
      <path d="M 295.772727 367.2 
L 486 367.2 
" clip-path="url(#p6a2096978f)" style="fill: none; stroke: #ffffff; stroke-linecap: round"/>
     </g>
     <g id="line2d_165"/>
    </g>
    <g id="ytick_38">
     <g id="line2d_166">
      <path d="M 295.772727 348.3 
L 486 348.3 
" clip-path="url(#p6a2096978f)" style="fill: none; stroke: #ffffff; stroke-linecap: round"/>
     </g>
     <g id="line2d_167"/>
    </g>
    <g id="ytick_39">
     <g id="line2d_168">
      <path d="M 295.772727 329.4 
L 486 329.4 
" clip-path="url(#p6a2096978f)" style="fill: none; stroke: #ffffff; stroke-linecap: round"/>
     </g>
     <g id="line2d_169"/>
    </g>
    <g id="ytick_40">
     <g id="line2d_170">
      <path d="M 295.772727 310.5 
L 486 310.5 
" clip-path="url(#p6a2096978f)" style="fill: none; stroke: #ffffff; stroke-linecap: round"/>
     </g>
     <g id="line2d_171"/>
    </g>
   </g>
   <g id="line2d_172">
    <path d="M 295.772727 480.6 
L 306.340909 478.102318 
L 316.909091 475.604636 
L 327.477273 473.106953 
L 338.045455 470.609271 
L 348.613636 468.111589 
L 359.181818 465.613907 
L 369.75 463.116225 
L 380.318182 460.618542 
L 390.886364 458.12086 
L 401.454545 455.623178 
L 412.022727 453.125496 
L 422.590909 450.627814 
L 433.159091 448.130131 
L 443.727273 445.632449 
L 454.295455 443.134767 
L 464.863636 440.637085 
L 475.431818 438.139403 
L 486 435.641721 
" clip-path="url(#p6a2096978f)" style="fill: none; stroke: #b24d41; stroke-width: 2; stroke-linecap: round"/>
   </g>
   <g id="line2d_173">
    <path d="M 295.772727 480.6 
L 306.340909 478.486577 
L 316.909091 476.373153 
L 327.477273 474.25973 
L 338.045455 472.146306 
L 348.613636 470.032883 
L 359.181818 467.91946 
L 369.75 465.806036 
L 380.318182 463.692613 
L 390.886364 461.579189 
L 401.454545 459.465766 
L 412.022727 457.352343 
L 422.590909 455.238919 
L 433.159091 453.125496 
L 443.727273 451.012072 
L 454.295455 448.898649 
L 464.863636 446.785226 
L 475.431818 444.671802 
L 486 442.558379 
" clip-path="url(#p6a2096978f)" style="fill: none; stroke: #b2634d; stroke-width: 2; stroke-linecap: round"/>
   </g>
   <g id="patch_18">
    <path d="M 295.772727 480.6 
L 295.772727 291.6 
" style="fill: none"/>
   </g>
   <g id="patch_19">
    <path d="M 486 480.6 
L 486 291.6 
" style="fill: none"/>
   </g>
   <g id="patch_20">
    <path d="M 295.772727 480.6 
L 486 480.6 
" style="fill: none"/>
   </g>
   <g id="patch_21">
    <path d="M 295.772727 291.6 
L 486 291.6 
" style="fill: none"/>
   </g>
   <g id="line2d_174">
    <path d="M 295.772727 480.6 
L 306.340909 478.768366 
L 316.909091 476.936733 
L 327.477273 475.105099 
L 338.045455 473.273466 
L 348.613636 471.441832 
L 359.181818 469.610198 
L 369.75 467.778565 
L 380.318182 465.946931 
L 390.886364 464.115298 
L 401.454545 462.283664 
L 412.022727 460.45203 
L 422.590909 458.620397 
L 433.159091 456.788763 
L 443.727273 454.957129 
L 454.295455 453.125496 
L 464.863636 451.293862 
L 475.431818 449.462229 
L 486 447.630595 
" clip-path="url(#p6a2096978f)" style="fill: none; stroke: #b27758; stroke-width: 2; stroke-linecap: round"/>
   </g>
   <g id="text_48">
    <!-- BKY (+BY) -->
    <g style="fill: #262626" transform="translate(361.813551 285.6)scale(0.12 -0.12)">
     <defs>
      <path id="ArialMT-2b" d="M 1603 741 
L 1603 1997 
L 356 1997 
L 356 2522 
L 1603 2522 
L 1603 3769 
L 2134 3769 
L 2134 2522 
L 3381 2522 
L 3381 1997 
L 2134 1997 
L 2134 741 
L 1603 741 
z
" transform="scale(0.015625)"/>
     </defs>
     <use xlink:href="#ArialMT-42"/>
     <use xlink:href="#ArialMT-4b" x="66.699219"/>
     <use xlink:href="#ArialMT-59" x="133.398438"/>
     <use xlink:href="#ArialMT-20" x="198.347656"/>
     <use xlink:href="#ArialMT-28" x="226.130859"/>
     <use xlink:href="#ArialMT-2b" x="259.431641"/>
     <use xlink:href="#ArialMT-42" x="317.830078"/>
     <use xlink:href="#ArialMT-59" x="384.529297"/>
     <use xlink:href="#ArialMT-29" x="451.228516"/>
    </g>
   </g>
   <g id="line2d_175">
    <path d="M 295.772727 480.6 
L 306.340909 478.983853 
L 316.909091 477.367705 
L 327.477273 475.751558 
L 338.045455 474.135411 
L 348.613636 472.519263 
L 359.181818 470.903116 
L 369.75 469.286969 
L 380.318182 467.670822 
L 390.886364 466.054674 
L 401.454545 464.438527 
L 412.022727 462.82238 
L 422.590909 461.206232 
L 433.159091 459.590085 
L 443.727273 457.973938 
L 454.295455 456.35779 
L 464.863636 454.741643 
L 475.431818 453.125496 
L 486 451.509349 
" clip-path="url(#p6a2096978f)" style="fill: none; stroke: #b28a63; stroke-width: 2; stroke-linecap: round"/>
   </g>
   <g id="line2d_176">
    <path d="M 295.772727 480.6 
L 306.340909 479.153973 
L 316.909091 477.707947 
L 327.477273 476.26192 
L 338.045455 474.815894 
L 348.613636 473.369867 
L 359.181818 471.923841 
L 369.75 470.477814 
L 380.318182 469.031788 
L 390.886364 467.585761 
L 401.454545 466.139735 
L 412.022727 464.693708 
L 422.590909 463.247682 
L 433.159091 461.801655 
L 443.727273 460.355629 
L 454.295455 458.909602 
L 464.863636 457.463575 
L 475.431818 456.017549 
L 486 454.571522 
" clip-path="url(#p6a2096978f)" style="fill: none; stroke: #a39569; stroke-width: 2; stroke-linecap: round"/>
   </g>
   <g id="line2d_177">
    <path d="M 295.772727 480.6 
L 306.340909 479.29169 
L 316.909091 477.983381 
L 327.477273 476.675071 
L 338.045455 475.366761 
L 348.613636 474.058451 
L 359.181818 472.750142 
L 369.75 471.441832 
L 380.318182 470.133522 
L 390.886364 468.825213 
L 401.454545 467.516903 
L 412.022727 466.208593 
L 422.590909 464.900283 
L 433.159091 463.591974 
L 443.727273 462.283664 
L 454.295455 460.975354 
L 464.863636 459.667044 
L 475.431818 458.358735 
L 486 457.050425 
" clip-path="url(#p6a2096978f)" style="fill: none; stroke: #93a072; stroke-width: 2; stroke-linecap: round"/>
   </g>
   <g id="line2d_178">
    <path d="M 295.772727 480.6 
L 306.340909 479.405456 
L 316.909091 478.210913 
L 327.477273 477.016369 
L 338.045455 475.821825 
L 348.613636 474.627282 
L 359.181818 473.432738 
L 369.75 472.238194 
L 380.318182 471.043651 
L 390.886364 469.849107 
L 401.454545 468.654563 
L 412.022727 467.46002 
L 422.590909 466.265476 
L 433.159091 465.070932 
L 443.727273 463.876389 
L 454.295455 462.681845 
L 464.863636 461.487301 
L 475.431818 460.292758 
L 486 459.098214 
" clip-path="url(#p6a2096978f)" style="fill: none; stroke: #88ac7f; stroke-width: 2; stroke-linecap: round"/>
   </g>
   <g id="line2d_179">
    <path d="M 295.772727 480.6 
L 306.340909 479.50102 
L 316.909091 478.40204 
L 327.477273 477.30306 
L 338.045455 476.204079 
L 348.613636 475.105099 
L 359.181818 474.006119 
L 369.75 472.907139 
L 380.318182 471.808159 
L 390.886364 470.709179 
L 401.454545 469.610198 
L 412.022727 468.511218 
L 422.590909 467.412238 
L 433.159091 466.313258 
L 443.727273 465.214278 
L 454.295455 464.115298 
L 464.863636 463.016317 
L 475.431818 461.917337 
L 486 460.818357 
" clip-path="url(#p6a2096978f)" style="fill: none; stroke: #7bb289; stroke-width: 2; stroke-linecap: round"/>
   </g>
   <g id="line2d_180">
    <path d="M 295.772727 480.6 
L 306.340909 479.582426 
L 316.909091 478.564852 
L 327.477273 477.547277 
L 338.045455 476.529703 
L 348.613636 475.512129 
L 359.181818 474.494555 
L 369.75 473.47698 
L 380.318182 472.459406 
L 390.886364 471.441832 
L 401.454545 470.424258 
L 412.022727 469.406684 
L 422.590909 468.389109 
L 433.159091 467.371535 
L 443.727273 466.353961 
L 454.295455 465.336387 
L 464.863636 464.318812 
L 475.431818 463.301238 
L 486 462.283664 
" clip-path="url(#p6a2096978f)" style="fill: none; stroke: #6cb292; stroke-width: 2; stroke-linecap: round"/>
   </g>
   <g id="line2d_181">
    <path d="M 295.772727 480.6 
L 306.340909 479.652603 
L 316.909091 478.705207 
L 327.477273 477.75781 
L 338.045455 476.810413 
L 348.613636 475.863017 
L 359.181818 474.91562 
L 369.75 473.968223 
L 380.318182 473.020826 
L 390.886364 472.07343 
L 401.454545 471.126033 
L 412.022727 470.178636 
L 422.590909 469.23124 
L 433.159091 468.283843 
L 443.727273 467.336446 
L 454.295455 466.38905 
L 464.863636 465.441653 
L 475.431818 464.494256 
L 486 463.54686 
" clip-path="url(#p6a2096978f)" style="fill: none; stroke: #5cac97; stroke-width: 2; stroke-linecap: round"/>
   </g>
   <g id="line2d_182">
    <path d="M 295.772727 480.6 
L 306.340909 479.713726 
L 316.909091 478.827451 
L 327.477273 477.941177 
L 338.045455 477.054903 
L 348.613636 476.168628 
L 359.181818 475.282354 
L 369.75 474.39608 
L 380.318182 473.509805 
L 390.886364 472.623531 
L 401.454545 471.737257 
L 412.022727 470.850982 
L 422.590909 469.964708 
L 433.159091 469.078434 
L 443.727273 468.192159 
L 454.295455 467.305885 
L 464.863636 466.419611 
L 475.431818 465.533336 
L 486 464.647062 
" clip-path="url(#p6a2096978f)" style="fill: none; stroke: #4aa09a; stroke-width: 2; stroke-linecap: round"/>
   </g>
   <g id="line2d_183">
    <path d="M 295.772727 480.6 
L 306.340909 479.767439 
L 316.909091 478.934879 
L 327.477273 478.102318 
L 338.045455 477.269757 
L 348.613636 476.437196 
L 359.181818 475.604636 
L 369.75 474.772075 
L 380.318182 473.939514 
L 390.886364 473.106953 
L 401.454545 472.274393 
L 412.022727 471.441832 
L 422.590909 470.609271 
L 433.159091 469.77671 
L 443.727273 468.94415 
L 454.295455 468.111589 
L 464.863636 467.279028 
L 475.431818 466.446468 
L 486 465.613907 
" clip-path="url(#p6a2096978f)" style="fill: none; stroke: #3b94a0; stroke-width: 2; stroke-linecap: round"/>
   </g>
   <g id="line2d_184">
    <path d="M 295.772727 480.6 
L 306.340909 479.815014 
L 316.909091 479.030028 
L 327.477273 478.245043 
L 338.045455 477.460057 
L 348.613636 476.675071 
L 359.181818 475.890085 
L 369.75 475.105099 
L 380.318182 474.320113 
L 390.886364 473.535128 
L 401.454545 472.750142 
L 412.022727 471.965156 
L 422.590909 471.18017 
L 433.159091 470.395184 
L 443.727273 469.610198 
L 454.295455 468.825213 
L 464.863636 468.040227 
L 475.431818 467.255241 
L 486 466.470255 
" clip-path="url(#p6a2096978f)" style="fill: none; stroke: #3686a6; stroke-width: 2; stroke-linecap: round"/>
   </g>
   <g id="line2d_185">
    <path d="M 295.772727 480.6 
L 306.340909 479.857446 
L 316.909091 479.114892 
L 327.477273 478.372338 
L 338.045455 477.629783 
L 348.613636 476.887229 
L 359.181818 476.144675 
L 369.75 475.402121 
L 380.318182 474.659567 
L 390.886364 473.917013 
L 401.454545 473.174458 
L 412.022727 472.431904 
L 422.590909 471.68935 
L 433.159091 470.946796 
L 443.727273 470.204242 
L 454.295455 469.461688 
L 464.863636 468.719133 
L 475.431818 467.976579 
L 486 467.234025 
" clip-path="url(#p6a2096978f)" style="fill: none; stroke: #4675ac; stroke-width: 2; stroke-linecap: round"/>
   </g>
   <g id="line2d_186">
    <path d="M 295.772727 480.6 
L 306.340909 479.895526 
L 316.909091 479.191051 
L 327.477273 478.486577 
L 338.045455 477.782102 
L 348.613636 477.077628 
L 359.181818 476.373153 
L 369.75 475.668679 
L 380.318182 474.964204 
L 390.886364 474.25973 
L 401.454545 473.555255 
L 412.022727 472.850781 
L 422.590909 472.146306 
L 433.159091 471.441832 
L 443.727273 470.737357 
L 454.295455 470.032883 
L 464.863636 469.328409 
L 475.431818 468.623934 
L 486 467.91946 
" clip-path="url(#p6a2096978f)" style="fill: none; stroke: #5662af; stroke-width: 2; stroke-linecap: round"/>
   </g>
   <g id="line2d_187">
    <path d="M 295.772727 480.6 
L 306.340909 479.92989 
L 316.909091 479.25978 
L 327.477273 478.58967 
L 338.045455 477.919561 
L 348.613636 477.249451 
L 359.181818 476.579341 
L 369.75 475.909231 
L 380.318182 475.239121 
L 390.886364 474.569011 
L 401.454545 473.898901 
L 412.022727 473.228792 
L 422.590909 472.558682 
L 433.159091 471.888572 
L 443.727273 471.218462 
L 454.295455 470.548352 
L 464.863636 469.878242 
L 475.431818 469.208132 
L 486 468.538023 
" clip-path="url(#p6a2096978f)" style="fill: none; stroke: #654cb2; stroke-width: 2; stroke-linecap: round"/>
   </g>
   <g id="line2d_188">
    <path d="M 295.772727 480.6 
L 306.340909 479.961058 
L 316.909091 479.322116 
L 327.477273 478.683174 
L 338.045455 478.044232 
L 348.613636 477.40529 
L 359.181818 476.766348 
L 369.75 476.127406 
L 380.318182 475.488464 
L 390.886364 474.849522 
L 401.454545 474.21058 
L 412.022727 473.571638 
L 422.590909 472.932697 
L 433.159091 472.293755 
L 443.727273 471.654813 
L 454.295455 471.015871 
L 464.863636 470.376929 
L 475.431818 469.737987 
L 486 469.099045 
" clip-path="url(#p6a2096978f)" style="fill: none; stroke: #7436b2; stroke-width: 2; stroke-linecap: round"/>
   </g>
   <g id="PathCollection_7">
    <g>
     <use xlink:href="#m440455e426" x="306.340909" y="480.1086" style="stroke: #000000"/>
     <use xlink:href="#m440455e426" x="316.909091" y="478.71" style="stroke: #000000"/>
     <use xlink:href="#m440455e426" x="327.477273" y="477.954" style="stroke: #000000"/>
     <use xlink:href="#m440455e426" x="338.045455" y="475.875" style="stroke: #000000"/>
     <use xlink:href="#m440455e426" x="348.613636" y="472.662" style="stroke: #000000"/>
     <use xlink:href="#m440455e426" x="359.181818" y="468.126" style="stroke: #000000"/>
     <use xlink:href="#m440455e426" x="369.75" y="461.7" style="stroke: #000000"/>
     <use xlink:href="#m440455e426" x="380.318182" y="457.92" style="stroke: #000000"/>
     <use xlink:href="#m440455e426" x="390.886364" y="448.47" style="stroke: #000000"/>
     <use xlink:href="#m440455e426" x="401.454545" y="427.68" style="stroke: #000000"/>
     <use xlink:href="#m440455e426" x="412.022727" y="412.56" style="stroke: #000000"/>
     <use xlink:href="#m440455e426" x="422.590909" y="381.564" style="stroke: #000000"/>
     <use xlink:href="#m440455e426" x="433.159091" y="365.31" style="stroke: #000000"/>
     <use xlink:href="#m440455e426" x="443.727273" y="352.08" style="stroke: #000000"/>
     <use xlink:href="#m440455e426" x="454.295455" y="333.18" style="stroke: #000000"/>
     <use xlink:href="#m440455e426" x="464.863636" y="310.5" style="stroke: #000000"/>
     <use xlink:href="#m440455e426" x="475.431818" y="299.16" style="stroke: #000000"/>
    </g>
   </g>
   <g id="PathCollection_8">
    <path d="M 306.340909 483.6086 
C 307.26912 483.6086 308.159439 483.239818 308.815783 482.583474 
C 309.472127 481.92713 309.840909 481.036811 309.840909 480.1086 
C 309.840909 479.180389 309.472127 478.29007 308.815783 477.633726 
C 308.159439 476.977382 307.26912 476.6086 306.340909 476.6086 
C 305.412698 476.6086 304.52238 476.977382 303.866035 477.633726 
C 303.209691 478.29007 302.840909 479.180389 302.840909 480.1086 
C 302.840909 481.036811 303.209691 481.92713 303.866035 482.583474 
C 304.52238 483.239818 305.412698 483.6086 306.340909 483.6086 
L 306.340909 483.6086 
z
" style="fill: none; stroke: #000000"/>
   </g>
  </g>
 </g>
 <defs>
  <clipPath id="p2506baab00">
   <rect x="67.5" y="64.8" width="190.227273" height="189"/>
  </clipPath>
  <clipPath id="p06b4b42c93">
   <rect x="295.772727" y="64.8" width="190.227273" height="189"/>
  </clipPath>
  <clipPath id="p202ac95a7d">
   <rect x="67.5" y="291.6" width="190.227273" height="189"/>
  </clipPath>
  <clipPath id="p6a2096978f">
   <rect x="295.772727" y="291.6" width="190.227273" height="189"/>
  </clipPath>
 </defs>
</svg>
