<?xml version="1.0" encoding="utf-8" standalone="no"?>
<!DOCTYPE svg PUBLIC "-//W3C//DTD SVG 1.1//EN"
  "http://www.w3.org/Graphics/SVG/1.1/DTD/svg11.dtd">
<svg xmlns:xlink="http://www.w3.org/1999/xlink" width="540pt" height="288pt" viewBox="0 0 540 288" xmlns="http://www.w3.org/2000/svg" version="1.1">
 <metadata>
  <rdf:RDF xmlns:dc="http://purl.org/dc/elements/1.1/" xmlns:cc="http://creativecommons.org/ns#" xmlns:rdf="http://www.w3.org/1999/02/22-rdf-syntax-ns#">
   <cc:Work>
    <dc:type rdf:resource="http://purl.org/dc/dcmitype/StillImage"/>
    <dc:date>2024-04-10T13:17:20.951483</dc:date>
    <dc:format>image/svg+xml</dc:format>
    <dc:creator>
     <cc:Agent>
      <dc:title>Matplotlib v3.5.2, https://matplotlib.org/</dc:title>
     </cc:Agent>
    </dc:creator>
   </cc:Work>
  </rdf:RDF>
 </metadata>
 <defs>
  <style type="text/css">*{stroke-linejoin: round; stroke-linecap: butt}</style>
 </defs>
 <g id="figure_1">
  <g id="patch_1">
   <path d="M 0 288 
L 540 288 
L 540 0 
L 0 0 
z
" style="fill: #ffffff"/>
  </g>
  <g id="axes_1">
   <g id="patch_2">
    <path d="M 67.5 256.32 
L 257.727273 256.32 
L 257.727273 34.56 
L 67.5 34.56 
z
" style="fill: #eaeaf2"/>
   </g>
   <g id="matplotlib.axis_1">
    <g id="xtick_1">
     <g id="line2d_1">
      <path d="M 78.068182 256.32 
L 78.068182 34.56 
" clip-path="url(#p755b380e30)" style="fill: none; stroke: #ffffff; stroke-linecap: round"/>
     </g>
     <g id="line2d_2"/>
     <g id="text_1">
      <!-- 1 -->
      <g style="fill: #262626" transform="translate(75.287713 270.477813)scale(0.1 -0.1)">
       <defs>
        <path id="ArialMT-31" d="M 2384 0 
L 1822 0 
L 1822 3584 
Q 1619 3391 1289 3197 
Q 959 3003 697 2906 
L 697 3450 
Q 1169 3672 1522 3987 
Q 1875 4303 2022 4600 
L 2384 4600 
L 2384 0 
z
" transform="scale(0.015625)"/>
       </defs>
       <use xlink:href="#ArialMT-31"/>
      </g>
     </g>
    </g>
    <g id="xtick_2">
     <g id="line2d_3">
      <path d="M 99.204545 256.32 
L 99.204545 34.56 
" clip-path="url(#p755b380e30)" style="fill: none; stroke: #ffffff; stroke-linecap: round"/>
     </g>
     <g id="line2d_4"/>
     <g id="text_2">
      <!-- 3 -->
      <g style="fill: #262626" transform="translate(96.424077 270.477813)scale(0.1 -0.1)">
       <defs>
        <path id="ArialMT-33" d="M 269 1209 
L 831 1284 
Q 928 806 1161 595 
Q 1394 384 1728 384 
Q 2125 384 2398 659 
Q 2672 934 2672 1341 
Q 2672 1728 2419 1979 
Q 2166 2231 1775 2231 
Q 1616 2231 1378 2169 
L 1441 2663 
Q 1497 2656 1531 2656 
Q 1891 2656 2178 2843 
Q 2466 3031 2466 3422 
Q 2466 3731 2256 3934 
Q 2047 4138 1716 4138 
Q 1388 4138 1169 3931 
Q 950 3725 888 3313 
L 325 3413 
Q 428 3978 793 4289 
Q 1159 4600 1703 4600 
Q 2078 4600 2393 4439 
Q 2709 4278 2876 4000 
Q 3044 3722 3044 3409 
Q 3044 3113 2884 2869 
Q 2725 2625 2413 2481 
Q 2819 2388 3044 2092 
Q 3269 1797 3269 1353 
Q 3269 753 2831 336 
Q 2394 -81 1725 -81 
Q 1122 -81 723 278 
Q 325 638 269 1209 
z
" transform="scale(0.015625)"/>
       </defs>
       <use xlink:href="#ArialMT-33"/>
      </g>
     </g>
    </g>
    <g id="xtick_3">
     <g id="line2d_5">
      <path d="M 120.340909 256.32 
L 120.340909 34.56 
" clip-path="url(#p755b380e30)" style="fill: none; stroke: #ffffff; stroke-linecap: round"/>
     </g>
     <g id="line2d_6"/>
     <g id="text_3">
      <!-- 5 -->
      <g style="fill: #262626" transform="translate(117.56044 270.477813)scale(0.1 -0.1)">
       <defs>
        <path id="ArialMT-35" d="M 266 1200 
L 856 1250 
Q 922 819 1161 601 
Q 1400 384 1738 384 
Q 2144 384 2425 690 
Q 2706 997 2706 1503 
Q 2706 1984 2436 2262 
Q 2166 2541 1728 2541 
Q 1456 2541 1237 2417 
Q 1019 2294 894 2097 
L 366 2166 
L 809 4519 
L 3088 4519 
L 3088 3981 
L 1259 3981 
L 1013 2750 
Q 1425 3038 1878 3038 
Q 2478 3038 2890 2622 
Q 3303 2206 3303 1553 
Q 3303 931 2941 478 
Q 2500 -78 1738 -78 
Q 1113 -78 717 272 
Q 322 622 266 1200 
z
" transform="scale(0.015625)"/>
       </defs>
       <use xlink:href="#ArialMT-35"/>
      </g>
     </g>
    </g>
    <g id="xtick_4">
     <g id="line2d_7">
      <path d="M 141.477273 256.32 
L 141.477273 34.56 
" clip-path="url(#p755b380e30)" style="fill: none; stroke: #ffffff; stroke-linecap: round"/>
     </g>
     <g id="line2d_8"/>
     <g id="text_4">
      <!-- 7 -->
      <g style="fill: #262626" transform="translate(138.696804 270.477813)scale(0.1 -0.1)">
       <defs>
        <path id="ArialMT-37" d="M 303 3981 
L 303 4522 
L 3269 4522 
L 3269 4084 
Q 2831 3619 2401 2847 
Q 1972 2075 1738 1259 
Q 1569 684 1522 0 
L 944 0 
Q 953 541 1156 1306 
Q 1359 2072 1739 2783 
Q 2119 3494 2547 3981 
L 303 3981 
z
" transform="scale(0.015625)"/>
       </defs>
       <use xlink:href="#ArialMT-37"/>
      </g>
     </g>
    </g>
    <g id="xtick_5">
     <g id="line2d_9">
      <path d="M 162.613636 256.32 
L 162.613636 34.56 
" clip-path="url(#p755b380e30)" style="fill: none; stroke: #ffffff; stroke-linecap: round"/>
     </g>
     <g id="line2d_10"/>
     <g id="text_5">
      <!-- 9 -->
      <g style="fill: #262626" transform="translate(159.833168 270.477813)scale(0.1 -0.1)">
       <defs>
        <path id="ArialMT-39" d="M 350 1059 
L 891 1109 
Q 959 728 1153 556 
Q 1347 384 1650 384 
Q 1909 384 2104 503 
Q 2300 622 2425 820 
Q 2550 1019 2634 1356 
Q 2719 1694 2719 2044 
Q 2719 2081 2716 2156 
Q 2547 1888 2255 1720 
Q 1963 1553 1622 1553 
Q 1053 1553 659 1965 
Q 266 2378 266 3053 
Q 266 3750 677 4175 
Q 1088 4600 1706 4600 
Q 2153 4600 2523 4359 
Q 2894 4119 3086 3673 
Q 3278 3228 3278 2384 
Q 3278 1506 3087 986 
Q 2897 466 2520 194 
Q 2144 -78 1638 -78 
Q 1100 -78 759 220 
Q 419 519 350 1059 
z
M 2653 3081 
Q 2653 3566 2395 3850 
Q 2138 4134 1775 4134 
Q 1400 4134 1122 3828 
Q 844 3522 844 3034 
Q 844 2597 1108 2323 
Q 1372 2050 1759 2050 
Q 2150 2050 2401 2323 
Q 2653 2597 2653 3081 
z
" transform="scale(0.015625)"/>
       </defs>
       <use xlink:href="#ArialMT-39"/>
      </g>
     </g>
    </g>
    <g id="xtick_6">
     <g id="line2d_11">
      <path d="M 183.75 256.32 
L 183.75 34.56 
" clip-path="url(#p755b380e30)" style="fill: none; stroke: #ffffff; stroke-linecap: round"/>
     </g>
     <g id="line2d_12"/>
     <g id="text_6">
      <!-- 11 -->
      <g style="fill: #262626" transform="translate(178.557812 270.477813)scale(0.1 -0.1)">
       <use xlink:href="#ArialMT-31"/>
       <use xlink:href="#ArialMT-31" x="48.240234"/>
      </g>
     </g>
    </g>
    <g id="xtick_7">
     <g id="line2d_13">
      <path d="M 204.886364 256.32 
L 204.886364 34.56 
" clip-path="url(#p755b380e30)" style="fill: none; stroke: #ffffff; stroke-linecap: round"/>
     </g>
     <g id="line2d_14"/>
     <g id="text_7">
      <!-- 13 -->
      <g style="fill: #262626" transform="translate(199.325426 270.477813)scale(0.1 -0.1)">
       <use xlink:href="#ArialMT-31"/>
       <use xlink:href="#ArialMT-33" x="55.615234"/>
      </g>
     </g>
    </g>
    <g id="xtick_8">
     <g id="line2d_15">
      <path d="M 226.022727 256.32 
L 226.022727 34.56 
" clip-path="url(#p755b380e30)" style="fill: none; stroke: #ffffff; stroke-linecap: round"/>
     </g>
     <g id="line2d_16"/>
     <g id="text_8">
      <!-- 15 -->
      <g style="fill: #262626" transform="translate(220.46179 270.477813)scale(0.1 -0.1)">
       <use xlink:href="#ArialMT-31"/>
       <use xlink:href="#ArialMT-35" x="55.615234"/>
      </g>
     </g>
    </g>
    <g id="xtick_9">
     <g id="line2d_17">
      <path d="M 247.159091 256.32 
L 247.159091 34.56 
" clip-path="url(#p755b380e30)" style="fill: none; stroke: #ffffff; stroke-linecap: round"/>
     </g>
     <g id="line2d_18"/>
     <g id="text_9">
      <!-- 17 -->
      <g style="fill: #262626" transform="translate(241.598153 270.477813)scale(0.1 -0.1)">
       <use xlink:href="#ArialMT-31"/>
       <use xlink:href="#ArialMT-37" x="55.615234"/>
      </g>
     </g>
    </g>
    <g id="text_10">
     <!-- Index ($i$) -->
     <g style="fill: #262626" transform="translate(142.428636 284.825312)scale(0.11 -0.11)">
      <defs>
       <path id="ArialMT-49" d="M 597 0 
L 597 4581 
L 1203 4581 
L 1203 0 
L 597 0 
z
" transform="scale(0.015625)"/>
       <path id="ArialMT-6e" d="M 422 0 
L 422 3319 
L 928 3319 
L 928 2847 
Q 1294 3394 1984 3394 
Q 2284 3394 2536 3286 
Q 2788 3178 2913 3003 
Q 3038 2828 3088 2588 
Q 3119 2431 3119 2041 
L 3119 0 
L 2556 0 
L 2556 2019 
Q 2556 2363 2490 2533 
Q 2425 2703 2258 2804 
Q 2091 2906 1866 2906 
Q 1506 2906 1245 2678 
Q 984 2450 984 1813 
L 984 0 
L 422 0 
z
" transform="scale(0.015625)"/>
       <path id="ArialMT-64" d="M 2575 0 
L 2575 419 
Q 2259 -75 1647 -75 
Q 1250 -75 917 144 
Q 584 363 401 755 
Q 219 1147 219 1656 
Q 219 2153 384 2558 
Q 550 2963 881 3178 
Q 1213 3394 1622 3394 
Q 1922 3394 2156 3267 
Q 2391 3141 2538 2938 
L 2538 4581 
L 3097 4581 
L 3097 0 
L 2575 0 
z
M 797 1656 
Q 797 1019 1065 703 
Q 1334 388 1700 388 
Q 2069 388 2326 689 
Q 2584 991 2584 1609 
Q 2584 2291 2321 2609 
Q 2059 2928 1675 2928 
Q 1300 2928 1048 2622 
Q 797 2316 797 1656 
z
" transform="scale(0.015625)"/>
       <path id="ArialMT-65" d="M 2694 1069 
L 3275 997 
Q 3138 488 2766 206 
Q 2394 -75 1816 -75 
Q 1088 -75 661 373 
Q 234 822 234 1631 
Q 234 2469 665 2931 
Q 1097 3394 1784 3394 
Q 2450 3394 2872 2941 
Q 3294 2488 3294 1666 
Q 3294 1616 3291 1516 
L 816 1516 
Q 847 969 1125 678 
Q 1403 388 1819 388 
Q 2128 388 2347 550 
Q 2566 713 2694 1069 
z
M 847 1978 
L 2700 1978 
Q 2663 2397 2488 2606 
Q 2219 2931 1791 2931 
Q 1403 2931 1139 2672 
Q 875 2413 847 1978 
z
" transform="scale(0.015625)"/>
       <path id="ArialMT-78" d="M 47 0 
L 1259 1725 
L 138 3319 
L 841 3319 
L 1350 2541 
Q 1494 2319 1581 2169 
Q 1719 2375 1834 2534 
L 2394 3319 
L 3066 3319 
L 1919 1756 
L 3153 0 
L 2463 0 
L 1781 1031 
L 1600 1309 
L 728 0 
L 47 0 
z
" transform="scale(0.015625)"/>
       <path id="ArialMT-20" transform="scale(0.015625)"/>
       <path id="ArialMT-28" d="M 1497 -1347 
Q 1031 -759 709 28 
Q 388 816 388 1659 
Q 388 2403 628 3084 
Q 909 3875 1497 4659 
L 1900 4659 
Q 1522 4009 1400 3731 
Q 1209 3300 1100 2831 
Q 966 2247 966 1656 
Q 966 153 1900 -1347 
L 1497 -1347 
z
" transform="scale(0.015625)"/>
       <path id="DejaVuSans-Oblique-69" d="M 1172 4863 
L 1747 4863 
L 1606 4134 
L 1031 4134 
L 1172 4863 
z
M 909 3500 
L 1484 3500 
L 800 0 
L 225 0 
L 909 3500 
z
" transform="scale(0.015625)"/>
       <path id="ArialMT-29" d="M 791 -1347 
L 388 -1347 
Q 1322 153 1322 1656 
Q 1322 2244 1188 2822 
Q 1081 3291 891 3722 
Q 769 4003 388 4659 
L 791 4659 
Q 1378 3875 1659 3084 
Q 1900 2403 1900 1659 
Q 1900 816 1576 28 
Q 1253 -759 791 -1347 
z
" transform="scale(0.015625)"/>
      </defs>
      <use xlink:href="#ArialMT-49" transform="translate(0 0.015625)"/>
      <use xlink:href="#ArialMT-6e" transform="translate(27.783203 0.015625)"/>
      <use xlink:href="#ArialMT-64" transform="translate(83.398438 0.015625)"/>
      <use xlink:href="#ArialMT-65" transform="translate(139.013672 0.015625)"/>
      <use xlink:href="#ArialMT-78" transform="translate(194.628906 0.015625)"/>
      <use xlink:href="#ArialMT-20" transform="translate(244.628906 0.015625)"/>
      <use xlink:href="#ArialMT-28" transform="translate(272.412109 0.015625)"/>
      <use xlink:href="#DejaVuSans-Oblique-69" transform="translate(305.712891 0.015625)"/>
      <use xlink:href="#ArialMT-29" transform="translate(333.496094 0.015625)"/>
     </g>
    </g>
   </g>
   <g id="matplotlib.axis_2">
    <g id="ytick_1">
     <g id="line2d_19">
      <path d="M 67.5 256.32 
L 257.727273 256.32 
" clip-path="url(#p755b380e30)" style="fill: none; stroke: #ffffff; stroke-linecap: round"/>
     </g>
     <g id="line2d_20"/>
     <g id="text_11">
      <!-- 0.0 -->
      <g style="fill: #262626" transform="translate(46.6 259.898906)scale(0.1 -0.1)">
       <defs>
        <path id="ArialMT-30" d="M 266 2259 
Q 266 3072 433 3567 
Q 600 4063 929 4331 
Q 1259 4600 1759 4600 
Q 2128 4600 2406 4451 
Q 2684 4303 2865 4023 
Q 3047 3744 3150 3342 
Q 3253 2941 3253 2259 
Q 3253 1453 3087 958 
Q 2922 463 2592 192 
Q 2263 -78 1759 -78 
Q 1097 -78 719 397 
Q 266 969 266 2259 
z
M 844 2259 
Q 844 1131 1108 757 
Q 1372 384 1759 384 
Q 2147 384 2411 759 
Q 2675 1134 2675 2259 
Q 2675 3391 2411 3762 
Q 2147 4134 1753 4134 
Q 1366 4134 1134 3806 
Q 844 3388 844 2259 
z
" transform="scale(0.015625)"/>
        <path id="ArialMT-2e" d="M 581 0 
L 581 641 
L 1222 641 
L 1222 0 
L 581 0 
z
" transform="scale(0.015625)"/>
       </defs>
       <use xlink:href="#ArialMT-30"/>
       <use xlink:href="#ArialMT-2e" x="55.615234"/>
       <use xlink:href="#ArialMT-30" x="83.398438"/>
      </g>
     </g>
    </g>
    <g id="ytick_2">
     <g id="line2d_21">
      <path d="M 67.5 234.144 
L 257.727273 234.144 
" clip-path="url(#p755b380e30)" style="fill: none; stroke: #ffffff; stroke-linecap: round"/>
     </g>
     <g id="line2d_22"/>
     <g id="text_12">
      <!-- 0.1 -->
      <g style="fill: #262626" transform="translate(46.6 237.722906)scale(0.1 -0.1)">
       <use xlink:href="#ArialMT-30"/>
       <use xlink:href="#ArialMT-2e" x="55.615234"/>
       <use xlink:href="#ArialMT-31" x="83.398438"/>
      </g>
     </g>
    </g>
    <g id="ytick_3">
     <g id="line2d_23">
      <path d="M 67.5 211.968 
L 257.727273 211.968 
" clip-path="url(#p755b380e30)" style="fill: none; stroke: #ffffff; stroke-linecap: round"/>
     </g>
     <g id="line2d_24"/>
     <g id="text_13">
      <!-- 0.2 -->
      <g style="fill: #262626" transform="translate(46.6 215.546906)scale(0.1 -0.1)">
       <defs>
        <path id="ArialMT-32" d="M 3222 541 
L 3222 0 
L 194 0 
Q 188 203 259 391 
Q 375 700 629 1000 
Q 884 1300 1366 1694 
Q 2113 2306 2375 2664 
Q 2638 3022 2638 3341 
Q 2638 3675 2398 3904 
Q 2159 4134 1775 4134 
Q 1369 4134 1125 3890 
Q 881 3647 878 3216 
L 300 3275 
Q 359 3922 746 4261 
Q 1134 4600 1788 4600 
Q 2447 4600 2831 4234 
Q 3216 3869 3216 3328 
Q 3216 3053 3103 2787 
Q 2991 2522 2730 2228 
Q 2469 1934 1863 1422 
Q 1356 997 1212 845 
Q 1069 694 975 541 
L 3222 541 
z
" transform="scale(0.015625)"/>
       </defs>
       <use xlink:href="#ArialMT-30"/>
       <use xlink:href="#ArialMT-2e" x="55.615234"/>
       <use xlink:href="#ArialMT-32" x="83.398438"/>
      </g>
     </g>
    </g>
    <g id="ytick_4">
     <g id="line2d_25">
      <path d="M 67.5 189.792 
L 257.727273 189.792 
" clip-path="url(#p755b380e30)" style="fill: none; stroke: #ffffff; stroke-linecap: round"/>
     </g>
     <g id="line2d_26"/>
     <g id="text_14">
      <!-- 0.3 -->
      <g style="fill: #262626" transform="translate(46.6 193.370906)scale(0.1 -0.1)">
       <use xlink:href="#ArialMT-30"/>
       <use xlink:href="#ArialMT-2e" x="55.615234"/>
       <use xlink:href="#ArialMT-33" x="83.398438"/>
      </g>
     </g>
    </g>
    <g id="ytick_5">
     <g id="line2d_27">
      <path d="M 67.5 167.616 
L 257.727273 167.616 
" clip-path="url(#p755b380e30)" style="fill: none; stroke: #ffffff; stroke-linecap: round"/>
     </g>
     <g id="line2d_28"/>
     <g id="text_15">
      <!-- 0.4 -->
      <g style="fill: #262626" transform="translate(46.6 171.194906)scale(0.1 -0.1)">
       <defs>
        <path id="ArialMT-34" d="M 2069 0 
L 2069 1097 
L 81 1097 
L 81 1613 
L 2172 4581 
L 2631 4581 
L 2631 1613 
L 3250 1613 
L 3250 1097 
L 2631 1097 
L 2631 0 
L 2069 0 
z
M 2069 1613 
L 2069 3678 
L 634 1613 
L 2069 1613 
z
" transform="scale(0.015625)"/>
       </defs>
       <use xlink:href="#ArialMT-30"/>
       <use xlink:href="#ArialMT-2e" x="55.615234"/>
       <use xlink:href="#ArialMT-34" x="83.398438"/>
      </g>
     </g>
    </g>
    <g id="ytick_6">
     <g id="line2d_29">
      <path d="M 67.5 145.44 
L 257.727273 145.44 
" clip-path="url(#p755b380e30)" style="fill: none; stroke: #ffffff; stroke-linecap: round"/>
     </g>
     <g id="line2d_30"/>
     <g id="text_16">
      <!-- 0.5 -->
      <g style="fill: #262626" transform="translate(46.6 149.018906)scale(0.1 -0.1)">
       <use xlink:href="#ArialMT-30"/>
       <use xlink:href="#ArialMT-2e" x="55.615234"/>
       <use xlink:href="#ArialMT-35" x="83.398438"/>
      </g>
     </g>
    </g>
    <g id="ytick_7">
     <g id="line2d_31">
      <path d="M 67.5 123.264 
L 257.727273 123.264 
" clip-path="url(#p755b380e30)" style="fill: none; stroke: #ffffff; stroke-linecap: round"/>
     </g>
     <g id="line2d_32"/>
     <g id="text_17">
      <!-- 0.6 -->
      <g style="fill: #262626" transform="translate(46.6 126.842906)scale(0.1 -0.1)">
       <defs>
        <path id="ArialMT-36" d="M 3184 3459 
L 2625 3416 
Q 2550 3747 2413 3897 
Q 2184 4138 1850 4138 
Q 1581 4138 1378 3988 
Q 1113 3794 959 3422 
Q 806 3050 800 2363 
Q 1003 2672 1297 2822 
Q 1591 2972 1913 2972 
Q 2475 2972 2870 2558 
Q 3266 2144 3266 1488 
Q 3266 1056 3080 686 
Q 2894 316 2569 119 
Q 2244 -78 1831 -78 
Q 1128 -78 684 439 
Q 241 956 241 2144 
Q 241 3472 731 4075 
Q 1159 4600 1884 4600 
Q 2425 4600 2770 4297 
Q 3116 3994 3184 3459 
z
M 888 1484 
Q 888 1194 1011 928 
Q 1134 663 1356 523 
Q 1578 384 1822 384 
Q 2178 384 2434 671 
Q 2691 959 2691 1453 
Q 2691 1928 2437 2201 
Q 2184 2475 1800 2475 
Q 1419 2475 1153 2201 
Q 888 1928 888 1484 
z
" transform="scale(0.015625)"/>
       </defs>
       <use xlink:href="#ArialMT-30"/>
       <use xlink:href="#ArialMT-2e" x="55.615234"/>
       <use xlink:href="#ArialMT-36" x="83.398438"/>
      </g>
     </g>
    </g>
    <g id="ytick_8">
     <g id="line2d_33">
      <path d="M 67.5 101.088 
L 257.727273 101.088 
" clip-path="url(#p755b380e30)" style="fill: none; stroke: #ffffff; stroke-linecap: round"/>
     </g>
     <g id="line2d_34"/>
     <g id="text_18">
      <!-- 0.7 -->
      <g style="fill: #262626" transform="translate(46.6 104.666906)scale(0.1 -0.1)">
       <use xlink:href="#ArialMT-30"/>
       <use xlink:href="#ArialMT-2e" x="55.615234"/>
       <use xlink:href="#ArialMT-37" x="83.398438"/>
      </g>
     </g>
    </g>
    <g id="ytick_9">
     <g id="line2d_35">
      <path d="M 67.5 78.912 
L 257.727273 78.912 
" clip-path="url(#p755b380e30)" style="fill: none; stroke: #ffffff; stroke-linecap: round"/>
     </g>
     <g id="line2d_36"/>
     <g id="text_19">
      <!-- 0.8 -->
      <g style="fill: #262626" transform="translate(46.6 82.490906)scale(0.1 -0.1)">
       <defs>
        <path id="ArialMT-38" d="M 1131 2484 
Q 781 2613 612 2850 
Q 444 3088 444 3419 
Q 444 3919 803 4259 
Q 1163 4600 1759 4600 
Q 2359 4600 2725 4251 
Q 3091 3903 3091 3403 
Q 3091 3084 2923 2848 
Q 2756 2613 2416 2484 
Q 2838 2347 3058 2040 
Q 3278 1734 3278 1309 
Q 3278 722 2862 322 
Q 2447 -78 1769 -78 
Q 1091 -78 675 323 
Q 259 725 259 1325 
Q 259 1772 486 2073 
Q 713 2375 1131 2484 
z
M 1019 3438 
Q 1019 3113 1228 2906 
Q 1438 2700 1772 2700 
Q 2097 2700 2305 2904 
Q 2513 3109 2513 3406 
Q 2513 3716 2298 3927 
Q 2084 4138 1766 4138 
Q 1444 4138 1231 3931 
Q 1019 3725 1019 3438 
z
M 838 1322 
Q 838 1081 952 856 
Q 1066 631 1291 507 
Q 1516 384 1775 384 
Q 2178 384 2440 643 
Q 2703 903 2703 1303 
Q 2703 1709 2433 1975 
Q 2163 2241 1756 2241 
Q 1359 2241 1098 1978 
Q 838 1716 838 1322 
z
" transform="scale(0.015625)"/>
       </defs>
       <use xlink:href="#ArialMT-30"/>
       <use xlink:href="#ArialMT-2e" x="55.615234"/>
       <use xlink:href="#ArialMT-38" x="83.398438"/>
      </g>
     </g>
    </g>
    <g id="ytick_10">
     <g id="line2d_37">
      <path d="M 67.5 56.736 
L 257.727273 56.736 
" clip-path="url(#p755b380e30)" style="fill: none; stroke: #ffffff; stroke-linecap: round"/>
     </g>
     <g id="line2d_38"/>
     <g id="text_20">
      <!-- 0.9 -->
      <g style="fill: #262626" transform="translate(46.6 60.314906)scale(0.1 -0.1)">
       <use xlink:href="#ArialMT-30"/>
       <use xlink:href="#ArialMT-2e" x="55.615234"/>
       <use xlink:href="#ArialMT-39" x="83.398438"/>
      </g>
     </g>
    </g>
    <g id="ytick_11">
     <g id="line2d_39">
      <path d="M 67.5 34.56 
L 257.727273 34.56 
" clip-path="url(#p755b380e30)" style="fill: none; stroke: #ffffff; stroke-linecap: round"/>
     </g>
     <g id="line2d_40"/>
     <g id="text_21">
      <!-- 1.0 -->
      <g style="fill: #262626" transform="translate(46.6 38.138906)scale(0.1 -0.1)">
       <use xlink:href="#ArialMT-31"/>
       <use xlink:href="#ArialMT-2e" x="55.615234"/>
       <use xlink:href="#ArialMT-30" x="83.398438"/>
      </g>
     </g>
    </g>
    <g id="text_22">
     <!-- Adjusted p-value -->
     <g style="fill: #262626" transform="translate(40.284844 186.408125)rotate(-90)scale(0.11 -0.11)">
      <defs>
       <path id="ArialMT-41" d="M -9 0 
L 1750 4581 
L 2403 4581 
L 4278 0 
L 3588 0 
L 3053 1388 
L 1138 1388 
L 634 0 
L -9 0 
z
M 1313 1881 
L 2866 1881 
L 2388 3150 
Q 2169 3728 2063 4100 
Q 1975 3659 1816 3225 
L 1313 1881 
z
" transform="scale(0.015625)"/>
       <path id="ArialMT-6a" d="M 419 3928 
L 419 4581 
L 981 4581 
L 981 3928 
L 419 3928 
z
M -294 -1288 
L -188 -809 
Q -19 -853 78 -853 
Q 250 -853 334 -739 
Q 419 -625 419 -169 
L 419 3319 
L 981 3319 
L 981 -181 
Q 981 -794 822 -1034 
Q 619 -1347 147 -1347 
Q -81 -1347 -294 -1288 
z
" transform="scale(0.015625)"/>
       <path id="ArialMT-75" d="M 2597 0 
L 2597 488 
Q 2209 -75 1544 -75 
Q 1250 -75 995 37 
Q 741 150 617 320 
Q 494 491 444 738 
Q 409 903 409 1263 
L 409 3319 
L 972 3319 
L 972 1478 
Q 972 1038 1006 884 
Q 1059 663 1231 536 
Q 1403 409 1656 409 
Q 1909 409 2131 539 
Q 2353 669 2445 892 
Q 2538 1116 2538 1541 
L 2538 3319 
L 3100 3319 
L 3100 0 
L 2597 0 
z
" transform="scale(0.015625)"/>
       <path id="ArialMT-73" d="M 197 991 
L 753 1078 
Q 800 744 1014 566 
Q 1228 388 1613 388 
Q 2000 388 2187 545 
Q 2375 703 2375 916 
Q 2375 1106 2209 1216 
Q 2094 1291 1634 1406 
Q 1016 1563 777 1677 
Q 538 1791 414 1992 
Q 291 2194 291 2438 
Q 291 2659 392 2848 
Q 494 3038 669 3163 
Q 800 3259 1026 3326 
Q 1253 3394 1513 3394 
Q 1903 3394 2198 3281 
Q 2494 3169 2634 2976 
Q 2775 2784 2828 2463 
L 2278 2388 
Q 2241 2644 2061 2787 
Q 1881 2931 1553 2931 
Q 1166 2931 1000 2803 
Q 834 2675 834 2503 
Q 834 2394 903 2306 
Q 972 2216 1119 2156 
Q 1203 2125 1616 2013 
Q 2213 1853 2448 1751 
Q 2684 1650 2818 1456 
Q 2953 1263 2953 975 
Q 2953 694 2789 445 
Q 2625 197 2315 61 
Q 2006 -75 1616 -75 
Q 969 -75 630 194 
Q 291 463 197 991 
z
" transform="scale(0.015625)"/>
       <path id="ArialMT-74" d="M 1650 503 
L 1731 6 
Q 1494 -44 1306 -44 
Q 1000 -44 831 53 
Q 663 150 594 308 
Q 525 466 525 972 
L 525 2881 
L 113 2881 
L 113 3319 
L 525 3319 
L 525 4141 
L 1084 4478 
L 1084 3319 
L 1650 3319 
L 1650 2881 
L 1084 2881 
L 1084 941 
Q 1084 700 1114 631 
Q 1144 563 1211 522 
Q 1278 481 1403 481 
Q 1497 481 1650 503 
z
" transform="scale(0.015625)"/>
       <path id="ArialMT-70" d="M 422 -1272 
L 422 3319 
L 934 3319 
L 934 2888 
Q 1116 3141 1344 3267 
Q 1572 3394 1897 3394 
Q 2322 3394 2647 3175 
Q 2972 2956 3137 2557 
Q 3303 2159 3303 1684 
Q 3303 1175 3120 767 
Q 2938 359 2589 142 
Q 2241 -75 1856 -75 
Q 1575 -75 1351 44 
Q 1128 163 984 344 
L 984 -1272 
L 422 -1272 
z
M 931 1641 
Q 931 1000 1190 694 
Q 1450 388 1819 388 
Q 2194 388 2461 705 
Q 2728 1022 2728 1688 
Q 2728 2322 2467 2637 
Q 2206 2953 1844 2953 
Q 1484 2953 1207 2617 
Q 931 2281 931 1641 
z
" transform="scale(0.015625)"/>
       <path id="ArialMT-2d" d="M 203 1375 
L 203 1941 
L 1931 1941 
L 1931 1375 
L 203 1375 
z
" transform="scale(0.015625)"/>
       <path id="ArialMT-76" d="M 1344 0 
L 81 3319 
L 675 3319 
L 1388 1331 
Q 1503 1009 1600 663 
Q 1675 925 1809 1294 
L 2547 3319 
L 3125 3319 
L 1869 0 
L 1344 0 
z
" transform="scale(0.015625)"/>
       <path id="ArialMT-61" d="M 2588 409 
Q 2275 144 1986 34 
Q 1697 -75 1366 -75 
Q 819 -75 525 192 
Q 231 459 231 875 
Q 231 1119 342 1320 
Q 453 1522 633 1644 
Q 813 1766 1038 1828 
Q 1203 1872 1538 1913 
Q 2219 1994 2541 2106 
Q 2544 2222 2544 2253 
Q 2544 2597 2384 2738 
Q 2169 2928 1744 2928 
Q 1347 2928 1158 2789 
Q 969 2650 878 2297 
L 328 2372 
Q 403 2725 575 2942 
Q 747 3159 1072 3276 
Q 1397 3394 1825 3394 
Q 2250 3394 2515 3294 
Q 2781 3194 2906 3042 
Q 3031 2891 3081 2659 
Q 3109 2516 3109 2141 
L 3109 1391 
Q 3109 606 3145 398 
Q 3181 191 3288 0 
L 2700 0 
Q 2613 175 2588 409 
z
M 2541 1666 
Q 2234 1541 1622 1453 
Q 1275 1403 1131 1340 
Q 988 1278 909 1158 
Q 831 1038 831 891 
Q 831 666 1001 516 
Q 1172 366 1500 366 
Q 1825 366 2078 508 
Q 2331 650 2450 897 
Q 2541 1088 2541 1459 
L 2541 1666 
z
" transform="scale(0.015625)"/>
       <path id="ArialMT-6c" d="M 409 0 
L 409 4581 
L 972 4581 
L 972 0 
L 409 0 
z
" transform="scale(0.015625)"/>
      </defs>
      <use xlink:href="#ArialMT-41"/>
      <use xlink:href="#ArialMT-64" x="66.699219"/>
      <use xlink:href="#ArialMT-6a" x="122.314453"/>
      <use xlink:href="#ArialMT-75" x="144.53125"/>
      <use xlink:href="#ArialMT-73" x="200.146484"/>
      <use xlink:href="#ArialMT-74" x="250.146484"/>
      <use xlink:href="#ArialMT-65" x="277.929688"/>
      <use xlink:href="#ArialMT-64" x="333.544922"/>
      <use xlink:href="#ArialMT-20" x="389.160156"/>
      <use xlink:href="#ArialMT-70" x="416.943359"/>
      <use xlink:href="#ArialMT-2d" x="472.558594"/>
      <use xlink:href="#ArialMT-76" x="505.859375"/>
      <use xlink:href="#ArialMT-61" x="555.859375"/>
      <use xlink:href="#ArialMT-6c" x="611.474609"/>
      <use xlink:href="#ArialMT-75" x="633.691406"/>
      <use xlink:href="#ArialMT-65" x="689.306641"/>
     </g>
    </g>
   </g>
   <g id="line2d_41">
    <path d="M 67.5 211.968 
L 78.068182 211.968 
L 88.636364 211.968 
L 99.204545 211.968 
L 109.772727 211.968 
L 120.340909 211.968 
L 130.909091 211.968 
L 141.477273 211.968 
L 152.045455 211.968 
L 162.613636 211.968 
L 173.181818 211.968 
L 183.75 211.968 
L 194.318182 211.968 
L 204.886364 211.968 
L 215.454545 211.968 
L 226.022727 211.968 
L 236.590909 211.968 
L 247.159091 211.968 
L 257.727273 211.968 
" clip-path="url(#p755b380e30)" style="fill: none; stroke: #4c72b0; stroke-width: 2; stroke-linecap: round"/>
   </g>
   <g id="PathCollection_1">
    <defs>
     <path id="mdd213bf5a6" d="M -3.5 3.5 
L 3.5 -3.5 
M -3.5 -3.5 
L 3.5 3.5 
" style="stroke: #000000"/>
    </defs>
    <g>
     <use xlink:href="#mdd213bf5a6" x="78.068182" y="246.518208" style="stroke: #000000"/>
     <use xlink:href="#mdd213bf5a6" x="88.636364" y="238.72704" style="stroke: #000000"/>
     <use xlink:href="#mdd213bf5a6" x="99.204545" y="238.72704" style="stroke: #000000"/>
     <use xlink:href="#mdd213bf5a6" x="109.772727" y="232.758" style="stroke: #000000"/>
     <use xlink:href="#mdd213bf5a6" x="120.340909" y="224.652672" style="stroke: #000000"/>
     <use xlink:href="#mdd213bf5a6" x="130.909091" y="214.85088" style="stroke: #000000"/>
     <use xlink:href="#mdd213bf5a6" x="141.477273" y="202.464" style="stroke: #000000"/>
     <use xlink:href="#mdd213bf5a6" x="152.045455" y="199.7712" style="stroke: #000000"/>
     <use xlink:href="#mdd213bf5a6" x="162.613636" y="185.1104" style="stroke: #000000"/>
     <use xlink:href="#mdd213bf5a6" x="173.181818" y="150.76224" style="stroke: #000000"/>
     <use xlink:href="#mdd213bf5a6" x="183.75" y="132.9408" style="stroke: #000000"/>
     <use xlink:href="#mdd213bf5a6" x="194.318182" y="91.70016" style="stroke: #000000"/>
     <use xlink:href="#mdd213bf5a6" x="204.886364" y="79.423754" style="stroke: #000000"/>
     <use xlink:href="#mdd213bf5a6" x="215.454545" y="73.2096" style="stroke: #000000"/>
     <use xlink:href="#mdd213bf5a6" x="226.022727" y="60.28416" style="stroke: #000000"/>
     <use xlink:href="#mdd213bf5a6" x="236.590909" y="44.262" style="stroke: #000000"/>
     <use xlink:href="#mdd213bf5a6" x="247.159091" y="43.4304" style="stroke: #000000"/>
    </g>
   </g>
   <g id="patch_3">
    <path d="M 67.5 256.32 
L 67.5 34.56 
" style="fill: none"/>
   </g>
   <g id="patch_4">
    <path d="M 257.727273 256.32 
L 257.727273 34.56 
" style="fill: none"/>
   </g>
   <g id="patch_5">
    <path d="M 67.5 256.32 
L 257.727273 256.32 
" style="fill: none"/>
   </g>
   <g id="patch_6">
    <path d="M 67.5 34.56 
L 257.727273 34.56 
" style="fill: none"/>
   </g>
   <g id="PathCollection_2">
    <defs>
     <path id="C0_0_63f30a9fae" d="M 0 3.5 
C 0.928211 3.5 1.81853 3.131218 2.474874 2.474874 
C 3.131218 1.81853 3.5 0.928211 3.5 -0 
C 3.5 -0.928211 3.131218 -1.81853 2.474874 -2.474874 
C 1.81853 -3.131218 0.928211 -3.5 0 -3.5 
C -0.928211 -3.5 -1.81853 -3.131218 -2.474874 -2.474874 
C -3.131218 -1.81853 -3.5 -0.928211 -3.5 0 
C -3.5 0.928211 -3.131218 1.81853 -2.474874 2.474874 
C -1.81853 3.131218 -0.928211 3.5 0 3.5 
z
"/>
    </defs>
    <use xlink:href="#C0_0_63f30a9fae" x="78.068182" y="246.518208" style="fill: none; stroke: #000000"/>
    <use xlink:href="#C0_0_63f30a9fae" x="88.636364" y="238.72704" style="fill: none; stroke: #000000"/>
    <use xlink:href="#C0_0_63f30a9fae" x="99.204545" y="238.72704" style="fill: none; stroke: #000000"/>
    <use xlink:href="#C0_0_63f30a9fae" x="109.772727" y="232.758" style="fill: none; stroke: #000000"/>
    <use xlink:href="#C0_0_63f30a9fae" x="120.340909" y="224.652672" style="fill: none; stroke: #000000"/>
    <use xlink:href="#C0_0_63f30a9fae" x="130.909091" y="214.85088" style="fill: none; stroke: #000000"/>
   </g>
   <g id="text_23">
    <!-- BH -->
    <g style="fill: #262626" transform="translate(154.278324 28.56)scale(0.12 -0.12)">
     <defs>
      <path id="ArialMT-42" d="M 469 0 
L 469 4581 
L 2188 4581 
Q 2713 4581 3030 4442 
Q 3347 4303 3526 4014 
Q 3706 3725 3706 3409 
Q 3706 3116 3547 2856 
Q 3388 2597 3066 2438 
Q 3481 2316 3704 2022 
Q 3928 1728 3928 1328 
Q 3928 1006 3792 729 
Q 3656 453 3456 303 
Q 3256 153 2954 76 
Q 2653 0 2216 0 
L 469 0 
z
M 1075 2656 
L 2066 2656 
Q 2469 2656 2644 2709 
Q 2875 2778 2992 2937 
Q 3109 3097 3109 3338 
Q 3109 3566 3000 3739 
Q 2891 3913 2687 3977 
Q 2484 4041 1991 4041 
L 1075 4041 
L 1075 2656 
z
M 1075 541 
L 2216 541 
Q 2509 541 2628 563 
Q 2838 600 2978 687 
Q 3119 775 3209 942 
Q 3300 1109 3300 1328 
Q 3300 1584 3169 1773 
Q 3038 1963 2805 2039 
Q 2572 2116 2134 2116 
L 1075 2116 
L 1075 541 
z
" transform="scale(0.015625)"/>
      <path id="ArialMT-48" d="M 513 0 
L 513 4581 
L 1119 4581 
L 1119 2700 
L 3500 2700 
L 3500 4581 
L 4106 4581 
L 4106 0 
L 3500 0 
L 3500 2159 
L 1119 2159 
L 1119 0 
L 513 0 
z
" transform="scale(0.015625)"/>
     </defs>
     <use xlink:href="#ArialMT-42"/>
     <use xlink:href="#ArialMT-48" x="66.699219"/>
    </g>
   </g>
   <g id="PathCollection_3"/>
  </g>
  <g id="axes_2">
   <g id="patch_7">
    <path d="M 295.772727 256.32 
L 486 256.32 
L 486 34.56 
L 295.772727 34.56 
z
" style="fill: #eaeaf2"/>
   </g>
   <g id="matplotlib.axis_3">
    <g id="xtick_10">
     <g id="line2d_42">
      <path d="M 306.340909 256.32 
L 306.340909 34.56 
" clip-path="url(#p81179da493)" style="fill: none; stroke: #ffffff; stroke-linecap: round"/>
     </g>
     <g id="line2d_43"/>
     <g id="text_24">
      <!-- 1 -->
      <g style="fill: #262626" transform="translate(303.56044 270.477813)scale(0.1 -0.1)">
       <use xlink:href="#ArialMT-31"/>
      </g>
     </g>
    </g>
    <g id="xtick_11">
     <g id="line2d_44">
      <path d="M 327.477273 256.32 
L 327.477273 34.56 
" clip-path="url(#p81179da493)" style="fill: none; stroke: #ffffff; stroke-linecap: round"/>
     </g>
     <g id="line2d_45"/>
     <g id="text_25">
      <!-- 3 -->
      <g style="fill: #262626" transform="translate(324.696804 270.477813)scale(0.1 -0.1)">
       <use xlink:href="#ArialMT-33"/>
      </g>
     </g>
    </g>
    <g id="xtick_12">
     <g id="line2d_46">
      <path d="M 348.613636 256.32 
L 348.613636 34.56 
" clip-path="url(#p81179da493)" style="fill: none; stroke: #ffffff; stroke-linecap: round"/>
     </g>
     <g id="line2d_47"/>
     <g id="text_26">
      <!-- 5 -->
      <g style="fill: #262626" transform="translate(345.833168 270.477813)scale(0.1 -0.1)">
       <use xlink:href="#ArialMT-35"/>
      </g>
     </g>
    </g>
    <g id="xtick_13">
     <g id="line2d_48">
      <path d="M 369.75 256.32 
L 369.75 34.56 
" clip-path="url(#p81179da493)" style="fill: none; stroke: #ffffff; stroke-linecap: round"/>
     </g>
     <g id="line2d_49"/>
     <g id="text_27">
      <!-- 7 -->
      <g style="fill: #262626" transform="translate(366.969531 270.477813)scale(0.1 -0.1)">
       <use xlink:href="#ArialMT-37"/>
      </g>
     </g>
    </g>
    <g id="xtick_14">
     <g id="line2d_50">
      <path d="M 390.886364 256.32 
L 390.886364 34.56 
" clip-path="url(#p81179da493)" style="fill: none; stroke: #ffffff; stroke-linecap: round"/>
     </g>
     <g id="line2d_51"/>
     <g id="text_28">
      <!-- 9 -->
      <g style="fill: #262626" transform="translate(388.105895 270.477813)scale(0.1 -0.1)">
       <use xlink:href="#ArialMT-39"/>
      </g>
     </g>
    </g>
    <g id="xtick_15">
     <g id="line2d_52">
      <path d="M 412.022727 256.32 
L 412.022727 34.56 
" clip-path="url(#p81179da493)" style="fill: none; stroke: #ffffff; stroke-linecap: round"/>
     </g>
     <g id="line2d_53"/>
     <g id="text_29">
      <!-- 11 -->
      <g style="fill: #262626" transform="translate(406.83054 270.477813)scale(0.1 -0.1)">
       <use xlink:href="#ArialMT-31"/>
       <use xlink:href="#ArialMT-31" x="48.240234"/>
      </g>
     </g>
    </g>
    <g id="xtick_16">
     <g id="line2d_54">
      <path d="M 433.159091 256.32 
L 433.159091 34.56 
" clip-path="url(#p81179da493)" style="fill: none; stroke: #ffffff; stroke-linecap: round"/>
     </g>
     <g id="line2d_55"/>
     <g id="text_30">
      <!-- 13 -->
      <g style="fill: #262626" transform="translate(427.598153 270.477813)scale(0.1 -0.1)">
       <use xlink:href="#ArialMT-31"/>
       <use xlink:href="#ArialMT-33" x="55.615234"/>
      </g>
     </g>
    </g>
    <g id="xtick_17">
     <g id="line2d_56">
      <path d="M 454.295455 256.32 
L 454.295455 34.56 
" clip-path="url(#p81179da493)" style="fill: none; stroke: #ffffff; stroke-linecap: round"/>
     </g>
     <g id="line2d_57"/>
     <g id="text_31">
      <!-- 15 -->
      <g style="fill: #262626" transform="translate(448.734517 270.477813)scale(0.1 -0.1)">
       <use xlink:href="#ArialMT-31"/>
       <use xlink:href="#ArialMT-35" x="55.615234"/>
      </g>
     </g>
    </g>
    <g id="xtick_18">
     <g id="line2d_58">
      <path d="M 475.431818 256.32 
L 475.431818 34.56 
" clip-path="url(#p81179da493)" style="fill: none; stroke: #ffffff; stroke-linecap: round"/>
     </g>
     <g id="line2d_59"/>
     <g id="text_32">
      <!-- 17 -->
      <g style="fill: #262626" transform="translate(469.870881 270.477813)scale(0.1 -0.1)">
       <use xlink:href="#ArialMT-31"/>
       <use xlink:href="#ArialMT-37" x="55.615234"/>
      </g>
     </g>
    </g>
    <g id="text_33">
     <!-- Index ($i$) -->
     <g style="fill: #262626" transform="translate(370.701364 284.825312)scale(0.11 -0.11)">
      <use xlink:href="#ArialMT-49" transform="translate(0 0.015625)"/>
      <use xlink:href="#ArialMT-6e" transform="translate(27.783203 0.015625)"/>
      <use xlink:href="#ArialMT-64" transform="translate(83.398438 0.015625)"/>
      <use xlink:href="#ArialMT-65" transform="translate(139.013672 0.015625)"/>
      <use xlink:href="#ArialMT-78" transform="translate(194.628906 0.015625)"/>
      <use xlink:href="#ArialMT-20" transform="translate(244.628906 0.015625)"/>
      <use xlink:href="#ArialMT-28" transform="translate(272.412109 0.015625)"/>
      <use xlink:href="#DejaVuSans-Oblique-69" transform="translate(305.712891 0.015625)"/>
      <use xlink:href="#ArialMT-29" transform="translate(333.496094 0.015625)"/>
     </g>
    </g>
   </g>
   <g id="matplotlib.axis_4">
    <g id="ytick_12">
     <g id="line2d_60">
      <path d="M 295.772727 256.32 
L 486 256.32 
" clip-path="url(#p81179da493)" style="fill: none; stroke: #ffffff; stroke-linecap: round"/>
     </g>
     <g id="line2d_61"/>
    </g>
    <g id="ytick_13">
     <g id="line2d_62">
      <path d="M 295.772727 234.144 
L 486 234.144 
" clip-path="url(#p81179da493)" style="fill: none; stroke: #ffffff; stroke-linecap: round"/>
     </g>
     <g id="line2d_63"/>
    </g>
    <g id="ytick_14">
     <g id="line2d_64">
      <path d="M 295.772727 211.968 
L 486 211.968 
" clip-path="url(#p81179da493)" style="fill: none; stroke: #ffffff; stroke-linecap: round"/>
     </g>
     <g id="line2d_65"/>
    </g>
    <g id="ytick_15">
     <g id="line2d_66">
      <path d="M 295.772727 189.792 
L 486 189.792 
" clip-path="url(#p81179da493)" style="fill: none; stroke: #ffffff; stroke-linecap: round"/>
     </g>
     <g id="line2d_67"/>
    </g>
    <g id="ytick_16">
     <g id="line2d_68">
      <path d="M 295.772727 167.616 
L 486 167.616 
" clip-path="url(#p81179da493)" style="fill: none; stroke: #ffffff; stroke-linecap: round"/>
     </g>
     <g id="line2d_69"/>
    </g>
    <g id="ytick_17">
     <g id="line2d_70">
      <path d="M 295.772727 145.44 
L 486 145.44 
" clip-path="url(#p81179da493)" style="fill: none; stroke: #ffffff; stroke-linecap: round"/>
     </g>
     <g id="line2d_71"/>
    </g>
    <g id="ytick_18">
     <g id="line2d_72">
      <path d="M 295.772727 123.264 
L 486 123.264 
" clip-path="url(#p81179da493)" style="fill: none; stroke: #ffffff; stroke-linecap: round"/>
     </g>
     <g id="line2d_73"/>
    </g>
    <g id="ytick_19">
     <g id="line2d_74">
      <path d="M 295.772727 101.088 
L 486 101.088 
" clip-path="url(#p81179da493)" style="fill: none; stroke: #ffffff; stroke-linecap: round"/>
     </g>
     <g id="line2d_75"/>
    </g>
    <g id="ytick_20">
     <g id="line2d_76">
      <path d="M 295.772727 78.912 
L 486 78.912 
" clip-path="url(#p81179da493)" style="fill: none; stroke: #ffffff; stroke-linecap: round"/>
     </g>
     <g id="line2d_77"/>
    </g>
    <g id="ytick_21">
     <g id="line2d_78">
      <path d="M 295.772727 56.736 
L 486 56.736 
" clip-path="url(#p81179da493)" style="fill: none; stroke: #ffffff; stroke-linecap: round"/>
     </g>
     <g id="line2d_79"/>
    </g>
    <g id="ytick_22">
     <g id="line2d_80">
      <path d="M 295.772727 34.56 
L 486 34.56 
" clip-path="url(#p81179da493)" style="fill: none; stroke: #ffffff; stroke-linecap: round"/>
     </g>
     <g id="line2d_81"/>
    </g>
   </g>
   <g id="line2d_82">
    <path d="M 295.772727 211.968 
L 306.340909 211.968 
L 316.909091 211.968 
L 327.477273 211.968 
L 338.045455 211.968 
L 348.613636 211.968 
L 359.181818 211.968 
L 369.75 211.968 
L 380.318182 211.968 
L 390.886364 211.968 
L 401.454545 211.968 
L 412.022727 211.968 
L 422.590909 211.968 
L 433.159091 211.968 
L 443.727273 211.968 
L 454.295455 211.968 
L 464.863636 211.968 
L 475.431818 211.968 
L 486 211.968 
" clip-path="url(#p81179da493)" style="fill: none; stroke: #4c72b0; stroke-width: 2; stroke-linecap: round"/>
   </g>
   <g id="PathCollection_4">
    <g>
     <use xlink:href="#mdd213bf5a6" x="306.340909" y="246.492657" style="stroke: #000000"/>
     <use xlink:href="#mdd213bf5a6" x="316.909091" y="239.605922" style="stroke: #000000"/>
     <use xlink:href="#mdd213bf5a6" x="327.477273" y="239.605922" style="stroke: #000000"/>
     <use xlink:href="#mdd213bf5a6" x="338.045455" y="236.418462" style="stroke: #000000"/>
     <use xlink:href="#mdd213bf5a6" x="348.613636" y="231.042138" style="stroke: #000000"/>
     <use xlink:href="#mdd213bf5a6" x="359.181818" y="224.979186" style="stroke: #000000"/>
     <use xlink:href="#mdd213bf5a6" x="369.75" y="217.6" style="stroke: #000000"/>
     <use xlink:href="#mdd213bf5a6" x="380.318182" y="217.6" style="stroke: #000000"/>
     <use xlink:href="#mdd213bf5a6" x="390.886364" y="210.899277" style="stroke: #000000"/>
     <use xlink:href="#mdd213bf5a6" x="401.454545" y="187.328" style="stroke: #000000"/>
     <use xlink:href="#mdd213bf5a6" x="412.022727" y="176.94" style="stroke: #000000"/>
     <use xlink:href="#mdd213bf5a6" x="422.590909" y="134.258824" style="stroke: #000000"/>
     <use xlink:href="#mdd213bf5a6" x="433.159091" y="122.914083" style="stroke: #000000"/>
     <use xlink:href="#mdd213bf5a6" x="443.727273" y="121.68" style="stroke: #000000"/>
     <use xlink:href="#mdd213bf5a6" x="454.295455" y="99.072" style="stroke: #000000"/>
    </g>
   </g>
   <g id="patch_8">
    <path d="M 295.772727 256.32 
L 295.772727 34.56 
" style="fill: none"/>
   </g>
   <g id="patch_9">
    <path d="M 486 256.32 
L 486 34.56 
" style="fill: none"/>
   </g>
   <g id="patch_10">
    <path d="M 295.772727 256.32 
L 486 256.32 
" style="fill: none"/>
   </g>
   <g id="patch_11">
    <path d="M 295.772727 34.56 
L 486 34.56 
" style="fill: none"/>
   </g>
   <g id="PathCollection_5">
    <defs>
     <path id="C1_0_f7a6f07546" d="M 0 3.5 
C 0.928211 3.5 1.81853 3.131218 2.474874 2.474874 
C 3.131218 1.81853 3.5 0.928211 3.5 -0 
C 3.5 -0.928211 3.131218 -1.81853 2.474874 -2.474874 
C 1.81853 -3.131218 0.928211 -3.5 0 -3.5 
C -0.928211 -3.5 -1.81853 -3.131218 -2.474874 -2.474874 
C -3.131218 -1.81853 -3.5 -0.928211 -3.5 0 
C -3.5 0.928211 -3.131218 1.81853 -2.474874 2.474874 
C -1.81853 3.131218 -0.928211 3.5 0 3.5 
z
"/>
    </defs>
    <use xlink:href="#C1_0_f7a6f07546" x="306.340909" y="246.492657" style="fill: none; stroke: #000000"/>
    <use xlink:href="#C1_0_f7a6f07546" x="316.909091" y="239.605922" style="fill: none; stroke: #000000"/>
    <use xlink:href="#C1_0_f7a6f07546" x="327.477273" y="239.605922" style="fill: none; stroke: #000000"/>
    <use xlink:href="#C1_0_f7a6f07546" x="338.045455" y="236.418462" style="fill: none; stroke: #000000"/>
    <use xlink:href="#C1_0_f7a6f07546" x="348.613636" y="231.042138" style="fill: none; stroke: #000000"/>
    <use xlink:href="#C1_0_f7a6f07546" x="359.181818" y="224.979186" style="fill: none; stroke: #000000"/>
    <use xlink:href="#C1_0_f7a6f07546" x="369.75" y="217.6" style="fill: none; stroke: #000000"/>
    <use xlink:href="#C1_0_f7a6f07546" x="380.318182" y="217.6" style="fill: none; stroke: #000000"/>
   </g>
   <g id="text_34">
    <!-- BKY -->
    <g style="fill: #262626" transform="translate(378.879801 28.56)scale(0.12 -0.12)">
     <defs>
      <path id="ArialMT-4b" d="M 469 0 
L 469 4581 
L 1075 4581 
L 1075 2309 
L 3350 4581 
L 4172 4581 
L 2250 2725 
L 4256 0 
L 3456 0 
L 1825 2319 
L 1075 1588 
L 1075 0 
L 469 0 
z
" transform="scale(0.015625)"/>
      <path id="ArialMT-59" d="M 1784 0 
L 1784 1941 
L 19 4581 
L 756 4581 
L 1659 3200 
Q 1909 2813 2125 2425 
Q 2331 2784 2625 3234 
L 3513 4581 
L 4219 4581 
L 2391 1941 
L 2391 0 
L 1784 0 
z
" transform="scale(0.015625)"/>
     </defs>
     <use xlink:href="#ArialMT-42"/>
     <use xlink:href="#ArialMT-4b" x="66.699219"/>
     <use xlink:href="#ArialMT-59" x="133.398438"/>
    </g>
   </g>
   <g id="PathCollection_6">
    <defs>
     <path id="m4dd941a0ef" d="M -3.5 3.5 
L 3.5 -3.5 
M -3.5 -3.5 
L 3.5 3.5 
" style="stroke: #ff0000"/>
    </defs>
    <g>
     <use xlink:href="#m4dd941a0ef" x="464.863636" y="34.56" style="fill: #ff0000; stroke: #ff0000"/>
     <use xlink:href="#m4dd941a0ef" x="475.431818" y="34.56" style="fill: #ff0000; stroke: #ff0000"/>
    </g>
   </g>
  </g>
 </g>
 <defs>
  <clipPath id="p755b380e30">
   <rect x="67.5" y="34.56" width="190.227273" height="221.76"/>
  </clipPath>
  <clipPath id="p81179da493">
   <rect x="295.772727" y="34.56" width="190.227273" height="221.76"/>
  </clipPath>
 </defs>
</svg>
