<?xml version="1.0" encoding="utf-8" standalone="no"?>
<!DOCTYPE svg PUBLIC "-//W3C//DTD SVG 1.1//EN"
  "http://www.w3.org/Graphics/SVG/1.1/DTD/svg11.dtd">
<svg xmlns:xlink="http://www.w3.org/1999/xlink" width="540pt" height="288pt" viewBox="0 0 540 288" xmlns="http://www.w3.org/2000/svg" version="1.1">
 <metadata>
  <rdf:RDF xmlns:dc="http://purl.org/dc/elements/1.1/" xmlns:cc="http://creativecommons.org/ns#" xmlns:rdf="http://www.w3.org/1999/02/22-rdf-syntax-ns#">
   <cc:Work>
    <dc:type rdf:resource="http://purl.org/dc/dcmitype/StillImage"/>
    <dc:date>2024-04-10T13:22:51.353170</dc:date>
    <dc:format>image/svg+xml</dc:format>
    <dc:creator>
     <cc:Agent>
      <dc:title>Matplotlib v3.5.2, https://matplotlib.org/</dc:title>
     </cc:Agent>
    </dc:creator>
   </cc:Work>
  </rdf:RDF>
 </metadata>
 <defs>
  <style type="text/css">*{stroke-linejoin: round; stroke-linecap: butt}</style>
 </defs>
 <g id="figure_1">
  <g id="patch_1">
   <path d="M 0 288 
L 540 288 
L 540 0 
L 0 0 
z
" style="fill: #ffffff"/>
  </g>
  <g id="axes_1">
   <g id="patch_2">
    <path d="M 67.5 256.32 
L 257.727273 256.32 
L 257.727273 34.56 
L 67.5 34.56 
z
" style="fill: #eaeaf2"/>
   </g>
   <g id="matplotlib.axis_1">
    <g id="xtick_1">
     <g id="line2d_1">
      <path d="M 78.068182 256.32 
L 78.068182 34.56 
" clip-path="url(#p6dbb3272e9)" style="fill: none; stroke: #ffffff; stroke-linecap: round"/>
     </g>
     <g id="line2d_2"/>
     <g id="text_1">
      <!-- 1 -->
      <g style="fill: #262626" transform="translate(75.287713 270.477813)scale(0.1 -0.1)">
       <defs>
        <path id="ArialMT-31" d="M 2384 0 
L 1822 0 
L 1822 3584 
Q 1619 3391 1289 3197 
Q 959 3003 697 2906 
L 697 3450 
Q 1169 3672 1522 3987 
Q 1875 4303 2022 4600 
L 2384 4600 
L 2384 0 
z
" transform="scale(0.015625)"/>
       </defs>
       <use xlink:href="#ArialMT-31"/>
      </g>
     </g>
    </g>
    <g id="xtick_2">
     <g id="line2d_3">
      <path d="M 99.204545 256.32 
L 99.204545 34.56 
" clip-path="url(#p6dbb3272e9)" style="fill: none; stroke: #ffffff; stroke-linecap: round"/>
     </g>
     <g id="line2d_4"/>
     <g id="text_2">
      <!-- 3 -->
      <g style="fill: #262626" transform="translate(96.424077 270.477813)scale(0.1 -0.1)">
       <defs>
        <path id="ArialMT-33" d="M 269 1209 
L 831 1284 
Q 928 806 1161 595 
Q 1394 384 1728 384 
Q 2125 384 2398 659 
Q 2672 934 2672 1341 
Q 2672 1728 2419 1979 
Q 2166 2231 1775 2231 
Q 1616 2231 1378 2169 
L 1441 2663 
Q 1497 2656 1531 2656 
Q 1891 2656 2178 2843 
Q 2466 3031 2466 3422 
Q 2466 3731 2256 3934 
Q 2047 4138 1716 4138 
Q 1388 4138 1169 3931 
Q 950 3725 888 3313 
L 325 3413 
Q 428 3978 793 4289 
Q 1159 4600 1703 4600 
Q 2078 4600 2393 4439 
Q 2709 4278 2876 4000 
Q 3044 3722 3044 3409 
Q 3044 3113 2884 2869 
Q 2725 2625 2413 2481 
Q 2819 2388 3044 2092 
Q 3269 1797 3269 1353 
Q 3269 753 2831 336 
Q 2394 -81 1725 -81 
Q 1122 -81 723 278 
Q 325 638 269 1209 
z
" transform="scale(0.015625)"/>
       </defs>
       <use xlink:href="#ArialMT-33"/>
      </g>
     </g>
    </g>
    <g id="xtick_3">
     <g id="line2d_5">
      <path d="M 120.340909 256.32 
L 120.340909 34.56 
" clip-path="url(#p6dbb3272e9)" style="fill: none; stroke: #ffffff; stroke-linecap: round"/>
     </g>
     <g id="line2d_6"/>
     <g id="text_3">
      <!-- 5 -->
      <g style="fill: #262626" transform="translate(117.56044 270.477813)scale(0.1 -0.1)">
       <defs>
        <path id="ArialMT-35" d="M 266 1200 
L 856 1250 
Q 922 819 1161 601 
Q 1400 384 1738 384 
Q 2144 384 2425 690 
Q 2706 997 2706 1503 
Q 2706 1984 2436 2262 
Q 2166 2541 1728 2541 
Q 1456 2541 1237 2417 
Q 1019 2294 894 2097 
L 366 2166 
L 809 4519 
L 3088 4519 
L 3088 3981 
L 1259 3981 
L 1013 2750 
Q 1425 3038 1878 3038 
Q 2478 3038 2890 2622 
Q 3303 2206 3303 1553 
Q 3303 931 2941 478 
Q 2500 -78 1738 -78 
Q 1113 -78 717 272 
Q 322 622 266 1200 
z
" transform="scale(0.015625)"/>
       </defs>
       <use xlink:href="#ArialMT-35"/>
      </g>
     </g>
    </g>
    <g id="xtick_4">
     <g id="line2d_7">
      <path d="M 141.477273 256.32 
L 141.477273 34.56 
" clip-path="url(#p6dbb3272e9)" style="fill: none; stroke: #ffffff; stroke-linecap: round"/>
     </g>
     <g id="line2d_8"/>
     <g id="text_4">
      <!-- 7 -->
      <g style="fill: #262626" transform="translate(138.696804 270.477813)scale(0.1 -0.1)">
       <defs>
        <path id="ArialMT-37" d="M 303 3981 
L 303 4522 
L 3269 4522 
L 3269 4084 
Q 2831 3619 2401 2847 
Q 1972 2075 1738 1259 
Q 1569 684 1522 0 
L 944 0 
Q 953 541 1156 1306 
Q 1359 2072 1739 2783 
Q 2119 3494 2547 3981 
L 303 3981 
z
" transform="scale(0.015625)"/>
       </defs>
       <use xlink:href="#ArialMT-37"/>
      </g>
     </g>
    </g>
    <g id="xtick_5">
     <g id="line2d_9">
      <path d="M 162.613636 256.32 
L 162.613636 34.56 
" clip-path="url(#p6dbb3272e9)" style="fill: none; stroke: #ffffff; stroke-linecap: round"/>
     </g>
     <g id="line2d_10"/>
     <g id="text_5">
      <!-- 9 -->
      <g style="fill: #262626" transform="translate(159.833168 270.477813)scale(0.1 -0.1)">
       <defs>
        <path id="ArialMT-39" d="M 350 1059 
L 891 1109 
Q 959 728 1153 556 
Q 1347 384 1650 384 
Q 1909 384 2104 503 
Q 2300 622 2425 820 
Q 2550 1019 2634 1356 
Q 2719 1694 2719 2044 
Q 2719 2081 2716 2156 
Q 2547 1888 2255 1720 
Q 1963 1553 1622 1553 
Q 1053 1553 659 1965 
Q 266 2378 266 3053 
Q 266 3750 677 4175 
Q 1088 4600 1706 4600 
Q 2153 4600 2523 4359 
Q 2894 4119 3086 3673 
Q 3278 3228 3278 2384 
Q 3278 1506 3087 986 
Q 2897 466 2520 194 
Q 2144 -78 1638 -78 
Q 1100 -78 759 220 
Q 419 519 350 1059 
z
M 2653 3081 
Q 2653 3566 2395 3850 
Q 2138 4134 1775 4134 
Q 1400 4134 1122 3828 
Q 844 3522 844 3034 
Q 844 2597 1108 2323 
Q 1372 2050 1759 2050 
Q 2150 2050 2401 2323 
Q 2653 2597 2653 3081 
z
" transform="scale(0.015625)"/>
       </defs>
       <use xlink:href="#ArialMT-39"/>
      </g>
     </g>
    </g>
    <g id="xtick_6">
     <g id="line2d_11">
      <path d="M 183.75 256.32 
L 183.75 34.56 
" clip-path="url(#p6dbb3272e9)" style="fill: none; stroke: #ffffff; stroke-linecap: round"/>
     </g>
     <g id="line2d_12"/>
     <g id="text_6">
      <!-- 11 -->
      <g style="fill: #262626" transform="translate(178.557812 270.477813)scale(0.1 -0.1)">
       <use xlink:href="#ArialMT-31"/>
       <use xlink:href="#ArialMT-31" x="48.240234"/>
      </g>
     </g>
    </g>
    <g id="xtick_7">
     <g id="line2d_13">
      <path d="M 204.886364 256.32 
L 204.886364 34.56 
" clip-path="url(#p6dbb3272e9)" style="fill: none; stroke: #ffffff; stroke-linecap: round"/>
     </g>
     <g id="line2d_14"/>
     <g id="text_7">
      <!-- 13 -->
      <g style="fill: #262626" transform="translate(199.325426 270.477813)scale(0.1 -0.1)">
       <use xlink:href="#ArialMT-31"/>
       <use xlink:href="#ArialMT-33" x="55.615234"/>
      </g>
     </g>
    </g>
    <g id="xtick_8">
     <g id="line2d_15">
      <path d="M 226.022727 256.32 
L 226.022727 34.56 
" clip-path="url(#p6dbb3272e9)" style="fill: none; stroke: #ffffff; stroke-linecap: round"/>
     </g>
     <g id="line2d_16"/>
     <g id="text_8">
      <!-- 15 -->
      <g style="fill: #262626" transform="translate(220.46179 270.477813)scale(0.1 -0.1)">
       <use xlink:href="#ArialMT-31"/>
       <use xlink:href="#ArialMT-35" x="55.615234"/>
      </g>
     </g>
    </g>
    <g id="xtick_9">
     <g id="line2d_17">
      <path d="M 247.159091 256.32 
L 247.159091 34.56 
" clip-path="url(#p6dbb3272e9)" style="fill: none; stroke: #ffffff; stroke-linecap: round"/>
     </g>
     <g id="line2d_18"/>
     <g id="text_9">
      <!-- 17 -->
      <g style="fill: #262626" transform="translate(241.598153 270.477813)scale(0.1 -0.1)">
       <use xlink:href="#ArialMT-31"/>
       <use xlink:href="#ArialMT-37" x="55.615234"/>
      </g>
     </g>
    </g>
    <g id="text_10">
     <!-- Index ($i$) -->
     <g style="fill: #262626" transform="translate(142.428636 284.825312)scale(0.11 -0.11)">
      <defs>
       <path id="ArialMT-49" d="M 597 0 
L 597 4581 
L 1203 4581 
L 1203 0 
L 597 0 
z
" transform="scale(0.015625)"/>
       <path id="ArialMT-6e" d="M 422 0 
L 422 3319 
L 928 3319 
L 928 2847 
Q 1294 3394 1984 3394 
Q 2284 3394 2536 3286 
Q 2788 3178 2913 3003 
Q 3038 2828 3088 2588 
Q 3119 2431 3119 2041 
L 3119 0 
L 2556 0 
L 2556 2019 
Q 2556 2363 2490 2533 
Q 2425 2703 2258 2804 
Q 2091 2906 1866 2906 
Q 1506 2906 1245 2678 
Q 984 2450 984 1813 
L 984 0 
L 422 0 
z
" transform="scale(0.015625)"/>
       <path id="ArialMT-64" d="M 2575 0 
L 2575 419 
Q 2259 -75 1647 -75 
Q 1250 -75 917 144 
Q 584 363 401 755 
Q 219 1147 219 1656 
Q 219 2153 384 2558 
Q 550 2963 881 3178 
Q 1213 3394 1622 3394 
Q 1922 3394 2156 3267 
Q 2391 3141 2538 2938 
L 2538 4581 
L 3097 4581 
L 3097 0 
L 2575 0 
z
M 797 1656 
Q 797 1019 1065 703 
Q 1334 388 1700 388 
Q 2069 388 2326 689 
Q 2584 991 2584 1609 
Q 2584 2291 2321 2609 
Q 2059 2928 1675 2928 
Q 1300 2928 1048 2622 
Q 797 2316 797 1656 
z
" transform="scale(0.015625)"/>
       <path id="ArialMT-65" d="M 2694 1069 
L 3275 997 
Q 3138 488 2766 206 
Q 2394 -75 1816 -75 
Q 1088 -75 661 373 
Q 234 822 234 1631 
Q 234 2469 665 2931 
Q 1097 3394 1784 3394 
Q 2450 3394 2872 2941 
Q 3294 2488 3294 1666 
Q 3294 1616 3291 1516 
L 816 1516 
Q 847 969 1125 678 
Q 1403 388 1819 388 
Q 2128 388 2347 550 
Q 2566 713 2694 1069 
z
M 847 1978 
L 2700 1978 
Q 2663 2397 2488 2606 
Q 2219 2931 1791 2931 
Q 1403 2931 1139 2672 
Q 875 2413 847 1978 
z
" transform="scale(0.015625)"/>
       <path id="ArialMT-78" d="M 47 0 
L 1259 1725 
L 138 3319 
L 841 3319 
L 1350 2541 
Q 1494 2319 1581 2169 
Q 1719 2375 1834 2534 
L 2394 3319 
L 3066 3319 
L 1919 1756 
L 3153 0 
L 2463 0 
L 1781 1031 
L 1600 1309 
L 728 0 
L 47 0 
z
" transform="scale(0.015625)"/>
       <path id="ArialMT-20" transform="scale(0.015625)"/>
       <path id="ArialMT-28" d="M 1497 -1347 
Q 1031 -759 709 28 
Q 388 816 388 1659 
Q 388 2403 628 3084 
Q 909 3875 1497 4659 
L 1900 4659 
Q 1522 4009 1400 3731 
Q 1209 3300 1100 2831 
Q 966 2247 966 1656 
Q 966 153 1900 -1347 
L 1497 -1347 
z
" transform="scale(0.015625)"/>
       <path id="DejaVuSans-Oblique-69" d="M 1172 4863 
L 1747 4863 
L 1606 4134 
L 1031 4134 
L 1172 4863 
z
M 909 3500 
L 1484 3500 
L 800 0 
L 225 0 
L 909 3500 
z
" transform="scale(0.015625)"/>
       <path id="ArialMT-29" d="M 791 -1347 
L 388 -1347 
Q 1322 153 1322 1656 
Q 1322 2244 1188 2822 
Q 1081 3291 891 3722 
Q 769 4003 388 4659 
L 791 4659 
Q 1378 3875 1659 3084 
Q 1900 2403 1900 1659 
Q 1900 816 1576 28 
Q 1253 -759 791 -1347 
z
" transform="scale(0.015625)"/>
      </defs>
      <use xlink:href="#ArialMT-49" transform="translate(0 0.015625)"/>
      <use xlink:href="#ArialMT-6e" transform="translate(27.783203 0.015625)"/>
      <use xlink:href="#ArialMT-64" transform="translate(83.398438 0.015625)"/>
      <use xlink:href="#ArialMT-65" transform="translate(139.013672 0.015625)"/>
      <use xlink:href="#ArialMT-78" transform="translate(194.628906 0.015625)"/>
      <use xlink:href="#ArialMT-20" transform="translate(244.628906 0.015625)"/>
      <use xlink:href="#ArialMT-28" transform="translate(272.412109 0.015625)"/>
      <use xlink:href="#DejaVuSans-Oblique-69" transform="translate(305.712891 0.015625)"/>
      <use xlink:href="#ArialMT-29" transform="translate(333.496094 0.015625)"/>
     </g>
    </g>
   </g>
   <g id="matplotlib.axis_2">
    <g id="ytick_1">
     <g id="line2d_19">
      <path d="M 67.5 256.32 
L 257.727273 256.32 
" clip-path="url(#p6dbb3272e9)" style="fill: none; stroke: #ffffff; stroke-linecap: round"/>
     </g>
     <g id="line2d_20"/>
     <g id="text_11">
      <!-- 0.0 -->
      <g style="fill: #262626" transform="translate(46.6 259.898906)scale(0.1 -0.1)">
       <defs>
        <path id="ArialMT-30" d="M 266 2259 
Q 266 3072 433 3567 
Q 600 4063 929 4331 
Q 1259 4600 1759 4600 
Q 2128 4600 2406 4451 
Q 2684 4303 2865 4023 
Q 3047 3744 3150 3342 
Q 3253 2941 3253 2259 
Q 3253 1453 3087 958 
Q 2922 463 2592 192 
Q 2263 -78 1759 -78 
Q 1097 -78 719 397 
Q 266 969 266 2259 
z
M 844 2259 
Q 844 1131 1108 757 
Q 1372 384 1759 384 
Q 2147 384 2411 759 
Q 2675 1134 2675 2259 
Q 2675 3391 2411 3762 
Q 2147 4134 1753 4134 
Q 1366 4134 1134 3806 
Q 844 3388 844 2259 
z
" transform="scale(0.015625)"/>
        <path id="ArialMT-2e" d="M 581 0 
L 581 641 
L 1222 641 
L 1222 0 
L 581 0 
z
" transform="scale(0.015625)"/>
       </defs>
       <use xlink:href="#ArialMT-30"/>
       <use xlink:href="#ArialMT-2e" x="55.615234"/>
       <use xlink:href="#ArialMT-30" x="83.398438"/>
      </g>
     </g>
    </g>
    <g id="ytick_2">
     <g id="line2d_21">
      <path d="M 67.5 234.144 
L 257.727273 234.144 
" clip-path="url(#p6dbb3272e9)" style="fill: none; stroke: #ffffff; stroke-linecap: round"/>
     </g>
     <g id="line2d_22"/>
     <g id="text_12">
      <!-- 0.1 -->
      <g style="fill: #262626" transform="translate(46.6 237.722906)scale(0.1 -0.1)">
       <use xlink:href="#ArialMT-30"/>
       <use xlink:href="#ArialMT-2e" x="55.615234"/>
       <use xlink:href="#ArialMT-31" x="83.398438"/>
      </g>
     </g>
    </g>
    <g id="ytick_3">
     <g id="line2d_23">
      <path d="M 67.5 211.968 
L 257.727273 211.968 
" clip-path="url(#p6dbb3272e9)" style="fill: none; stroke: #ffffff; stroke-linecap: round"/>
     </g>
     <g id="line2d_24"/>
     <g id="text_13">
      <!-- 0.2 -->
      <g style="fill: #262626" transform="translate(46.6 215.546906)scale(0.1 -0.1)">
       <defs>
        <path id="ArialMT-32" d="M 3222 541 
L 3222 0 
L 194 0 
Q 188 203 259 391 
Q 375 700 629 1000 
Q 884 1300 1366 1694 
Q 2113 2306 2375 2664 
Q 2638 3022 2638 3341 
Q 2638 3675 2398 3904 
Q 2159 4134 1775 4134 
Q 1369 4134 1125 3890 
Q 881 3647 878 3216 
L 300 3275 
Q 359 3922 746 4261 
Q 1134 4600 1788 4600 
Q 2447 4600 2831 4234 
Q 3216 3869 3216 3328 
Q 3216 3053 3103 2787 
Q 2991 2522 2730 2228 
Q 2469 1934 1863 1422 
Q 1356 997 1212 845 
Q 1069 694 975 541 
L 3222 541 
z
" transform="scale(0.015625)"/>
       </defs>
       <use xlink:href="#ArialMT-30"/>
       <use xlink:href="#ArialMT-2e" x="55.615234"/>
       <use xlink:href="#ArialMT-32" x="83.398438"/>
      </g>
     </g>
    </g>
    <g id="ytick_4">
     <g id="line2d_25">
      <path d="M 67.5 189.792 
L 257.727273 189.792 
" clip-path="url(#p6dbb3272e9)" style="fill: none; stroke: #ffffff; stroke-linecap: round"/>
     </g>
     <g id="line2d_26"/>
     <g id="text_14">
      <!-- 0.3 -->
      <g style="fill: #262626" transform="translate(46.6 193.370906)scale(0.1 -0.1)">
       <use xlink:href="#ArialMT-30"/>
       <use xlink:href="#ArialMT-2e" x="55.615234"/>
       <use xlink:href="#ArialMT-33" x="83.398438"/>
      </g>
     </g>
    </g>
    <g id="ytick_5">
     <g id="line2d_27">
      <path d="M 67.5 167.616 
L 257.727273 167.616 
" clip-path="url(#p6dbb3272e9)" style="fill: none; stroke: #ffffff; stroke-linecap: round"/>
     </g>
     <g id="line2d_28"/>
     <g id="text_15">
      <!-- 0.4 -->
      <g style="fill: #262626" transform="translate(46.6 171.194906)scale(0.1 -0.1)">
       <defs>
        <path id="ArialMT-34" d="M 2069 0 
L 2069 1097 
L 81 1097 
L 81 1613 
L 2172 4581 
L 2631 4581 
L 2631 1613 
L 3250 1613 
L 3250 1097 
L 2631 1097 
L 2631 0 
L 2069 0 
z
M 2069 1613 
L 2069 3678 
L 634 1613 
L 2069 1613 
z
" transform="scale(0.015625)"/>
       </defs>
       <use xlink:href="#ArialMT-30"/>
       <use xlink:href="#ArialMT-2e" x="55.615234"/>
       <use xlink:href="#ArialMT-34" x="83.398438"/>
      </g>
     </g>
    </g>
    <g id="ytick_6">
     <g id="line2d_29">
      <path d="M 67.5 145.44 
L 257.727273 145.44 
" clip-path="url(#p6dbb3272e9)" style="fill: none; stroke: #ffffff; stroke-linecap: round"/>
     </g>
     <g id="line2d_30"/>
     <g id="text_16">
      <!-- 0.5 -->
      <g style="fill: #262626" transform="translate(46.6 149.018906)scale(0.1 -0.1)">
       <use xlink:href="#ArialMT-30"/>
       <use xlink:href="#ArialMT-2e" x="55.615234"/>
       <use xlink:href="#ArialMT-35" x="83.398438"/>
      </g>
     </g>
    </g>
    <g id="ytick_7">
     <g id="line2d_31">
      <path d="M 67.5 123.264 
L 257.727273 123.264 
" clip-path="url(#p6dbb3272e9)" style="fill: none; stroke: #ffffff; stroke-linecap: round"/>
     </g>
     <g id="line2d_32"/>
     <g id="text_17">
      <!-- 0.6 -->
      <g style="fill: #262626" transform="translate(46.6 126.842906)scale(0.1 -0.1)">
       <defs>
        <path id="ArialMT-36" d="M 3184 3459 
L 2625 3416 
Q 2550 3747 2413 3897 
Q 2184 4138 1850 4138 
Q 1581 4138 1378 3988 
Q 1113 3794 959 3422 
Q 806 3050 800 2363 
Q 1003 2672 1297 2822 
Q 1591 2972 1913 2972 
Q 2475 2972 2870 2558 
Q 3266 2144 3266 1488 
Q 3266 1056 3080 686 
Q 2894 316 2569 119 
Q 2244 -78 1831 -78 
Q 1128 -78 684 439 
Q 241 956 241 2144 
Q 241 3472 731 4075 
Q 1159 4600 1884 4600 
Q 2425 4600 2770 4297 
Q 3116 3994 3184 3459 
z
M 888 1484 
Q 888 1194 1011 928 
Q 1134 663 1356 523 
Q 1578 384 1822 384 
Q 2178 384 2434 671 
Q 2691 959 2691 1453 
Q 2691 1928 2437 2201 
Q 2184 2475 1800 2475 
Q 1419 2475 1153 2201 
Q 888 1928 888 1484 
z
" transform="scale(0.015625)"/>
       </defs>
       <use xlink:href="#ArialMT-30"/>
       <use xlink:href="#ArialMT-2e" x="55.615234"/>
       <use xlink:href="#ArialMT-36" x="83.398438"/>
      </g>
     </g>
    </g>
    <g id="ytick_8">
     <g id="line2d_33">
      <path d="M 67.5 101.088 
L 257.727273 101.088 
" clip-path="url(#p6dbb3272e9)" style="fill: none; stroke: #ffffff; stroke-linecap: round"/>
     </g>
     <g id="line2d_34"/>
     <g id="text_18">
      <!-- 0.7 -->
      <g style="fill: #262626" transform="translate(46.6 104.666906)scale(0.1 -0.1)">
       <use xlink:href="#ArialMT-30"/>
       <use xlink:href="#ArialMT-2e" x="55.615234"/>
       <use xlink:href="#ArialMT-37" x="83.398438"/>
      </g>
     </g>
    </g>
    <g id="ytick_9">
     <g id="line2d_35">
      <path d="M 67.5 78.912 
L 257.727273 78.912 
" clip-path="url(#p6dbb3272e9)" style="fill: none; stroke: #ffffff; stroke-linecap: round"/>
     </g>
     <g id="line2d_36"/>
     <g id="text_19">
      <!-- 0.8 -->
      <g style="fill: #262626" transform="translate(46.6 82.490906)scale(0.1 -0.1)">
       <defs>
        <path id="ArialMT-38" d="M 1131 2484 
Q 781 2613 612 2850 
Q 444 3088 444 3419 
Q 444 3919 803 4259 
Q 1163 4600 1759 4600 
Q 2359 4600 2725 4251 
Q 3091 3903 3091 3403 
Q 3091 3084 2923 2848 
Q 2756 2613 2416 2484 
Q 2838 2347 3058 2040 
Q 3278 1734 3278 1309 
Q 3278 722 2862 322 
Q 2447 -78 1769 -78 
Q 1091 -78 675 323 
Q 259 725 259 1325 
Q 259 1772 486 2073 
Q 713 2375 1131 2484 
z
M 1019 3438 
Q 1019 3113 1228 2906 
Q 1438 2700 1772 2700 
Q 2097 2700 2305 2904 
Q 2513 3109 2513 3406 
Q 2513 3716 2298 3927 
Q 2084 4138 1766 4138 
Q 1444 4138 1231 3931 
Q 1019 3725 1019 3438 
z
M 838 1322 
Q 838 1081 952 856 
Q 1066 631 1291 507 
Q 1516 384 1775 384 
Q 2178 384 2440 643 
Q 2703 903 2703 1303 
Q 2703 1709 2433 1975 
Q 2163 2241 1756 2241 
Q 1359 2241 1098 1978 
Q 838 1716 838 1322 
z
" transform="scale(0.015625)"/>
       </defs>
       <use xlink:href="#ArialMT-30"/>
       <use xlink:href="#ArialMT-2e" x="55.615234"/>
       <use xlink:href="#ArialMT-38" x="83.398438"/>
      </g>
     </g>
    </g>
    <g id="ytick_10">
     <g id="line2d_37">
      <path d="M 67.5 56.736 
L 257.727273 56.736 
" clip-path="url(#p6dbb3272e9)" style="fill: none; stroke: #ffffff; stroke-linecap: round"/>
     </g>
     <g id="line2d_38"/>
     <g id="text_20">
      <!-- 0.9 -->
      <g style="fill: #262626" transform="translate(46.6 60.314906)scale(0.1 -0.1)">
       <use xlink:href="#ArialMT-30"/>
       <use xlink:href="#ArialMT-2e" x="55.615234"/>
       <use xlink:href="#ArialMT-39" x="83.398438"/>
      </g>
     </g>
    </g>
    <g id="text_21">
     <!-- Uncorrected p-value -->
     <g style="fill: #262626" transform="translate(40.41375 194.960625)rotate(-90)scale(0.11 -0.11)">
      <defs>
       <path id="ArialMT-55" d="M 3500 4581 
L 4106 4581 
L 4106 1934 
Q 4106 1244 3950 837 
Q 3794 431 3386 176 
Q 2978 -78 2316 -78 
Q 1672 -78 1262 144 
Q 853 366 678 786 
Q 503 1206 503 1934 
L 503 4581 
L 1109 4581 
L 1109 1938 
Q 1109 1341 1220 1058 
Q 1331 775 1601 622 
Q 1872 469 2263 469 
Q 2931 469 3215 772 
Q 3500 1075 3500 1938 
L 3500 4581 
z
" transform="scale(0.015625)"/>
       <path id="ArialMT-63" d="M 2588 1216 
L 3141 1144 
Q 3050 572 2676 248 
Q 2303 -75 1759 -75 
Q 1078 -75 664 370 
Q 250 816 250 1647 
Q 250 2184 428 2587 
Q 606 2991 970 3192 
Q 1334 3394 1763 3394 
Q 2303 3394 2647 3120 
Q 2991 2847 3088 2344 
L 2541 2259 
Q 2463 2594 2264 2762 
Q 2066 2931 1784 2931 
Q 1359 2931 1093 2626 
Q 828 2322 828 1663 
Q 828 994 1084 691 
Q 1341 388 1753 388 
Q 2084 388 2306 591 
Q 2528 794 2588 1216 
z
" transform="scale(0.015625)"/>
       <path id="ArialMT-6f" d="M 213 1659 
Q 213 2581 725 3025 
Q 1153 3394 1769 3394 
Q 2453 3394 2887 2945 
Q 3322 2497 3322 1706 
Q 3322 1066 3130 698 
Q 2938 331 2570 128 
Q 2203 -75 1769 -75 
Q 1072 -75 642 372 
Q 213 819 213 1659 
z
M 791 1659 
Q 791 1022 1069 705 
Q 1347 388 1769 388 
Q 2188 388 2466 706 
Q 2744 1025 2744 1678 
Q 2744 2294 2464 2611 
Q 2184 2928 1769 2928 
Q 1347 2928 1069 2612 
Q 791 2297 791 1659 
z
" transform="scale(0.015625)"/>
       <path id="ArialMT-72" d="M 416 0 
L 416 3319 
L 922 3319 
L 922 2816 
Q 1116 3169 1280 3281 
Q 1444 3394 1641 3394 
Q 1925 3394 2219 3213 
L 2025 2691 
Q 1819 2813 1613 2813 
Q 1428 2813 1281 2702 
Q 1134 2591 1072 2394 
Q 978 2094 978 1738 
L 978 0 
L 416 0 
z
" transform="scale(0.015625)"/>
       <path id="ArialMT-74" d="M 1650 503 
L 1731 6 
Q 1494 -44 1306 -44 
Q 1000 -44 831 53 
Q 663 150 594 308 
Q 525 466 525 972 
L 525 2881 
L 113 2881 
L 113 3319 
L 525 3319 
L 525 4141 
L 1084 4478 
L 1084 3319 
L 1650 3319 
L 1650 2881 
L 1084 2881 
L 1084 941 
Q 1084 700 1114 631 
Q 1144 563 1211 522 
Q 1278 481 1403 481 
Q 1497 481 1650 503 
z
" transform="scale(0.015625)"/>
       <path id="ArialMT-70" d="M 422 -1272 
L 422 3319 
L 934 3319 
L 934 2888 
Q 1116 3141 1344 3267 
Q 1572 3394 1897 3394 
Q 2322 3394 2647 3175 
Q 2972 2956 3137 2557 
Q 3303 2159 3303 1684 
Q 3303 1175 3120 767 
Q 2938 359 2589 142 
Q 2241 -75 1856 -75 
Q 1575 -75 1351 44 
Q 1128 163 984 344 
L 984 -1272 
L 422 -1272 
z
M 931 1641 
Q 931 1000 1190 694 
Q 1450 388 1819 388 
Q 2194 388 2461 705 
Q 2728 1022 2728 1688 
Q 2728 2322 2467 2637 
Q 2206 2953 1844 2953 
Q 1484 2953 1207 2617 
Q 931 2281 931 1641 
z
" transform="scale(0.015625)"/>
       <path id="ArialMT-2d" d="M 203 1375 
L 203 1941 
L 1931 1941 
L 1931 1375 
L 203 1375 
z
" transform="scale(0.015625)"/>
       <path id="ArialMT-76" d="M 1344 0 
L 81 3319 
L 675 3319 
L 1388 1331 
Q 1503 1009 1600 663 
Q 1675 925 1809 1294 
L 2547 3319 
L 3125 3319 
L 1869 0 
L 1344 0 
z
" transform="scale(0.015625)"/>
       <path id="ArialMT-61" d="M 2588 409 
Q 2275 144 1986 34 
Q 1697 -75 1366 -75 
Q 819 -75 525 192 
Q 231 459 231 875 
Q 231 1119 342 1320 
Q 453 1522 633 1644 
Q 813 1766 1038 1828 
Q 1203 1872 1538 1913 
Q 2219 1994 2541 2106 
Q 2544 2222 2544 2253 
Q 2544 2597 2384 2738 
Q 2169 2928 1744 2928 
Q 1347 2928 1158 2789 
Q 969 2650 878 2297 
L 328 2372 
Q 403 2725 575 2942 
Q 747 3159 1072 3276 
Q 1397 3394 1825 3394 
Q 2250 3394 2515 3294 
Q 2781 3194 2906 3042 
Q 3031 2891 3081 2659 
Q 3109 2516 3109 2141 
L 3109 1391 
Q 3109 606 3145 398 
Q 3181 191 3288 0 
L 2700 0 
Q 2613 175 2588 409 
z
M 2541 1666 
Q 2234 1541 1622 1453 
Q 1275 1403 1131 1340 
Q 988 1278 909 1158 
Q 831 1038 831 891 
Q 831 666 1001 516 
Q 1172 366 1500 366 
Q 1825 366 2078 508 
Q 2331 650 2450 897 
Q 2541 1088 2541 1459 
L 2541 1666 
z
" transform="scale(0.015625)"/>
       <path id="ArialMT-6c" d="M 409 0 
L 409 4581 
L 972 4581 
L 972 0 
L 409 0 
z
" transform="scale(0.015625)"/>
       <path id="ArialMT-75" d="M 2597 0 
L 2597 488 
Q 2209 -75 1544 -75 
Q 1250 -75 995 37 
Q 741 150 617 320 
Q 494 491 444 738 
Q 409 903 409 1263 
L 409 3319 
L 972 3319 
L 972 1478 
Q 972 1038 1006 884 
Q 1059 663 1231 536 
Q 1403 409 1656 409 
Q 1909 409 2131 539 
Q 2353 669 2445 892 
Q 2538 1116 2538 1541 
L 2538 3319 
L 3100 3319 
L 3100 0 
L 2597 0 
z
" transform="scale(0.015625)"/>
      </defs>
      <use xlink:href="#ArialMT-55"/>
      <use xlink:href="#ArialMT-6e" x="72.216797"/>
      <use xlink:href="#ArialMT-63" x="127.832031"/>
      <use xlink:href="#ArialMT-6f" x="177.832031"/>
      <use xlink:href="#ArialMT-72" x="233.447266"/>
      <use xlink:href="#ArialMT-72" x="266.748047"/>
      <use xlink:href="#ArialMT-65" x="300.048828"/>
      <use xlink:href="#ArialMT-63" x="355.664062"/>
      <use xlink:href="#ArialMT-74" x="405.664062"/>
      <use xlink:href="#ArialMT-65" x="433.447266"/>
      <use xlink:href="#ArialMT-64" x="489.0625"/>
      <use xlink:href="#ArialMT-20" x="544.677734"/>
      <use xlink:href="#ArialMT-70" x="572.460938"/>
      <use xlink:href="#ArialMT-2d" x="628.076172"/>
      <use xlink:href="#ArialMT-76" x="661.376953"/>
      <use xlink:href="#ArialMT-61" x="711.376953"/>
      <use xlink:href="#ArialMT-6c" x="766.992188"/>
      <use xlink:href="#ArialMT-75" x="789.208984"/>
      <use xlink:href="#ArialMT-65" x="844.824219"/>
     </g>
    </g>
   </g>
   <g id="line2d_39">
    <path d="M 67.5 256.32 
L 78.068182 253.711059 
L 88.636364 251.102118 
L 99.204545 248.493176 
L 109.772727 245.884235 
L 120.340909 243.275294 
L 130.909091 240.666353 
L 141.477273 238.057412 
L 152.045455 235.448471 
L 162.613636 232.839529 
L 173.181818 230.230588 
L 183.75 227.621647 
L 194.318182 225.012706 
L 204.886364 222.403765 
L 215.454545 219.794824 
L 226.022727 217.185882 
L 236.590909 214.576941 
L 247.159091 211.968 
L 257.727273 209.359059 
" clip-path="url(#p6dbb3272e9)" style="fill: none; stroke: #7436b2; stroke-width: 2; stroke-linecap: round"/>
   </g>
   <g id="PathCollection_1">
    <defs>
     <path id="m0281f916e5" d="M -3.5 3.5 
L 3.5 -3.5 
M -3.5 -3.5 
L 3.5 3.5 
" style="stroke: #000000"/>
    </defs>
    <g>
     <use xlink:href="#m0281f916e5" x="78.068182" y="255.743424" style="stroke: #000000"/>
     <use xlink:href="#m0281f916e5" x="88.636364" y="254.1024" style="stroke: #000000"/>
     <use xlink:href="#m0281f916e5" x="99.204545" y="253.21536" style="stroke: #000000"/>
     <use xlink:href="#m0281f916e5" x="109.772727" y="250.776" style="stroke: #000000"/>
     <use xlink:href="#m0281f916e5" x="120.340909" y="247.00608" style="stroke: #000000"/>
     <use xlink:href="#m0281f916e5" x="130.909091" y="241.68384" style="stroke: #000000"/>
     <use xlink:href="#m0281f916e5" x="141.477273" y="234.144" style="stroke: #000000"/>
     <use xlink:href="#m0281f916e5" x="152.045455" y="229.7088" style="stroke: #000000"/>
     <use xlink:href="#m0281f916e5" x="162.613636" y="218.6208" style="stroke: #000000"/>
     <use xlink:href="#m0281f916e5" x="173.181818" y="194.2272" style="stroke: #000000"/>
     <use xlink:href="#m0281f916e5" x="183.75" y="176.4864" style="stroke: #000000"/>
     <use xlink:href="#m0281f916e5" x="194.318182" y="140.11776" style="stroke: #000000"/>
     <use xlink:href="#m0281f916e5" x="204.886364" y="121.0464" style="stroke: #000000"/>
     <use xlink:href="#m0281f916e5" x="215.454545" y="105.5232" style="stroke: #000000"/>
     <use xlink:href="#m0281f916e5" x="226.022727" y="83.3472" style="stroke: #000000"/>
     <use xlink:href="#m0281f916e5" x="236.590909" y="56.736" style="stroke: #000000"/>
     <use xlink:href="#m0281f916e5" x="247.159091" y="43.4304" style="stroke: #000000"/>
    </g>
   </g>
   <g id="patch_3">
    <path d="M 67.5 256.32 
L 67.5 34.56 
" style="fill: none"/>
   </g>
   <g id="patch_4">
    <path d="M 257.727273 256.32 
L 257.727273 34.56 
" style="fill: none"/>
   </g>
   <g id="patch_5">
    <path d="M 67.5 256.32 
L 257.727273 256.32 
" style="fill: none"/>
   </g>
   <g id="patch_6">
    <path d="M 67.5 34.56 
L 257.727273 34.56 
" style="fill: none"/>
   </g>
   <g id="PathCollection_2">
    <defs>
     <path id="C0_0_df384044fb" d="M 0 3.5 
C 0.928211 3.5 1.81853 3.131218 2.474874 2.474874 
C 3.131218 1.81853 3.5 0.928211 3.5 -0 
C 3.5 -0.928211 3.131218 -1.81853 2.474874 -2.474874 
C 1.81853 -3.131218 0.928211 -3.5 0 -3.5 
C -0.928211 -3.5 -1.81853 -3.131218 -2.474874 -2.474874 
C -3.131218 -1.81853 -3.5 -0.928211 -3.5 0 
C -3.5 0.928211 -3.131218 1.81853 -2.474874 2.474874 
C -1.81853 3.131218 -0.928211 3.5 0 3.5 
z
"/>
    </defs>
    <use xlink:href="#C0_0_df384044fb" x="78.068182" y="255.743424" style="fill: none; stroke: #000000"/>
    <use xlink:href="#C0_0_df384044fb" x="88.636364" y="254.1024" style="fill: none; stroke: #000000"/>
    <use xlink:href="#C0_0_df384044fb" x="99.204545" y="253.21536" style="fill: none; stroke: #000000"/>
    <use xlink:href="#C0_0_df384044fb" x="109.772727" y="250.776" style="fill: none; stroke: #000000"/>
    <use xlink:href="#C0_0_df384044fb" x="120.340909" y="247.00608" style="fill: none; stroke: #000000"/>
    <use xlink:href="#C0_0_df384044fb" x="130.909091" y="241.68384" style="fill: none; stroke: #000000"/>
   </g>
   <g id="text_22">
    <!-- BH -->
    <g style="fill: #262626" transform="translate(154.278324 28.56)scale(0.12 -0.12)">
     <defs>
      <path id="ArialMT-42" d="M 469 0 
L 469 4581 
L 2188 4581 
Q 2713 4581 3030 4442 
Q 3347 4303 3526 4014 
Q 3706 3725 3706 3409 
Q 3706 3116 3547 2856 
Q 3388 2597 3066 2438 
Q 3481 2316 3704 2022 
Q 3928 1728 3928 1328 
Q 3928 1006 3792 729 
Q 3656 453 3456 303 
Q 3256 153 2954 76 
Q 2653 0 2216 0 
L 469 0 
z
M 1075 2656 
L 2066 2656 
Q 2469 2656 2644 2709 
Q 2875 2778 2992 2937 
Q 3109 3097 3109 3338 
Q 3109 3566 3000 3739 
Q 2891 3913 2687 3977 
Q 2484 4041 1991 4041 
L 1075 4041 
L 1075 2656 
z
M 1075 541 
L 2216 541 
Q 2509 541 2628 563 
Q 2838 600 2978 687 
Q 3119 775 3209 942 
Q 3300 1109 3300 1328 
Q 3300 1584 3169 1773 
Q 3038 1963 2805 2039 
Q 2572 2116 2134 2116 
L 1075 2116 
L 1075 541 
z
" transform="scale(0.015625)"/>
      <path id="ArialMT-48" d="M 513 0 
L 513 4581 
L 1119 4581 
L 1119 2700 
L 3500 2700 
L 3500 4581 
L 4106 4581 
L 4106 0 
L 3500 0 
L 3500 2159 
L 1119 2159 
L 1119 0 
L 513 0 
z
" transform="scale(0.015625)"/>
     </defs>
     <use xlink:href="#ArialMT-42"/>
     <use xlink:href="#ArialMT-48" x="66.699219"/>
    </g>
   </g>
  </g>
  <g id="axes_2">
   <g id="patch_7">
    <path d="M 295.772727 256.32 
L 486 256.32 
L 486 34.56 
L 295.772727 34.56 
z
" style="fill: #eaeaf2"/>
   </g>
   <g id="matplotlib.axis_3">
    <g id="xtick_10">
     <g id="line2d_40">
      <path d="M 306.340909 256.32 
L 306.340909 34.56 
" clip-path="url(#p8a7ba08ba2)" style="fill: none; stroke: #ffffff; stroke-linecap: round"/>
     </g>
     <g id="line2d_41"/>
     <g id="text_23">
      <!-- 1 -->
      <g style="fill: #262626" transform="translate(303.56044 270.477813)scale(0.1 -0.1)">
       <use xlink:href="#ArialMT-31"/>
      </g>
     </g>
    </g>
    <g id="xtick_11">
     <g id="line2d_42">
      <path d="M 327.477273 256.32 
L 327.477273 34.56 
" clip-path="url(#p8a7ba08ba2)" style="fill: none; stroke: #ffffff; stroke-linecap: round"/>
     </g>
     <g id="line2d_43"/>
     <g id="text_24">
      <!-- 3 -->
      <g style="fill: #262626" transform="translate(324.696804 270.477813)scale(0.1 -0.1)">
       <use xlink:href="#ArialMT-33"/>
      </g>
     </g>
    </g>
    <g id="xtick_12">
     <g id="line2d_44">
      <path d="M 348.613636 256.32 
L 348.613636 34.56 
" clip-path="url(#p8a7ba08ba2)" style="fill: none; stroke: #ffffff; stroke-linecap: round"/>
     </g>
     <g id="line2d_45"/>
     <g id="text_25">
      <!-- 5 -->
      <g style="fill: #262626" transform="translate(345.833168 270.477813)scale(0.1 -0.1)">
       <use xlink:href="#ArialMT-35"/>
      </g>
     </g>
    </g>
    <g id="xtick_13">
     <g id="line2d_46">
      <path d="M 369.75 256.32 
L 369.75 34.56 
" clip-path="url(#p8a7ba08ba2)" style="fill: none; stroke: #ffffff; stroke-linecap: round"/>
     </g>
     <g id="line2d_47"/>
     <g id="text_26">
      <!-- 7 -->
      <g style="fill: #262626" transform="translate(366.969531 270.477813)scale(0.1 -0.1)">
       <use xlink:href="#ArialMT-37"/>
      </g>
     </g>
    </g>
    <g id="xtick_14">
     <g id="line2d_48">
      <path d="M 390.886364 256.32 
L 390.886364 34.56 
" clip-path="url(#p8a7ba08ba2)" style="fill: none; stroke: #ffffff; stroke-linecap: round"/>
     </g>
     <g id="line2d_49"/>
     <g id="text_27">
      <!-- 9 -->
      <g style="fill: #262626" transform="translate(388.105895 270.477813)scale(0.1 -0.1)">
       <use xlink:href="#ArialMT-39"/>
      </g>
     </g>
    </g>
    <g id="xtick_15">
     <g id="line2d_50">
      <path d="M 412.022727 256.32 
L 412.022727 34.56 
" clip-path="url(#p8a7ba08ba2)" style="fill: none; stroke: #ffffff; stroke-linecap: round"/>
     </g>
     <g id="line2d_51"/>
     <g id="text_28">
      <!-- 11 -->
      <g style="fill: #262626" transform="translate(406.83054 270.477813)scale(0.1 -0.1)">
       <use xlink:href="#ArialMT-31"/>
       <use xlink:href="#ArialMT-31" x="48.240234"/>
      </g>
     </g>
    </g>
    <g id="xtick_16">
     <g id="line2d_52">
      <path d="M 433.159091 256.32 
L 433.159091 34.56 
" clip-path="url(#p8a7ba08ba2)" style="fill: none; stroke: #ffffff; stroke-linecap: round"/>
     </g>
     <g id="line2d_53"/>
     <g id="text_29">
      <!-- 13 -->
      <g style="fill: #262626" transform="translate(427.598153 270.477813)scale(0.1 -0.1)">
       <use xlink:href="#ArialMT-31"/>
       <use xlink:href="#ArialMT-33" x="55.615234"/>
      </g>
     </g>
    </g>
    <g id="xtick_17">
     <g id="line2d_54">
      <path d="M 454.295455 256.32 
L 454.295455 34.56 
" clip-path="url(#p8a7ba08ba2)" style="fill: none; stroke: #ffffff; stroke-linecap: round"/>
     </g>
     <g id="line2d_55"/>
     <g id="text_30">
      <!-- 15 -->
      <g style="fill: #262626" transform="translate(448.734517 270.477813)scale(0.1 -0.1)">
       <use xlink:href="#ArialMT-31"/>
       <use xlink:href="#ArialMT-35" x="55.615234"/>
      </g>
     </g>
    </g>
    <g id="xtick_18">
     <g id="line2d_56">
      <path d="M 475.431818 256.32 
L 475.431818 34.56 
" clip-path="url(#p8a7ba08ba2)" style="fill: none; stroke: #ffffff; stroke-linecap: round"/>
     </g>
     <g id="line2d_57"/>
     <g id="text_31">
      <!-- 17 -->
      <g style="fill: #262626" transform="translate(469.870881 270.477813)scale(0.1 -0.1)">
       <use xlink:href="#ArialMT-31"/>
       <use xlink:href="#ArialMT-37" x="55.615234"/>
      </g>
     </g>
    </g>
    <g id="text_32">
     <!-- Index ($i$) -->
     <g style="fill: #262626" transform="translate(370.701364 284.825312)scale(0.11 -0.11)">
      <use xlink:href="#ArialMT-49" transform="translate(0 0.015625)"/>
      <use xlink:href="#ArialMT-6e" transform="translate(27.783203 0.015625)"/>
      <use xlink:href="#ArialMT-64" transform="translate(83.398438 0.015625)"/>
      <use xlink:href="#ArialMT-65" transform="translate(139.013672 0.015625)"/>
      <use xlink:href="#ArialMT-78" transform="translate(194.628906 0.015625)"/>
      <use xlink:href="#ArialMT-20" transform="translate(244.628906 0.015625)"/>
      <use xlink:href="#ArialMT-28" transform="translate(272.412109 0.015625)"/>
      <use xlink:href="#DejaVuSans-Oblique-69" transform="translate(305.712891 0.015625)"/>
      <use xlink:href="#ArialMT-29" transform="translate(333.496094 0.015625)"/>
     </g>
    </g>
   </g>
   <g id="matplotlib.axis_4">
    <g id="ytick_11">
     <g id="line2d_58">
      <path d="M 295.772727 256.32 
L 486 256.32 
" clip-path="url(#p8a7ba08ba2)" style="fill: none; stroke: #ffffff; stroke-linecap: round"/>
     </g>
     <g id="line2d_59"/>
    </g>
    <g id="ytick_12">
     <g id="line2d_60">
      <path d="M 295.772727 234.144 
L 486 234.144 
" clip-path="url(#p8a7ba08ba2)" style="fill: none; stroke: #ffffff; stroke-linecap: round"/>
     </g>
     <g id="line2d_61"/>
    </g>
    <g id="ytick_13">
     <g id="line2d_62">
      <path d="M 295.772727 211.968 
L 486 211.968 
" clip-path="url(#p8a7ba08ba2)" style="fill: none; stroke: #ffffff; stroke-linecap: round"/>
     </g>
     <g id="line2d_63"/>
    </g>
    <g id="ytick_14">
     <g id="line2d_64">
      <path d="M 295.772727 189.792 
L 486 189.792 
" clip-path="url(#p8a7ba08ba2)" style="fill: none; stroke: #ffffff; stroke-linecap: round"/>
     </g>
     <g id="line2d_65"/>
    </g>
    <g id="ytick_15">
     <g id="line2d_66">
      <path d="M 295.772727 167.616 
L 486 167.616 
" clip-path="url(#p8a7ba08ba2)" style="fill: none; stroke: #ffffff; stroke-linecap: round"/>
     </g>
     <g id="line2d_67"/>
    </g>
    <g id="ytick_16">
     <g id="line2d_68">
      <path d="M 295.772727 145.44 
L 486 145.44 
" clip-path="url(#p8a7ba08ba2)" style="fill: none; stroke: #ffffff; stroke-linecap: round"/>
     </g>
     <g id="line2d_69"/>
    </g>
    <g id="ytick_17">
     <g id="line2d_70">
      <path d="M 295.772727 123.264 
L 486 123.264 
" clip-path="url(#p8a7ba08ba2)" style="fill: none; stroke: #ffffff; stroke-linecap: round"/>
     </g>
     <g id="line2d_71"/>
    </g>
    <g id="ytick_18">
     <g id="line2d_72">
      <path d="M 295.772727 101.088 
L 486 101.088 
" clip-path="url(#p8a7ba08ba2)" style="fill: none; stroke: #ffffff; stroke-linecap: round"/>
     </g>
     <g id="line2d_73"/>
    </g>
    <g id="ytick_19">
     <g id="line2d_74">
      <path d="M 295.772727 78.912 
L 486 78.912 
" clip-path="url(#p8a7ba08ba2)" style="fill: none; stroke: #ffffff; stroke-linecap: round"/>
     </g>
     <g id="line2d_75"/>
    </g>
    <g id="ytick_20">
     <g id="line2d_76">
      <path d="M 295.772727 56.736 
L 486 56.736 
" clip-path="url(#p8a7ba08ba2)" style="fill: none; stroke: #ffffff; stroke-linecap: round"/>
     </g>
     <g id="line2d_77"/>
    </g>
   </g>
   <g id="line2d_78">
    <path d="M 295.772727 256.32 
L 306.340909 246.24 
L 316.909091 236.16 
L 327.477273 226.08 
L 338.045455 216 
L 348.613636 205.92 
L 359.181818 195.84 
L 369.75 185.76 
L 380.318182 175.68 
L 390.886364 165.6 
L 401.454545 155.52 
L 412.022727 145.44 
L 422.590909 135.36 
L 433.159091 125.28 
L 443.727273 115.2 
L 454.295455 105.12 
L 464.863636 95.04 
L 475.431818 84.96 
L 486 74.88 
" clip-path="url(#p8a7ba08ba2)" style="fill: none; stroke-dasharray: 7.4,3.2; stroke-dashoffset: 0; stroke: #b24d41; stroke-width: 2"/>
   </g>
   <g id="line2d_79">
    <path d="M 295.772727 256.32 
L 306.340909 247.790769 
L 316.909091 239.261538 
L 327.477273 230.732308 
L 338.045455 222.203077 
L 348.613636 213.673846 
L 359.181818 205.144615 
L 369.75 196.615385 
L 380.318182 188.086154 
L 390.886364 179.556923 
L 401.454545 171.027692 
L 412.022727 162.498462 
L 422.590909 153.969231 
L 433.159091 145.44 
L 443.727273 136.910769 
L 454.295455 128.381538 
L 464.863636 119.852308 
L 475.431818 111.323077 
L 486 102.793846 
" clip-path="url(#p8a7ba08ba2)" style="fill: none; stroke-dasharray: 7.4,3.2; stroke-dashoffset: 0; stroke: #b2634d; stroke-width: 2"/>
   </g>
   <g id="patch_8">
    <path d="M 295.772727 256.32 
L 295.772727 34.56 
" style="fill: none"/>
   </g>
   <g id="patch_9">
    <path d="M 486 256.32 
L 486 34.56 
" style="fill: none"/>
   </g>
   <g id="patch_10">
    <path d="M 295.772727 256.32 
L 486 256.32 
" style="fill: none"/>
   </g>
   <g id="patch_11">
    <path d="M 295.772727 34.56 
L 486 34.56 
" style="fill: none"/>
   </g>
   <g id="line2d_80">
    <path d="M 295.772727 256.32 
L 306.340909 248.928 
L 316.909091 241.536 
L 327.477273 234.144 
L 338.045455 226.752 
L 348.613636 219.36 
L 359.181818 211.968 
L 369.75 204.576 
L 380.318182 197.184 
L 390.886364 189.792 
L 401.454545 182.4 
L 412.022727 175.008 
L 422.590909 167.616 
L 433.159091 160.224 
L 443.727273 152.832 
L 454.295455 145.44 
L 464.863636 138.048 
L 475.431818 130.656 
L 486 123.264 
" clip-path="url(#p8a7ba08ba2)" style="fill: none; stroke-dasharray: 7.4,3.2; stroke-dashoffset: 0; stroke: #b27758; stroke-width: 2"/>
   </g>
   <g id="text_33">
    <!-- BKY -->
    <g style="fill: #262626" transform="translate(378.879801 28.56)scale(0.12 -0.12)">
     <defs>
      <path id="ArialMT-4b" d="M 469 0 
L 469 4581 
L 1075 4581 
L 1075 2309 
L 3350 4581 
L 4172 4581 
L 2250 2725 
L 4256 0 
L 3456 0 
L 1825 2319 
L 1075 1588 
L 1075 0 
L 469 0 
z
" transform="scale(0.015625)"/>
      <path id="ArialMT-59" d="M 1784 0 
L 1784 1941 
L 19 4581 
L 756 4581 
L 1659 3200 
Q 1909 2813 2125 2425 
Q 2331 2784 2625 3234 
L 3513 4581 
L 4219 4581 
L 2391 1941 
L 2391 0 
L 1784 0 
z
" transform="scale(0.015625)"/>
     </defs>
     <use xlink:href="#ArialMT-42"/>
     <use xlink:href="#ArialMT-4b" x="66.699219"/>
     <use xlink:href="#ArialMT-59" x="133.398438"/>
    </g>
   </g>
   <g id="line2d_81">
    <path d="M 295.772727 256.32 
L 306.340909 249.797647 
L 316.909091 243.275294 
L 327.477273 236.752941 
L 338.045455 230.230588 
L 348.613636 223.708235 
L 359.181818 217.185882 
L 369.75 210.663529 
L 380.318182 204.141176 
L 390.886364 197.618824 
L 401.454545 191.096471 
L 412.022727 184.574118 
L 422.590909 178.051765 
L 433.159091 171.529412 
L 443.727273 165.007059 
L 454.295455 158.484706 
L 464.863636 151.962353 
L 475.431818 145.44 
L 486 138.917647 
" clip-path="url(#p8a7ba08ba2)" style="fill: none; stroke-dasharray: 7.4,3.2; stroke-dashoffset: 0; stroke: #b28a63; stroke-width: 2"/>
   </g>
   <g id="line2d_82">
    <path d="M 295.772727 256.32 
L 306.340909 250.484211 
L 316.909091 244.648421 
L 327.477273 238.812632 
L 338.045455 232.976842 
L 348.613636 227.141053 
L 359.181818 221.305263 
L 369.75 215.469474 
L 380.318182 209.633684 
L 390.886364 203.797895 
L 401.454545 197.962105 
L 412.022727 192.126316 
L 422.590909 186.290526 
L 433.159091 180.454737 
L 443.727273 174.618947 
L 454.295455 168.783158 
L 464.863636 162.947368 
L 475.431818 157.111579 
L 486 151.275789 
" clip-path="url(#p8a7ba08ba2)" style="fill: none; stroke-dasharray: 7.4,3.2; stroke-dashoffset: 0; stroke: #a39569; stroke-width: 2"/>
   </g>
   <g id="line2d_83">
    <path d="M 295.772727 256.32 
L 306.340909 251.04 
L 316.909091 245.76 
L 327.477273 240.48 
L 338.045455 235.2 
L 348.613636 229.92 
L 359.181818 224.64 
L 369.75 219.36 
L 380.318182 214.08 
L 390.886364 208.8 
L 401.454545 203.52 
L 412.022727 198.24 
L 422.590909 192.96 
L 433.159091 187.68 
L 443.727273 182.4 
L 454.295455 177.12 
L 464.863636 171.84 
L 475.431818 166.56 
L 486 161.28 
" clip-path="url(#p8a7ba08ba2)" style="fill: none; stroke-dasharray: 7.4,3.2; stroke-dashoffset: 0; stroke: #93a072; stroke-width: 2"/>
   </g>
   <g id="line2d_84">
    <path d="M 295.772727 256.32 
L 306.340909 251.49913 
L 316.909091 246.678261 
L 327.477273 241.857391 
L 338.045455 237.036522 
L 348.613636 232.215652 
L 359.181818 227.394783 
L 369.75 222.573913 
L 380.318182 217.753043 
L 390.886364 212.932174 
L 401.454545 208.111304 
L 412.022727 203.290435 
L 422.590909 198.469565 
L 433.159091 193.648696 
L 443.727273 188.827826 
L 454.295455 184.006957 
L 464.863636 179.186087 
L 475.431818 174.365217 
L 486 169.544348 
" clip-path="url(#p8a7ba08ba2)" style="fill: none; stroke-dasharray: 7.4,3.2; stroke-dashoffset: 0; stroke: #88ac7f; stroke-width: 2"/>
   </g>
   <g id="line2d_85">
    <path d="M 295.772727 256.32 
L 306.340909 251.8848 
L 316.909091 247.4496 
L 327.477273 243.0144 
L 338.045455 238.5792 
L 348.613636 234.144 
L 359.181818 229.7088 
L 369.75 225.2736 
L 380.318182 220.8384 
L 390.886364 216.4032 
L 401.454545 211.968 
L 412.022727 207.5328 
L 422.590909 203.0976 
L 433.159091 198.6624 
L 443.727273 194.2272 
L 454.295455 189.792 
L 464.863636 185.3568 
L 475.431818 180.9216 
L 486 176.4864 
" clip-path="url(#p8a7ba08ba2)" style="fill: none; stroke-dasharray: 7.4,3.2; stroke-dashoffset: 0; stroke: #7bb289; stroke-width: 2"/>
   </g>
   <g id="line2d_86">
    <path d="M 295.772727 256.32 
L 306.340909 252.213333 
L 316.909091 248.106667 
L 327.477273 244 
L 338.045455 239.893333 
L 348.613636 235.786667 
L 359.181818 231.68 
L 369.75 227.573333 
L 380.318182 223.466667 
L 390.886364 219.36 
L 401.454545 215.253333 
L 412.022727 211.146667 
L 422.590909 207.04 
L 433.159091 202.933333 
L 443.727273 198.826667 
L 454.295455 194.72 
L 464.863636 190.613333 
L 475.431818 186.506667 
L 486 182.4 
" clip-path="url(#p8a7ba08ba2)" style="fill: none; stroke-dasharray: 7.4,3.2; stroke-dashoffset: 0; stroke: #6cb292; stroke-width: 2"/>
   </g>
   <g id="line2d_87">
    <path d="M 295.772727 256.32 
L 306.340909 252.496552 
L 316.909091 248.673103 
L 327.477273 244.849655 
L 338.045455 241.026207 
L 348.613636 237.202759 
L 359.181818 233.37931 
L 369.75 229.555862 
L 380.318182 225.732414 
L 390.886364 221.908966 
L 401.454545 218.085517 
L 412.022727 214.262069 
L 422.590909 210.438621 
L 433.159091 206.615172 
L 443.727273 202.791724 
L 454.295455 198.968276 
L 464.863636 195.144828 
L 475.431818 191.321379 
L 486 187.497931 
" clip-path="url(#p8a7ba08ba2)" style="fill: none; stroke: #5cac97; stroke-width: 2; stroke-linecap: round"/>
   </g>
   <g id="line2d_88">
    <path d="M 295.772727 256.32 
L 306.340909 252.743226 
L 316.909091 249.166452 
L 327.477273 245.589677 
L 338.045455 242.012903 
L 348.613636 238.436129 
L 359.181818 234.859355 
L 369.75 231.282581 
L 380.318182 227.705806 
L 390.886364 224.129032 
L 401.454545 220.552258 
L 412.022727 216.975484 
L 422.590909 213.39871 
L 433.159091 209.821935 
L 443.727273 206.245161 
L 454.295455 202.668387 
L 464.863636 199.091613 
L 475.431818 195.514839 
L 486 191.938065 
" clip-path="url(#p8a7ba08ba2)" style="fill: none; stroke: #4aa09a; stroke-width: 2; stroke-linecap: round"/>
   </g>
   <g id="line2d_89">
    <path d="M 295.772727 256.32 
L 306.340909 252.96 
L 316.909091 249.6 
L 327.477273 246.24 
L 338.045455 242.88 
L 348.613636 239.52 
L 359.181818 236.16 
L 369.75 232.8 
L 380.318182 229.44 
L 390.886364 226.08 
L 401.454545 222.72 
L 412.022727 219.36 
L 422.590909 216 
L 433.159091 212.64 
L 443.727273 209.28 
L 454.295455 205.92 
L 464.863636 202.56 
L 475.431818 199.2 
L 486 195.84 
" clip-path="url(#p8a7ba08ba2)" style="fill: none; stroke: #3b94a0; stroke-width: 2; stroke-linecap: round"/>
   </g>
   <g id="line2d_90">
    <path d="M 295.772727 256.32 
L 306.340909 253.152 
L 316.909091 249.984 
L 327.477273 246.816 
L 338.045455 243.648 
L 348.613636 240.48 
L 359.181818 237.312 
L 369.75 234.144 
L 380.318182 230.976 
L 390.886364 227.808 
L 401.454545 224.64 
L 412.022727 221.472 
L 422.590909 218.304 
L 433.159091 215.136 
L 443.727273 211.968 
L 454.295455 208.8 
L 464.863636 205.632 
L 475.431818 202.464 
L 486 199.296 
" clip-path="url(#p8a7ba08ba2)" style="fill: none; stroke: #3686a6; stroke-width: 2; stroke-linecap: round"/>
   </g>
   <g id="line2d_91">
    <path d="M 295.772727 256.32 
L 306.340909 253.323243 
L 316.909091 250.326486 
L 327.477273 247.32973 
L 338.045455 244.332973 
L 348.613636 241.336216 
L 359.181818 238.339459 
L 369.75 235.342703 
L 380.318182 232.345946 
L 390.886364 229.349189 
L 401.454545 226.352432 
L 412.022727 223.355676 
L 422.590909 220.358919 
L 433.159091 217.362162 
L 443.727273 214.365405 
L 454.295455 211.368649 
L 464.863636 208.371892 
L 475.431818 205.375135 
L 486 202.378378 
" clip-path="url(#p8a7ba08ba2)" style="fill: none; stroke: #4675ac; stroke-width: 2; stroke-linecap: round"/>
   </g>
   <g id="line2d_92">
    <path d="M 295.772727 256.32 
L 306.340909 253.476923 
L 316.909091 250.633846 
L 327.477273 247.790769 
L 338.045455 244.947692 
L 348.613636 242.104615 
L 359.181818 239.261538 
L 369.75 236.418462 
L 380.318182 233.575385 
L 390.886364 230.732308 
L 401.454545 227.889231 
L 412.022727 225.046154 
L 422.590909 222.203077 
L 433.159091 219.36 
L 443.727273 216.516923 
L 454.295455 213.673846 
L 464.863636 210.830769 
L 475.431818 207.987692 
L 486 205.144615 
" clip-path="url(#p8a7ba08ba2)" style="fill: none; stroke: #5662af; stroke-width: 2; stroke-linecap: round"/>
   </g>
   <g id="line2d_93">
    <path d="M 295.772727 256.32 
L 306.340909 253.61561 
L 316.909091 250.91122 
L 327.477273 248.206829 
L 338.045455 245.502439 
L 348.613636 242.798049 
L 359.181818 240.093659 
L 369.75 237.389268 
L 380.318182 234.684878 
L 390.886364 231.980488 
L 401.454545 229.276098 
L 412.022727 226.571707 
L 422.590909 223.867317 
L 433.159091 221.162927 
L 443.727273 218.458537 
L 454.295455 215.754146 
L 464.863636 213.049756 
L 475.431818 210.345366 
L 486 207.640976 
" clip-path="url(#p8a7ba08ba2)" style="fill: none; stroke: #654cb2; stroke-width: 2; stroke-linecap: round"/>
   </g>
   <g id="line2d_94">
    <path d="M 295.772727 256.32 
L 306.340909 253.741395 
L 316.909091 251.162791 
L 327.477273 248.584186 
L 338.045455 246.005581 
L 348.613636 243.426977 
L 359.181818 240.848372 
L 369.75 238.269767 
L 380.318182 235.691163 
L 390.886364 233.112558 
L 401.454545 230.533953 
L 412.022727 227.955349 
L 422.590909 225.376744 
L 433.159091 222.79814 
L 443.727273 220.219535 
L 454.295455 217.64093 
L 464.863636 215.062326 
L 475.431818 212.483721 
L 486 209.905116 
" clip-path="url(#p8a7ba08ba2)" style="fill: none; stroke: #7436b2; stroke-width: 2; stroke-linecap: round"/>
   </g>
   <g id="PathCollection_3">
    <g>
     <use xlink:href="#m0281f916e5" x="306.340909" y="255.743424" style="stroke: #000000"/>
     <use xlink:href="#m0281f916e5" x="316.909091" y="254.1024" style="stroke: #000000"/>
     <use xlink:href="#m0281f916e5" x="327.477273" y="253.21536" style="stroke: #000000"/>
     <use xlink:href="#m0281f916e5" x="338.045455" y="250.776" style="stroke: #000000"/>
     <use xlink:href="#m0281f916e5" x="348.613636" y="247.00608" style="stroke: #000000"/>
     <use xlink:href="#m0281f916e5" x="359.181818" y="241.68384" style="stroke: #000000"/>
     <use xlink:href="#m0281f916e5" x="369.75" y="234.144" style="stroke: #000000"/>
     <use xlink:href="#m0281f916e5" x="380.318182" y="229.7088" style="stroke: #000000"/>
     <use xlink:href="#m0281f916e5" x="390.886364" y="218.6208" style="stroke: #000000"/>
     <use xlink:href="#m0281f916e5" x="401.454545" y="194.2272" style="stroke: #000000"/>
     <use xlink:href="#m0281f916e5" x="412.022727" y="176.4864" style="stroke: #000000"/>
     <use xlink:href="#m0281f916e5" x="422.590909" y="140.11776" style="stroke: #000000"/>
     <use xlink:href="#m0281f916e5" x="433.159091" y="121.0464" style="stroke: #000000"/>
     <use xlink:href="#m0281f916e5" x="443.727273" y="105.5232" style="stroke: #000000"/>
     <use xlink:href="#m0281f916e5" x="454.295455" y="83.3472" style="stroke: #000000"/>
     <use xlink:href="#m0281f916e5" x="464.863636" y="56.736" style="stroke: #000000"/>
     <use xlink:href="#m0281f916e5" x="475.431818" y="43.4304" style="stroke: #000000"/>
    </g>
   </g>
   <g id="PathCollection_4">
    <defs>
     <path id="C1_0_caadff1cff" d="M 0 3.5 
C 0.928211 3.5 1.81853 3.131218 2.474874 2.474874 
C 3.131218 1.81853 3.5 0.928211 3.5 -0 
C 3.5 -0.928211 3.131218 -1.81853 2.474874 -2.474874 
C 1.81853 -3.131218 0.928211 -3.5 0 -3.5 
C -0.928211 -3.5 -1.81853 -3.131218 -2.474874 -2.474874 
C -3.131218 -1.81853 -3.5 -0.928211 -3.5 0 
C -3.5 0.928211 -3.131218 1.81853 -2.474874 2.474874 
C -1.81853 3.131218 -0.928211 3.5 0 3.5 
z
"/>
    </defs>
    <use xlink:href="#C1_0_caadff1cff" x="306.340909" y="255.743424" style="fill: none; stroke: #000000"/>
    <use xlink:href="#C1_0_caadff1cff" x="316.909091" y="254.1024" style="fill: none; stroke: #000000"/>
    <use xlink:href="#C1_0_caadff1cff" x="327.477273" y="253.21536" style="fill: none; stroke: #000000"/>
    <use xlink:href="#C1_0_caadff1cff" x="338.045455" y="250.776" style="fill: none; stroke: #000000"/>
    <use xlink:href="#C1_0_caadff1cff" x="348.613636" y="247.00608" style="fill: none; stroke: #000000"/>
    <use xlink:href="#C1_0_caadff1cff" x="359.181818" y="241.68384" style="fill: none; stroke: #000000"/>
    <use xlink:href="#C1_0_caadff1cff" x="369.75" y="234.144" style="fill: none; stroke: #000000"/>
    <use xlink:href="#C1_0_caadff1cff" x="380.318182" y="229.7088" style="fill: none; stroke: #000000"/>
   </g>
  </g>
 </g>
 <defs>
  <clipPath id="p6dbb3272e9">
   <rect x="67.5" y="34.56" width="190.227273" height="221.76"/>
  </clipPath>
  <clipPath id="p8a7ba08ba2">
   <rect x="295.772727" y="34.56" width="190.227273" height="221.76"/>
  </clipPath>
 </defs>
</svg>
